<?xml version="1.0" encoding="UTF-8" standalone="no"?>
<!-- Created with Inkscape (http://www.inkscape.org/) -->

<svg
   version="1.1"
   id="svg1"
   width="2160"
   height="3840"
   viewBox="0 0 2160 3839.9999"
   sodipodi:docname="background_portrait.svg"
   inkscape:version="1.4.2 (ebf0e940d0, 2025-05-08)"
   xmlns:inkscape="http://www.inkscape.org/namespaces/inkscape"
   xmlns:sodipodi="http://sodipodi.sourceforge.net/DTD/sodipodi-0.dtd"
   xmlns="http://www.w3.org/2000/svg"
   xmlns:svg="http://www.w3.org/2000/svg">
  <defs
     id="defs1">
    <clipPath
       clipPathUnits="userSpaceOnUse"
       id="clipPath3">
      <path
         d="M 0,1190.551 H 841.89 V 0 H 0 Z"
         transform="translate(-587.87902,-1164.6268)"
         id="path3" />
    </clipPath>
    <clipPath
       clipPathUnits="userSpaceOnUse"
       id="clipPath6">
      <path
         d="M 0,1190.551 H 841.89 V 0 H 0 Z"
         transform="translate(-445.15551,-1119.472)"
         id="path6" />
    </clipPath>
    <clipPath
       clipPathUnits="userSpaceOnUse"
       id="clipPath8">
      <path
         d="M 0,1190.551 H 841.89 V 0 H 0 Z"
         id="path8" />
    </clipPath>
    <clipPath
       clipPathUnits="userSpaceOnUse"
       id="clipPath10">
      <path
         d="M 0,1190.551 H 841.89 V 0 H 0 Z"
         transform="translate(-369.68691,-1106.4723)"
         id="path10" />
    </clipPath>
    <clipPath
       clipPathUnits="userSpaceOnUse"
       id="clipPath12">
      <path
         d="M 0,1190.551 H 841.89 V 0 H 0 Z"
         id="path12" />
    </clipPath>
    <clipPath
       clipPathUnits="userSpaceOnUse"
       id="clipPath14">
      <path
         d="M 0,1190.551 H 841.89 V 0 H 0 Z"
         transform="translate(-299.27521,-1080.4736)"
         id="path14" />
    </clipPath>
    <clipPath
       clipPathUnits="userSpaceOnUse"
       id="clipPath16">
      <path
         d="M 0,1190.551 H 841.89 V 0 H 0 Z"
         id="path16" />
    </clipPath>
    <clipPath
       clipPathUnits="userSpaceOnUse"
       id="clipPath19">
      <path
         d="M 0,1190.551 H 841.89 V 0 H 0 Z"
         transform="translate(-982.03165,-162.8955)"
         id="path19" />
    </clipPath>
    <clipPath
       clipPathUnits="userSpaceOnUse"
       id="clipPath23">
      <path
         d="M 0,1190.551 H 841.89 V 0 H 0 Z"
         transform="translate(-307.23591,-161.92838)"
         id="path23" />
    </clipPath>
    <clipPath
       clipPathUnits="userSpaceOnUse"
       id="clipPath25">
      <path
         d="M 0,1190.551 H 841.89 V 0 H 0 Z"
         transform="translate(-302.26681,-16.556325)"
         id="path25" />
    </clipPath>
  </defs>
  <sodipodi:namedview
     id="namedview1"
     pagecolor="#ffffff"
     bordercolor="#000000"
     borderopacity="0.25"
     inkscape:showpageshadow="2"
     inkscape:pageopacity="0.0"
     inkscape:pagecheckerboard="0"
     inkscape:deskcolor="#d1d1d1"
     inkscape:zoom="0.24981067"
     inkscape:cx="554.41988"
     inkscape:cy="1535.1626"
     inkscape:window-width="1920"
     inkscape:window-height="1044"
     inkscape:window-x="0"
     inkscape:window-y="20"
     inkscape:window-maximized="1"
     inkscape:current-layer="layer-MC0"
     showgrid="false">
    <inkscape:page
       x="0"
       y="0"
       inkscape:label="1"
       id="page1"
       width="2160"
       height="3840"
       margin="0"
       bleed="0" />
  </sodipodi:namedview>
  <g
     id="layer-MC0"
     inkscape:groupmode="layer"
     inkscape:label="Layer 1"
     transform="translate(518.74,1126.3013)">
    <path
       id="path1"
       d="M -518.74001,2713.6987 H 1641.26 v -3840 H -518.74001 Z"
       style="fill:#4397d9;fill-opacity:1;fill-rule:nonzero;stroke:none;stroke-width:2.87667" />
    <path
       id="path2"
       d="M 0,0 C 0,76.798 -60.464,141.347 -136.449,146.249 -60.464,151.969 0,216.514 0,293.316 0,374.203 -66.184,440.379 -147.071,440.379 l -147.067,10e-4 h -294.13 V 293.317 l 278.61,-0.001 C -383.193,285.144 -441.201,223.052 -441.201,147.063 -441.201,66.181 -375.021,0 -294.138,0 h -294.13 v -147.067 h 441.197 C -66.184,-147.067 0,-80.887 0,0"
       style="fill:#5fb63e;fill-opacity:1;fill-rule:nonzero;stroke:none"
       transform="matrix(2.5656558,0,0,-3.2253946,989.55522,-1042.6824)"
       clip-path="url(#clipPath3)" />
    <path
       id="path4"
       d="m -348.04622,-729.32572 v -88.37077 l -22.36932,62.13924 h -19.54308 l -22.36931,-62.13924 v 88.37077 h -36.65079 v -167.74572 h 40.04828 l 28.74336,78.92138 28.92376,-78.92138 h 39.83782 v 167.74572 z m 90.35668,-167.74572 h 40.98034 l 42.45359,167.74572 h -37.19199 l -8.08783,-32.84611 h -35.50827 l -7.90744,32.84611 h -37.40245 z m 32.32125,104.20797 -11.81605,-59.07764 -12.41737,59.07764 z m 62.19211,63.53775 v -167.74572 h 51.32312 c 14.770071,0 27.134839,3.74197 37.101796,11.22589 9.959465,7.48392 17.476016,17.56643 22.549703,30.23807 5.06617,12.6811 7.606785,26.7418 7.606785,42.18212 0,17.00891 -2.788663,31.81612 -8.358445,44.41217 -5.577274,12.6055 -13.402037,22.36672 -23.481755,29.29313 -10.087235,6.93586 -21.888251,10.39434 -35.418084,10.39434 z m 81.3894,-84.09964 c 0,-8.6651 -1.195134,-16.26242 -3.577884,-22.79195 -2.390267,-6.54844 -5.832864,-11.62276 -10.3428,-15.23243 -4.509936,-3.62857 -9.891806,-5.44285 -16.145596,-5.44285 h -14.67234 v 87.38803 h 14.67234 c 6.37406,0 11.78598,-1.88988 16.235805,-5.66964 4.449796,-3.77976 7.862324,-9.00528 10.252591,-15.686 2.38275,-6.69963 3.577884,-14.22135 3.577884,-22.56516 z m 148.249316,43.9208 v 40.17884 h -95.099651 v -167.74572 h 93.415939 v 40.17885 H 8.0136888 v 23.62349 H 56.510588 v 37.30623 H 8.0136888 v 26.45831 z m 0,0"
       style="fill:#ffffff;fill-opacity:1;fill-rule:nonzero;stroke:none;stroke-width:2.87667"
       aria-label="MADE" />
    <path
       id="path5"
       d="M 0,0 C -6.788,0 -12.494,-5.344 -12.927,-12.061 -13.433,-5.344 -19.138,0 -25.927,0 -33.076,0 -38.926,-5.85 -38.926,-13 v -12.999 -25.999 h 12.999 v 24.627 c 0.723,-6.5 6.211,-11.627 12.928,-11.627 7.149,0 12.999,5.849 12.999,12.999 V -51.998 H 12.999 V -13 C 12.999,-5.85 7.15,0 0,0"
       style="fill:#ffffff;fill-opacity:1;fill-rule:nonzero;stroke:none"
       transform="matrix(2.5656558,0,0,-3.2253946,623.37583,-897.04035)"
       clip-path="url(#clipPath6)" />
    <path
       id="path7"
       d="m 382.687,1067.474 h 12.999 v 51.998 h -12.999 z"
       style="fill:#ffffff;fill-opacity:1;fill-rule:nonzero;stroke:none"
       transform="matrix(2.5656558,0,0,-3.2253946,-518.74001,2713.6987)"
       clip-path="url(#clipPath8)" />
    <path
       id="path9"
       d="M 0,0 H 13 C 13,7.15 7.15,13 0,13 -7.149,13 -12.999,7.15 -12.999,0 v -25.999 c 0,-7.149 5.85,-12.999 12.999,-12.999 7.15,0 13,5.85 13,12.999 H 0 Z"
       style="fill:#ffffff;fill-opacity:1;fill-rule:nonzero;stroke:none"
       transform="matrix(2.5656558,0,0,-3.2253946,429.74937,-855.11119)"
       clip-path="url(#clipPath10)" />
    <path
       id="path11"
       d="m 296.675,1067.474 h 51.997 v 12.999 h -51.997 z"
       style="fill:#ffffff;fill-opacity:1;fill-rule:nonzero;stroke:none"
       transform="matrix(2.5656558,0,0,-3.2253946,-518.74001,2713.6987)"
       clip-path="url(#clipPath12)" />
    <path
       id="path13"
       d="M 0,0 50.192,13.433 46.798,25.999 -3.395,12.566 Z"
       style="fill:#ffffff;fill-opacity:1;fill-rule:nonzero;stroke:none"
       transform="matrix(2.5656558,0,0,-3.2253946,249.09717,-771.25513)"
       clip-path="url(#clipPath14)" />
    <path
       id="path15"
       d="m 296.675,1106.472 h 51.997 v 12.999 h -51.997 z"
       style="fill:#ffffff;fill-opacity:1;fill-rule:nonzero;stroke:none"
       transform="matrix(2.5656558,0,0,-3.2253946,-518.74001,2713.6987)"
       clip-path="url(#clipPath16)" />
    <path
       id="path17"
       d="m 152.57989,-886.06289 c 8.95975,0 17.55871,1.71979 25.79687,5.14047 8.23816,3.43014 15.6495,8.684 22.24904,15.7616 6.61459,7.08705 11.82357,16.10178 15.63447,27.06308 3.82593,10.9613 5.74266,24.05816 5.74266,39.27169 0,2.59859 -0.16536,6.07597 -0.48106,10.43214 -0.30066,4.33728 -0.93206,9.02418 -1.89418,14.06071 -0.96212,5.01763 -2.51053,9.77067 -4.6302,14.24969 -2.12719,4.48846 -5.00604,8.18318 -8.62902,11.07469 -3.63051,2.89152 -8.23065,4.34673 -13.80043,4.34673 -4.49491,0 -8.07279,-0.92604 -10.73366,-2.75923 -2.66838,-1.81428 -4.61517,-4.01599 -5.83286,-6.61458 -1.20265,-2.58913 -1.98437,-5.02708 -2.34517,-7.29493 -4.11156,4.71525 -8.83197,8.29657 -14.16122,10.73451 -5.33676,2.41905 -10.84641,3.62857 -16.53645,3.62857 -9.20028,0 -16.19821,-2.99546 -20.98626,-8.99582 -4.79557,-6.01927 -7.18584,-13.98511 -7.18584,-23.88808 0,-8.81629 1.63109,-15.77105 4.9008,-20.86427 3.28474,-5.11213 7.52409,-8.7785 12.71804,-10.9991 5.20898,-2.21116 10.59836,-3.32619 16.17566,-3.32619 4.60765,0 8.45614,0.51027 11.54545,1.5119 3.08179,0.98274 5.41944,2.00327 7.00544,3.06161 0,-4.10104 -0.55623,-7.72016 -1.65364,-10.84791 -1.08239,-3.1183 -3.02167,-5.55625 -5.8028,-7.29494 -2.78864,-1.75759 -6.72733,-2.64583 -11.81605,-2.64583 -5.09623,0 -9.60617,0.85045 -13.52982,2.53244 -3.93117,1.66309 -7.11068,3.94985 -9.53101,6.84136 l -5.83286,-22.14939 c 4.60766,-3.94984 9.66631,-6.80356 15.18347,-8.54225 5.50965,-1.75759 11.22976,-2.64583 17.16785,-2.64583 8.71922,0 15.52923,1.5686 20.44507,4.6869 4.90832,3.12775 8.44862,7.20044 10.61339,12.20862 2.17981,5.01763 3.51776,10.3093 3.99882,15.87499 0.48106,5.57514 0.72159,10.86681 0.72159,15.87499 v 15.30802 c 0,4.41287 0.15032,8.83519 0.45099,13.26696 0.3157,4.41287 1.11246,8.03199 2.37524,10.84791 1.27782,2.79702 3.31481,4.19553 6.10346,4.19553 2.90139,0 5.20146,-1.39851 6.88517,-4.19553 1.69875,-2.81592 2.97657,-6.32165 3.81842,-10.50773 0.84186,-4.20499 1.38305,-8.32492 1.62358,-12.35982 0.25556,-4.02544 0.39086,-7.26658 0.39086,-9.71398 0,-10.20535 -1.33795,-19.59805 -3.99881,-28.197 -2.66839,-8.5895 -6.4868,-16.04508 -11.45526,-22.37618 -4.97597,-6.32164 -10.97419,-11.19753 -18.0097,-14.62766 -7.02047,-3.42069 -14.94294,-5.14048 -23.78242,-5.14048 -8.71923,0 -16.56652,1.71979 -23.5419,5.14048 -6.96035,3.43013 -12.83079,8.26822 -17.61884,14.51427 -4.77302,6.2555 -8.43359,13.59769 -10.974193,22.036 -2.548117,8.44776 -3.818418,17.68927 -3.818418,27.74343 0,9.60059 1.172585,18.63421 3.517755,27.10088 2.360206,8.44776 5.817826,15.82774 10.372866,22.14939 4.54753,6.29329 10.08724,11.27313 16.62665,14.93004 6.5319,3.64747 14.04096,5.48066 22.51965,5.48066 6.31392,0 11.55296,-0.92605 15.72466,-2.75923 4.18673,-1.81428 8.51627,-3.77976 12.98863,-5.89642 l 3.63802,15.53481 c -5.2165,3.0238 -10.63594,5.29166 -16.26586,6.80356 -5.63742,1.53081 -11.17713,2.30566 -16.62665,2.30566 -9.08001,0 -17.61884,-2.02217 -25.61647,-6.04762 -7.99763,-4.03489 -14.99555,-9.78012 -20.98626,-17.2357 -5.998223,-7.46502 -10.718628,-16.47975 -14.161217,-27.06308 -3.450106,-10.58332 -5.1714,-22.49901 -5.1714,-35.75652 0,-14.00401 1.901692,-26.30713 5.712593,-36.89045 3.803384,-10.58333 8.974784,-19.44686 15.514204,-26.60951 6.55444,-7.15319 14.07101,-12.52045 22.54971,-16.10177 8.47868,-3.57187 17.3783,-5.36726 26.69885,-5.36726 z m 7.27604,114.90468 c 1.08239,-0.77485 2.16477,-1.70089 3.24716,-2.75922 1.09742,-1.05833 2.01444,-2.26786 2.73603,-3.62857 0.73662,-1.37961 1.11245,-2.91041 1.11245,-4.57351 v -9.3738 c -1.82652,-0.90714 -4.40471,-1.85208 -7.72703,-2.83482 -3.32984,-1.00164 -6.7574,-1.5119 -10.28267,-1.5119 -3.26971,0 -5.96816,0.58586 -8.08783,1.73868 -2.10464,1.13393 -3.68312,2.89152 -4.7204,5.25387 -1.02226,2.34345 -1.53339,5.27276 -1.53339,8.76904 0,2.90097 0.3608,5.31056 1.08239,7.21934 0.73663,1.88988 1.92424,3.28839 3.54782,4.19554 1.63862,0.90714 3.67561,1.36071 6.10346,1.36071 1.68371,0 3.9462,-0.26458 6.79498,-0.79375 2.84126,-0.52917 5.41944,-1.5497 7.72703,-3.06161 z m 0,0"
       style="fill:#ffffff;fill-opacity:1;fill-rule:nonzero;stroke:none;stroke-width:2.87667"
       aria-label="@" />
    <path
       id="path18"
       d="M 0,0 V -279.364 C 153.646,-279.364 279.364,-153.646 279.364,0 279.364,153.638 153.646,279.349 0,279.349 H -558.705 C -712.35,279.349 -838.061,153.638 -838.061,0 c 0,-153.646 125.711,-279.364 279.356,-279.364 V 0 Z"
       style="fill:#f7f11f;fill-opacity:1;fill-rule:nonzero;stroke:none"
       transform="matrix(2.5656558,0,0,-3.2253946,2000.8152,2188.2964)"
       clip-path="url(#clipPath19)" />
    <path
       id="path20"
       d="m 634.76786,2338.601 v -95.7791 h 29.01396 c 3.10434,0 5.95312,0.9072 8.53882,2.7215 2.60074,1.7953 4.87826,4.1766 6.82505,7.1437 1.96182,2.9482 3.45762,6.3028 4.47987,10.0542 1.03729,3.7325 1.56345,7.4744 1.56345,11.2258 0,5.3201 -0.8644,10.3566 -2.5857,15.1191 -1.70626,4.7625 -4.11908,8.6556 -7.24597,11.6794 -3.11186,3.0049 -6.77995,4.498 -11.00426,4.498 h -18.58096 v 33.3374 z m 11.00426,-46.68 h 17.9195 c 1.99941,0 3.78835,-0.7748 5.3518,-2.3434 1.56344,-1.5875 2.79616,-3.742 3.69815,-6.4634 0.90199,-2.7404 1.35298,-5.8303 1.35298,-9.2604 0,-3.4963 -0.52616,-6.5768 -1.56344,-9.2227 -1.02226,-2.6647 -2.36772,-4.7436 -4.02888,-6.2366 -1.66868,-1.4835 -3.42756,-2.23 -5.29167,-2.23 h -17.43844 z m 70.19724,48.0407 c -4.02888,0 -7.63683,-0.9732 -10.82386,-2.9104 -3.17199,-1.9371 -5.90802,-4.6113 -8.20809,-8.0131 -2.30759,-3.4206 -4.0815,-7.3138 -5.32173,-11.6794 -1.2252,-4.3562 -1.83405,-8.9675 -1.83405,-13.8339 0,-5.0366 0.60885,-9.7329 1.83405,-14.0985 1.24023,-4.3562 3.01414,-8.2399 5.32173,-11.6417 2.30007,-3.4207 5.05865,-6.1043 8.26823,-8.0509 3.20206,-1.9371 6.79497,-2.9104 10.76372,-2.9104 4.00634,0 7.58422,0.9733 10.73367,2.9104 3.14192,1.9466 5.89299,4.6302 8.23816,8.0509 2.34517,3.4018 4.12659,7.2855 5.35179,11.6417 1.24024,4.3656 1.86411,9.0619 1.86411,14.0985 0,4.8664 -0.62387,9.4777 -1.86411,13.8339 -1.2252,4.3656 -2.99159,8.2588 -5.29166,11.6794 -2.30759,3.4018 -5.07369,6.076 -8.29829,8.0131 -3.20958,1.9372 -6.78747,2.9104 -10.73367,2.9104 z m -15.18347,-36.588 c 0,4.6113 0.67649,8.7218 2.04451,12.322 1.3605,3.5813 3.17199,6.4067 5.442,8.4667 2.26248,2.0694 4.78805,3.0994 7.5767,3.0994 2.92395,0 5.51716,-1.03 7.78716,-3.0994 2.28504,-2.06 4.10405,-4.9326 5.47207,-8.6179 1.3605,-3.7042 2.04451,-7.758 2.04451,-12.1708 0,-4.479 -0.68401,-8.5423 -2.04451,-12.1709 -1.36802,-3.6474 -3.20206,-6.5106 -5.50213,-8.58 -2.30759,-2.06 -4.8557,-3.0994 -7.63684,-3.0994 -2.87132,0 -5.43448,1.0867 -7.69696,3.2506 -2.27001,2.145 -4.0815,5.0176 -5.442,8.6178 -1.36802,3.6097 -2.04451,7.5974 -2.04451,11.9819 z m 69.00211,36.588 c -4.29196,0 -8.3509,-0.9827 -12.17684,-2.9482 -3.83345,-1.9843 -7.11067,-4.9231 -9.83167,-8.8068 l 3.90861,-9.8274 c 2.98408,3.5057 5.95313,6.0854 8.89962,7.7485 2.9465,1.6631 5.87796,2.4947 8.80942,2.4947 3.04421,0 5.4871,-0.7749 7.33617,-2.3435 1.86411,-1.5875 2.79617,-3.9026 2.79617,-6.9547 0,-2.2679 -0.51113,-3.931 -1.53338,-4.9893 -1.00722,-1.0773 -2.42785,-2.0222 -4.26941,-2.8348 -1.84908,-0.8032 -4.02889,-1.7104 -6.55445,-2.7215 -3.59292,-1.5119 -6.63713,-3.0994 -9.14015,-4.7625 -2.48799,-1.6631 -4.3521,-3.7041 -5.59233,-6.1232 -1.2252,-2.4379 -1.83404,-5.5562 -1.83404,-9.336 0,-4.5073 0.84185,-8.3722 2.52556,-11.6038 1.68372,-3.2506 4.0364,-5.7453 7.06558,-7.484 3.02166,-1.7576 6.50935,-2.6458 10.46306,-2.6458 3.70567,0 7.13323,0.7938 10.28267,2.3812 3.14193,1.5687 5.92306,4.0066 8.32836,7.3328 l -4.60014,9.714 c -2.20987,-2.7687 -4.50994,-4.8192 -6.91524,-6.161 -2.39027,-1.3608 -4.94591,-2.0411 -7.6669,-2.0411 -1.50332,0 -2.9916,0.2551 -4.44981,0.7559 -1.44318,0.482 -2.66087,1.3796 -3.63802,2.6837 -0.98467,1.2851 -1.47325,3.0994 -1.47325,5.4428 0,1.9938 0.39838,3.553 1.20265,4.6869 0.81931,1.1151 2.01444,2.0694 3.57789,2.8726 1.56345,0.8127 3.47265,1.7009 5.74266,2.6837 3.96875,1.5402 7.34369,3.1183 10.13233,4.7247 2.78113,1.6158 4.93839,3.6663 6.46425,6.161 1.51835,2.4757 2.28504,5.8586 2.28504,10.1675 0,6.7563 -1.83404,12.0764 -5.50213,15.9506 -3.66809,3.8554 -8.55385,5.783 -14.64228,5.783 z m 57.92269,-4.9892 c -0.84185,0.5291 -1.98437,1.1906 -3.42755,1.9654 -1.42815,0.756 -2.97657,1.3985 -4.66028,1.9277 -1.68371,0.5481 -3.44259,0.8316 -5.2616,0.8316 -2.20987,0 -4.25438,-0.567 -6.13352,-1.7009 -1.88666,-1.134 -3.39749,-2.8537 -4.54001,-5.1783 -1.12748,-2.3435 -1.68371,-5.3673 -1.68371,-9.0714 v -44.2232 h -6.82504 v -11.4905 h 6.82504 v -23.1699 h 10.7036 v 23.1699 h 11.09445 v 11.4905 h -11.09445 v 39.3851 c 0.13528,2.419 0.70656,4.2239 1.71378,5.405 0.9997,1.1623 2.25497,1.7387 3.75828,1.7387 1.48076,0 2.91643,-0.3779 4.29948,-1.1339 1.39808,-0.7748 2.3602,-1.3418 2.88636,-1.7009 z m 29.78065,4.9892 c -4.02888,0 -7.63683,-0.9732 -10.82386,-2.9104 -3.17199,-1.9371 -5.92306,-4.5829 -8.26823,-7.9375 -2.33013,-3.3734 -4.11908,-7.2382 -5.38186,-11.6038 -1.26279,-4.3845 -1.89418,-8.9959 -1.89418,-13.8339 0,-6.7469 1.09742,-12.9079 3.30729,-18.4831 2.20236,-5.594 5.29919,-10.0541 9.29049,-13.3803 3.98378,-3.3262 8.5764,-4.9893 13.77035,-4.9893 5.38938,0 10.01207,1.6914 13.86056,5.0649 3.86351,3.3829 6.87014,7.8146 9.01988,13.3047 2.14222,5.4712 3.2171,11.3582 3.2171,17.6515 0,1.0867 -0.0451,2.1072 -0.12028,3.0616 -0.0601,0.9355 -0.12025,1.6631 -0.18039,2.1923 h -40.89014 c 0.31569,4.2333 1.18762,7.8997 2.61576,10.9991 1.44318,3.0994 3.29226,5.5373 5.56226,7.2949 2.28504,1.767 4.69034,2.6458 7.21591,2.6458 2.92395,0 5.65998,-0.9827 8.2081,-2.9482 2.56315,-1.9843 4.30699,-4.6113 5.23153,-7.8619 l 9.14015,3.6286 c -1.10494,3.4301 -2.79617,6.5201 -5.08121,9.2604 -2.27,2.7498 -4.91583,4.9137 -7.93749,6.5012 -3.00663,1.5591 -6.29889,2.3434 -9.86174,2.3434 z m -15.27367,-41.5773 h 30.75781 c -0.26308,-4.1294 -1.09743,-7.7202 -2.49551,-10.7723 -1.38305,-3.0427 -3.21709,-5.4523 -5.50213,-7.2194 -2.27,-1.7576 -4.73543,-2.6458 -7.3963,-2.6458 -2.72852,0 -5.2165,0.8882 -7.45644,2.6458 -2.2249,1.7671 -4.05895,4.1767 -5.50213,7.2194 -1.42814,3.0521 -2.2249,6.6429 -2.4053,10.7723 z m 70.95642,4.9893 c 0,-6.728 0.97716,-12.8512 2.94651,-18.3697 1.98435,-5.5373 4.69784,-9.9502 8.14795,-13.2291 3.44258,-3.2979 7.40382,-4.9515 11.87617,-4.9515 3.96876,0 7.52409,1.3985 10.67354,4.1955 3.14193,2.7971 5.56226,6.2177 7.24597,10.2432 v -41.1238 h 10.70359 v 81.7184 c 0,1.6442 0.21808,2.8348 0.66147,3.5908 0.45851,0.7559 1.21017,1.1906 2.25496,1.2851 v 11.8684 c -1.94679,0.4536 -3.50271,0.7182 -4.66026,0.7938 -2.02948,0 -3.72071,-0.8316 -5.0812,-2.4947 -1.36804,-1.6631 -2.10466,-3.6096 -2.22491,-5.8586 l -0.0903,-5.1027 c -2.02946,4.3846 -4.68281,7.8241 -7.96757,10.3188 -3.2697,2.4663 -6.68974,3.7041 -10.25259,3.7041 -3.51023,0 -6.73485,-0.9732 -9.68135,-2.9104 -2.94648,-1.9371 -5.51716,-4.5829 -7.69697,-7.9375 -2.16477,-3.3734 -3.84848,-7.2382 -5.05113,-11.6038 -1.20266,-4.3845 -1.80397,-9.0903 -1.80397,-14.1363 z m 40.89014,9.8651 v -18.483 c -0.72159,-2.8726 -1.87913,-5.4239 -3.45763,-7.6729 -1.58598,-2.2678 -3.36742,-4.0916 -5.3518,-5.4806 -1.98436,-1.3797 -3.98377,-2.0789 -5.98319,-2.0789 -2.20985,0 -4.23933,0.6803 -6.10344,2.0411 -1.84909,1.3418 -3.44259,3.1183 -4.78053,5.3294 -1.32293,2.1923 -2.34519,4.7531 -3.06678,7.6729 -0.70656,2.9293 -1.05231,5.9626 -1.05231,9.1093 0,3.1561 0.39086,6.161 1.17259,9.0336 0.78173,2.8726 1.89417,5.4239 3.33735,7.6351 1.45822,2.1923 3.14193,3.8931 5.05113,5.1027 1.92425,1.2095 4.02888,1.8143 6.31393,1.8143 1.42063,0 2.86381,-0.3213 4.32954,-0.9828 1.45822,-0.6803 2.83375,-1.6442 4.11909,-2.9104 1.30035,-1.2568 2.43534,-2.7592 3.39746,-4.4979 0.97716,-1.7576 1.66871,-3.638 2.07459,-5.6319 z m 47.39947,26.7229 c -4.02885,0 -7.6368,-0.9732 -10.82384,-2.9104 -3.17199,-1.9371 -5.92307,-4.5829 -8.26823,-7.9375 -2.33013,-3.3734 -4.11909,-7.2382 -5.38185,-11.6038 -1.26279,-4.3845 -1.8942,-8.9959 -1.8942,-13.8339 0,-6.7469 1.09744,-12.9079 3.30731,-18.4831 2.20236,-5.594 5.29918,-10.0541 9.29047,-13.3803 3.98377,-3.3262 8.5764,-4.9893 13.77034,-4.9893 5.3894,0 10.0121,1.6914 13.8606,5.0649 3.8635,3.3829 6.8701,7.8146 9.0199,13.3047 2.1422,5.4712 3.217,11.3582 3.217,17.6515 0,1.0867 -0.045,2.1072 -0.1203,3.0616 -0.06,0.9355 -0.1203,1.6631 -0.1804,2.1923 h -40.89009 c 0.31568,4.2333 1.18761,7.8997 2.61576,10.9991 1.44318,3.0994 3.29225,5.5373 5.56227,7.2949 2.28502,1.767 4.69032,2.6458 7.21586,2.6458 2.924,0 5.66,-0.9827 8.2081,-2.9482 2.5632,-1.9843 4.307,-4.6113 5.2316,-7.8619 l 9.1401,3.6286 c -1.1049,3.4301 -2.7962,6.5201 -5.0812,9.2604 -2.27,2.7498 -4.9158,4.9137 -7.9375,6.5012 -3.0066,1.5591 -6.2989,2.3434 -9.8617,2.3434 z m -15.27366,-41.5773 h 30.75776 c -0.263,-4.1294 -1.0974,-7.7202 -2.4954,-10.7723 -1.3831,-3.0427 -3.2171,-5.4523 -5.5022,-7.2194 -2.27,-1.7576 -4.7354,-2.6458 -7.3963,-2.6458 -2.72849,0 -5.21648,0.8882 -7.45643,2.6458 -2.22488,1.7671 -4.05894,4.1767 -5.50213,7.2194 -1.42814,3.0521 -2.22488,6.6429 -2.4053,10.7723 z m 50.12806,40.2166 v -70.5681 h 10.7035 v 70.5681 z m 0,-82.1719 v -16.2908 h 10.7035 v 16.2908 z m 69.1975,82.1719 h -10.6134 v -39.5363 c 0,-6.6523 -0.7817,-11.4715 -2.3452,-14.4764 -1.5484,-3.0238 -3.8109,-4.5357 -6.795,-4.5357 -2.0896,0 -4.1491,0.7465 -6.1936,2.23 -2.0445,1.493 -3.8635,3.4585 -5.442,5.8964 -1.586,2.4191 -2.7661,5.2445 -3.5478,8.4667 v 41.9553 h -10.7036 v -70.5681 h 9.7414 v 14.0607 c 1.2779,-3.1466 2.9616,-5.8397 5.0512,-8.0887 2.0821,-2.2678 4.4498,-4.0254 7.0956,-5.2916 2.6609,-1.2568 5.4871,-1.8899 8.4787,-1.8899 3.0442,0 5.5698,0.7749 7.5767,2.3057 2.022,1.5402 3.5854,3.6285 4.6904,6.2744 1.0974,2.6458 1.8716,5.7074 2.3151,9.1848 0.4585,3.4585 0.6915,7.1059 0.6915,10.9613 z m 35.5383,1.3607 c -4.0288,0 -7.6368,-0.9732 -10.8238,-2.9104 -3.172,-1.9371 -5.9231,-4.5829 -8.2682,-7.9375 -2.3302,-3.3734 -4.1191,-7.2382 -5.3819,-11.6038 -1.2628,-4.3845 -1.8942,-8.9959 -1.8942,-13.8339 0,-6.7469 1.0974,-12.9079 3.3073,-18.4831 2.2024,-5.594 5.2992,-10.0541 9.2905,-13.3803 3.9838,-3.3262 8.5764,-4.9893 13.7703,-4.9893 5.3894,0 10.0121,1.6914 13.8606,5.0649 3.8635,3.3829 6.8701,7.8146 9.0199,13.3047 2.1422,5.4712 3.2171,11.3582 3.2171,17.6515 0,1.0867 -0.045,2.1072 -0.1204,3.0616 -0.06,0.9355 -0.1203,1.6631 -0.1803,2.1923 h -40.8902 c 0.3157,4.2333 1.1877,7.8997 2.6158,10.9991 1.4432,3.0994 3.2923,5.5373 5.5623,7.2949 2.285,1.767 4.6903,2.6458 7.2159,2.6458 2.9239,0 5.66,-0.9827 8.2081,-2.9482 2.5631,-1.9843 4.307,-4.6113 5.2315,-7.8619 l 9.1401,3.6286 c -1.1049,3.4301 -2.7961,6.5201 -5.0812,9.2604 -2.27,2.7498 -4.9158,4.9137 -7.9375,6.5012 -3.0066,1.5591 -6.2988,2.3434 -9.8617,2.3434 z m -15.2736,-41.5773 h 30.7578 c -0.2631,-4.1294 -1.0974,-7.7202 -2.4955,-10.7723 -1.3831,-3.0427 -3.2171,-5.4523 -5.5022,-7.2194 -2.27,-1.7576 -4.7354,-2.6458 -7.3963,-2.6458 -2.7285,0 -5.2165,0.8882 -7.4564,2.6458 -2.2249,1.7671 -4.0589,4.1767 -5.5021,7.2194 -1.4282,3.0521 -2.2249,6.6429 -2.4053,10.7723 z m 75.5265,40.2166 v -95.7791 h 29.0139 c 3.1044,0 5.9532,0.9072 8.5388,2.7215 2.6008,1.7953 4.8783,4.1766 6.8251,7.1437 1.9618,2.9482 3.4576,6.3028 4.4799,10.0542 1.0373,3.7325 1.5634,7.4744 1.5634,11.2258 0,5.3201 -0.8644,10.3566 -2.5857,15.1191 -1.7063,4.7625 -4.1191,8.6556 -7.246,11.6794 -3.1118,3.0049 -6.7799,4.498 -11.0042,4.498 h -18.581 v 33.3374 z m 11.0042,-46.68 h 17.9195 c 1.9994,0 3.7884,-0.7748 5.3518,-2.3434 1.5635,-1.5875 2.7962,-3.742 3.6982,-6.4634 0.902,-2.7404 1.3529,-5.8303 1.3529,-9.2604 0,-3.4963 -0.5261,-6.5768 -1.5634,-9.2227 -1.0222,-2.6647 -2.3677,-4.7436 -4.0289,-6.2366 -1.6686,-1.4835 -3.4275,-2.23 -5.2916,-2.23 h -17.4385 z m 76.7893,-11.0747 c -4.089,0.104 -7.7421,1.4174 -10.9441,3.931 -3.2096,2.5229 -5.4946,6.0759 -6.8551,10.6589 v 43.1648 h -10.7036 v -70.5681 h 9.8316 v 15.6482 c 1.804,-4.7625 4.1266,-8.5989 6.9754,-11.5282 2.8638,-2.9199 5.8629,-4.5074 8.9898,-4.7625 0.6991,0 1.2628,0 1.6837,0 0.421,0 0.7592,0.038 1.0223,0.1133 z m 29.9084,59.1154 c -4.0289,0 -7.6368,-0.9732 -10.8238,-2.9104 -3.172,-1.9371 -5.9081,-4.6113 -8.2081,-8.0131 -2.3076,-3.4206 -4.0815,-7.3138 -5.3218,-11.6794 -1.2252,-4.3562 -1.834,-8.9675 -1.834,-13.8339 0,-5.0366 0.6088,-9.7329 1.834,-14.0985 1.2403,-4.3562 3.0142,-8.2399 5.3218,-11.6417 2.3,-3.4207 5.0586,-6.1043 8.2682,-8.0509 3.2021,-1.9371 6.795,-2.9104 10.7637,-2.9104 4.0064,0 7.5842,0.9733 10.7337,2.9104 3.1419,1.9466 5.893,4.6302 8.2382,8.0509 2.3451,3.4018 4.1266,7.2855 5.3517,11.6417 1.2403,4.3656 1.8642,9.0619 1.8642,14.0985 0,4.8664 -0.6239,9.4777 -1.8642,13.8339 -1.2251,4.3656 -2.9915,8.2588 -5.2916,11.6794 -2.3076,3.4018 -5.0737,6.076 -8.2983,8.0131 -3.2096,1.9372 -6.7875,2.9104 -10.7337,2.9104 z m -15.1834,-36.588 c 0,4.6113 0.6765,8.7218 2.0445,12.322 1.3605,3.5813 3.172,6.4067 5.442,8.4667 2.2624,2.0694 4.788,3.0994 7.5767,3.0994 2.9239,0 5.5171,-1.03 7.7871,-3.0994 2.2851,-2.06 4.1041,-4.9326 5.4721,-8.6179 1.3605,-3.7042 2.0445,-7.758 2.0445,-12.1708 0,-4.479 -0.684,-8.5423 -2.0445,-12.1709 -1.368,-3.6474 -3.2021,-6.5106 -5.5021,-8.58 -2.3076,-2.06 -4.8557,-3.0994 -7.6369,-3.0994 -2.8713,0 -5.4345,1.0867 -7.6969,3.2506 -2.27,2.145 -4.0815,5.0176 -5.442,8.6178 -1.368,3.6097 -2.0445,7.5974 -2.0445,11.9819 z m 45.5504,61.0053 c -2.2851,0 -4.4874,-0.4819 -6.6146,-1.4363 -2.1422,-0.9355 -4.0289,-2.4852 -5.6525,-4.6491 l 4.7505,-9.9786 c 0.7817,1.0772 1.7438,1.8615 2.8864,2.3435 1.1275,0.5008 2.2474,0.7559 3.3674,0.7559 1.2778,0 2.4729,-0.4536 3.5779,-1.3607 1.0974,-0.8882 1.9693,-2.0978 2.6157,-3.6286 0.6615,-1.5402 0.9922,-3.2884 0.9922,-5.2538 v -73.1384 h 10.7036 v 72.0422 c 0,4.6869 -0.7817,8.8636 -2.3451,12.5488 -1.5485,3.7042 -3.5479,6.5863 -6.0133,8.6557 -2.4654,2.06 -5.224,3.0994 -8.2682,3.0994 z m 5.923,-107.9499 v -16.2908 h 10.7036 v 16.2908 z m 46.6328,83.5326 c -4.0288,0 -7.6368,-0.9732 -10.8238,-2.9104 -3.172,-1.9371 -5.9231,-4.5829 -8.2683,-7.9375 -2.3301,-3.3734 -4.119,-7.2382 -5.3818,-11.6038 -1.2628,-4.3845 -1.8942,-8.9959 -1.8942,-13.8339 0,-6.7469 1.0974,-12.9079 3.3073,-18.4831 2.2024,-5.594 5.2992,-10.0541 9.2905,-13.3803 3.9838,-3.3262 8.5764,-4.9893 13.7703,-4.9893 5.3894,0 10.0121,1.6914 13.8606,5.0649 3.8635,3.3829 6.8701,7.8146 9.0199,13.3047 2.1422,5.4712 3.217,11.3582 3.217,17.6515 0,1.0867 -0.045,2.1072 -0.1203,3.0616 -0.06,0.9355 -0.1203,1.6631 -0.1803,2.1923 h -40.8902 c 0.3157,4.2333 1.1876,7.8997 2.6158,10.9991 1.4432,3.0994 3.2922,5.5373 5.5622,7.2949 2.2851,1.767 4.6904,2.6458 7.2159,2.6458 2.924,0 5.66,-0.9827 8.2081,-2.9482 2.5632,-1.9843 4.307,-4.6113 5.2316,-7.8619 l 9.1401,3.6286 c -1.1049,3.4301 -2.7962,6.5201 -5.0812,9.2604 -2.27,2.7498 -4.9158,4.9137 -7.9375,6.5012 -3.0066,1.5591 -6.2989,2.3434 -9.8617,2.3434 z m -15.2737,-41.5773 h 30.7578 c -0.263,-4.1294 -1.0974,-7.7202 -2.4954,-10.7723 -1.3831,-3.0427 -3.2171,-5.4523 -5.5022,-7.2194 -2.27,-1.7576 -4.7354,-2.6458 -7.3963,-2.6458 -2.7285,0 -5.2165,0.8882 -7.4564,2.6458 -2.2249,1.7671 -4.059,4.1767 -5.5021,7.2194 -1.4282,3.0521 -2.2249,6.6429 -2.4054,10.7723 z m 85.5461,40.2166 -16.356,-32.3925 -8.3585,10.9613 v 21.4312 h -10.7035 v -98.4627 h 10.7035 v 62.0259 l 23.542,-33.9801 h 11.5153 l -19.6934,29.5577 20.836,40.8592 z m 46.2495,-3.6285 c -0.8419,0.5291 -1.9844,1.1906 -3.4276,1.9654 -1.4281,0.756 -2.9765,1.3985 -4.6602,1.9277 -1.6837,0.5481 -3.4426,0.8316 -5.2616,0.8316 -2.2099,0 -4.2544,-0.567 -6.1336,-1.7009 -1.8866,-1.134 -3.3974,-2.8537 -4.54,-5.1783 -1.1274,-2.3435 -1.6837,-5.3673 -1.6837,-9.0714 v -44.2232 h -6.825 v -11.4905 h 6.825 v -23.1699 h 10.7036 v 23.1699 h 11.0945 v 11.4905 h -11.0945 v 39.3851 c 0.1352,2.419 0.7066,4.2239 1.7138,5.405 0.9997,1.1623 2.255,1.7387 3.7583,1.7387 1.4807,0 2.9164,-0.3779 4.2995,-1.1339 1.398,-0.7748 2.3602,-1.3418 2.8863,-1.7009 z m 29.7807,4.9892 c -4.0289,0 -7.6369,-0.9732 -10.8239,-2.9104 -3.172,-1.9371 -5.9231,-4.5829 -8.2682,-7.9375 -2.3302,-3.3734 -4.1191,-7.2382 -5.3819,-11.6038 -1.2628,-4.3845 -1.8942,-8.9959 -1.8942,-13.8339 0,-6.7469 1.0974,-12.9079 3.3073,-18.4831 2.2024,-5.594 5.2992,-10.0541 9.2905,-13.3803 3.9838,-3.3262 8.5764,-4.9893 13.7704,-4.9893 5.3893,0 10.012,1.6914 13.8605,5.0649 3.8635,3.3829 6.8701,7.8146 9.0199,13.3047 2.1422,5.4712 3.2171,11.3582 3.2171,17.6515 0,1.0867 -0.045,2.1072 -0.1204,3.0616 -0.06,0.9355 -0.1203,1.6631 -0.1803,2.1923 h -40.8902 c 0.3157,4.2333 1.1877,7.8997 2.6158,10.9991 1.4432,3.0994 3.2923,5.5373 5.5623,7.2949 2.285,1.767 4.6903,2.6458 7.2159,2.6458 2.9239,0 5.66,-0.9827 8.2081,-2.9482 2.5631,-1.9843 4.307,-4.6113 5.2315,-7.8619 l 9.1401,3.6286 c -1.1049,3.4301 -2.7961,6.5201 -5.0811,9.2604 -2.2701,2.7498 -4.9159,4.9137 -7.9375,6.5012 -3.0067,1.5591 -6.2989,2.3434 -9.8618,2.3434 z m -15.2737,-41.5773 h 30.7578 c -0.2631,-4.1294 -1.0974,-7.7202 -2.4955,-10.7723 -1.3831,-3.0427 -3.2171,-5.4523 -5.5022,-7.2194 -2.27,-1.7576 -4.7354,-2.6458 -7.3963,-2.6458 -2.7285,0 -5.2165,0.8882 -7.4564,2.6458 -2.2249,1.7671 -4.0589,4.1767 -5.5021,7.2194 -1.4282,3.0521 -2.2249,6.6429 -2.4053,10.7723 z m -899.54552,184.5467 v -70.5681 h 10.70359 v 70.5681 z m 0,-82.1719 v -16.2908 h 10.70359 v 16.2908 z m 101.42859,82.1719 h -10.6134 v -39.5362 c 0,-6.5485 -0.79675,-11.3488 -2.37523,-14.4009 -1.586,-3.0711 -3.87104,-4.6113 -6.85511,-4.6113 -2.9916,0 -5.7577,1.5497 -8.2983,4.6491 -2.52556,3.0994 -4.34457,7.1343 -5.44199,12.0952 v 41.8041 h -10.7036 v -39.5362 c 0,-6.6524 -0.76669,-11.4716 -2.28504,-14.4765 -1.52586,-3.0238 -3.81841,-4.5357 -6.88517,-4.5357 -2.90892,0 -5.64495,1.5119 -8.2081,4.5357 -2.57067,3.0049 -4.40471,7.0209 -5.50213,12.0574 v 41.9553 h -10.70359 v -70.5681 h 9.74147 v 14.0607 c 1.99941,-4.857 4.63772,-8.6178 7.90743,-11.2636 3.28475,-2.6648 7.03551,-4.0066 11.24479,-4.0066 4.22431,0 7.55416,1.5119 9.98201,4.5357 2.44288,3.0049 3.98378,6.8414 4.6302,11.5283 2.14223,-5.2161 4.81812,-9.1943 8.0277,-11.9441 3.22461,-2.7403 6.91524,-4.1199 11.06439,-4.1199 2.98408,0 5.45703,0.7749 7.42637,2.3057 1.98438,1.5402 3.54782,3.6285 4.69034,6.2744 1.14252,2.6458 1.95431,5.7074 2.43537,9.1848 0.48106,3.4585 0.72159,7.1059 0.72159,10.9613 z m 95.88137,0 v -68.2624 l -20.35487,51.8205 h -6.40412 l -20.35487,-51.8205 v 68.2624 h -11.00426 v -95.7791 h 11.69578 l 22.88044,58.3973 22.85037,-58.3973 h 11.69578 v 95.7791 z m 20.93364,-20.6374 c 0,-4.5074 0.91702,-8.4384 2.7661,-11.7929 1.84156,-3.3734 4.39719,-5.9815 7.6669,-7.8241 3.28474,-1.8615 7.04303,-2.797 11.27486,-2.797 2.26248,0 4.55504,0.2551 6.88517,0.7559 2.34517,0.5103 4.45733,1.2001 6.34398,2.0789 v -4.4223 c 0,-4.961 -1.07486,-8.8258 -3.21708,-11.6039 -2.14974,-2.797 -5.22402,-4.1955 -9.23035,-4.1955 -2.87133,0 -5.56226,0.6803 -8.08783,2.0411 -2.52557,1.3418 -5.22402,3.3545 -8.08783,6.0476 l -3.48769,-10.092 c 3.22461,-3.071 6.56197,-5.3861 10.01207,-6.9547 3.44259,-1.5875 7.04303,-2.3813 10.7938,-2.3813 6.81001,0 12.16181,2.4947 16.0554,7.4839 3.9086,4.9893 5.86291,12.0764 5.86291,21.2423 v 26.3071 c 0,1.7198 0.21808,2.9388 0.66145,3.6664 0.45854,0.7087 1.21017,1.115 2.25498,1.2095 v 11.8684 c -0.96212,0.2741 -1.82651,0.4536 -2.58569,0.5292 -0.74414,0.094 -1.37553,0.189 -1.89417,0.2646 -2.33016,-0.076 -4.0815,-0.8788 -5.2616,-2.4191 -1.16509,-1.5308 -1.84909,-3.3356 -2.04452,-5.405 l -0.2706,-4.0444 c -2.14974,3.9593 -4.96093,7.0209 -8.44862,9.1849 -3.47265,2.1639 -6.94531,3.2505 -10.433,3.2505 -3.38997,0 -6.41915,-0.9732 -9.08001,-2.9104 -2.64583,-1.9371 -4.72041,-4.5735 -6.22372,-7.8997 -1.48828,-3.3262 -2.22491,-7.0492 -2.22491,-11.188 z m 32.41146,4.4601 c 0.72159,-1.2568 1.3229,-2.4663 1.80396,-3.6286 0.48106,-1.1812 0.72159,-2.2679 0.72159,-3.2506 v -7.9753 c -1.82652,-0.9827 -3.74324,-1.7103 -5.74265,-2.1922 -2.00692,-0.5009 -3.95371,-0.756 -5.83286,-0.756 -3.96875,0 -7.17832,1.0867 -9.62121,3.2506 -2.42785,2.145 -3.63802,5.1027 -3.63802,8.8824 0,2.0695 0.39838,4.0255 1.20265,5.8587 0.81931,1.8426 1.99189,3.3828 3.51776,4.6113 1.5409,1.2095 3.41252,1.8142 5.62239,1.8142 2.38276,0 4.64524,-0.652 6.79498,-1.9654 2.14222,-1.304 3.86352,-2.8537 5.17141,-4.6491 z m 54.12682,12.5488 c -0.84187,0.5291 -1.98438,1.1906 -3.42757,1.9654 -1.42814,0.756 -2.97657,1.3986 -4.66028,1.9277 -1.68371,0.5481 -3.44257,0.8316 -5.26159,0.8316 -2.20986,0 -4.25438,-0.567 -6.13351,-1.7009 -1.88666,-1.1339 -3.3975,-2.8537 -4.54001,-5.1783 -1.1275,-2.3434 -1.68371,-5.3672 -1.68371,-9.0714 v -44.2232 h -6.82505 v -11.4905 h 6.82505 v -23.1699 h 10.70358 v 23.1699 h 11.09446 v 11.4905 h -11.09446 v 39.3851 c 0.13521,2.419 0.70656,4.2239 1.71378,5.4051 0.99971,1.1622 2.25498,1.7386 3.75828,1.7386 1.48077,0 2.91643,-0.3779 4.2995,-1.1339 1.39808,-0.7748 2.3602,-1.3418 2.88636,-1.7009 z m 35.62102,0 c -0.84187,0.5291 -1.98438,1.1906 -3.42756,1.9654 -1.42815,0.756 -2.97657,1.3986 -4.66028,1.9277 -1.68371,0.5481 -3.44257,0.8316 -5.2616,0.8316 -2.20987,0 -4.25437,-0.567 -6.13351,-1.7009 -1.88665,-1.1339 -3.39749,-2.8537 -4.54,-5.1783 -1.1275,-2.3434 -1.68371,-5.3672 -1.68371,-9.0714 v -44.2232 h -6.82506 v -11.4905 h 6.82506 v -23.1699 h 10.70358 v 23.1699 h 11.09446 v 11.4905 H 958.8147 v 39.3851 c 0.13521,2.419 0.70656,4.2239 1.71378,5.4051 0.99971,1.1622 2.25498,1.7386 3.75828,1.7386 1.48076,0 2.91643,-0.3779 4.29947,-1.1339 1.3981,-0.7748 2.36022,-1.3418 2.88636,-1.7009 z m 29.78812,4.9893 c -4.02883,0 -7.63678,-0.9733 -10.82382,-2.9105 -3.17199,-1.9371 -5.92304,-4.5829 -8.26823,-7.9375 -2.33013,-3.3734 -4.11909,-7.2382 -5.38185,-11.6038 -1.26279,-4.3845 -1.89417,-8.9958 -1.89417,-13.8339 0,-6.7469 1.09741,-12.9079 3.30728,-18.4831 2.20236,-5.594 5.29918,-10.0541 9.29047,-13.3803 3.9838,-3.3262 8.5764,-4.9893 13.77032,-4.9893 5.3894,0 10.0121,1.6915 13.8606,5.0649 3.8635,3.3829 6.8701,7.8146 9.0199,13.3047 2.1422,5.4712 3.2171,11.3582 3.2171,17.6515 0,1.0867 -0.045,2.1072 -0.1204,3.0616 -0.06,0.9355 -0.1203,1.6631 -0.1803,2.1923 h -40.89017 c 0.31568,4.2333 1.18761,7.8997 2.61576,10.9991 1.44318,3.0994 3.29225,5.5373 5.56227,7.2949 2.28502,1.7671 4.69034,2.6458 7.21594,2.6458 2.9239,0 5.6599,-0.9827 8.2081,-2.9482 2.5631,-1.9843 4.307,-4.6113 5.2315,-7.8619 l 9.1401,3.6286 c -1.1049,3.4301 -2.7961,6.5201 -5.0812,9.2604 -2.27,2.7498 -4.9158,4.9137 -7.9375,6.5012 -3.0066,1.5592 -6.2989,2.3435 -9.8617,2.3435 z m -15.27364,-41.5774 h 30.75784 c -0.2631,-4.1294 -1.0974,-7.7202 -2.4955,-10.7723 -1.3831,-3.0427 -3.2171,-5.4523 -5.5021,-7.2194 -2.2701,-1.7575 -4.7355,-2.6458 -7.3963,-2.6458 -2.7286,0 -5.21656,0.8883 -7.45648,2.6458 -2.22491,1.7671 -4.05897,4.1767 -5.50216,7.2194 -1.42814,3.0521 -2.22488,6.6429 -2.4053,10.7723 z m 78.63084,-17.5381 c -4.089,0.104 -7.742,1.4174 -10.9441,3.931 -3.2096,2.523 -5.4946,6.0759 -6.8551,10.6589 v 43.1648 h -10.7036 v -70.5681 h 9.8316 v 15.6482 c 1.804,-4.7625 4.1266,-8.5989 6.9754,-11.5282 2.8638,-2.9199 5.863,-4.5074 8.9899,-4.7625 0.699,0 1.2627,0 1.6837,0 0.4209,0 0.7591,0.038 1.0222,0.1134 z m 85.7791,57.7547 h -10.6134 v -39.5362 c 0,-6.5485 -0.7968,-11.3488 -2.3752,-14.4009 -1.586,-3.0711 -3.8711,-4.6113 -6.8551,-4.6113 -2.9916,0 -5.7577,1.5497 -8.2983,4.6491 -2.5256,3.0994 -4.3446,7.1343 -5.442,12.0952 v 41.8041 h -10.7036 v -39.5362 c 0,-6.6524 -0.7667,-11.4716 -2.2851,-14.4765 -1.5258,-3.0238 -3.8184,-4.5357 -6.8851,-4.5357 -2.909,0 -5.645,1.5119 -8.2081,4.5357 -2.5707,3.0049 -4.4047,7.0209 -5.5022,12.0574 v 41.9553 h -10.7035 v -70.5681 h 9.7414 v 14.0607 c 1.9994,-4.857 4.6377,-8.6178 7.9074,-11.2636 3.2848,-2.6648 7.0356,-4.0066 11.2448,-4.0066 4.2243,0 7.5542,1.5119 9.982,4.5357 2.4429,3.0049 3.9838,6.8414 4.6303,11.5283 2.1422,-5.2161 4.8181,-9.1943 8.0276,-11.9441 3.2247,-2.7403 6.9153,-4.1199 11.0644,-4.1199 2.9841,0 5.4571,0.7749 7.4264,2.3057 1.9844,1.5402 3.5478,3.6285 4.6903,6.2744 1.1426,2.6458 1.9544,5.7074 2.4354,9.1848 0.4811,3.4585 0.7216,7.1059 0.7216,10.9613 z m 35.2452,1.3608 c -4.0289,0 -7.6368,-0.9733 -10.8239,-2.9105 -3.1719,-1.9371 -5.908,-4.6113 -8.2081,-8.0131 -2.3075,-3.4206 -4.0815,-7.3138 -5.3217,-11.6794 -1.2252,-4.3562 -1.834,-8.9675 -1.834,-13.8339 0,-5.0366 0.6088,-9.7329 1.834,-14.0985 1.2402,-4.3562 3.0142,-8.2399 5.3217,-11.6417 2.3001,-3.4207 5.0587,-6.1043 8.2683,-8.0509 3.202,-1.9371 6.795,-2.9104 10.7637,-2.9104 4.0063,0 7.5842,0.9733 10.7337,2.9104 3.1419,1.9466 5.8929,4.6302 8.2381,8.0509 2.3452,3.4018 4.1266,7.2855 5.3518,11.6417 1.2403,4.3656 1.8641,9.0619 1.8641,14.0985 0,4.8664 -0.6238,9.4777 -1.8641,13.8339 -1.2252,4.3656 -2.9916,8.2588 -5.2917,11.6794 -2.3075,3.4018 -5.0736,6.076 -8.2982,8.0131 -3.2096,1.9372 -6.7875,2.9105 -10.7337,2.9105 z m -15.1835,-36.5881 c 0,4.6113 0.6765,8.7218 2.0445,12.322 1.3605,3.5813 3.172,6.4067 5.442,8.4667 2.2625,2.0694 4.7881,3.0994 7.5767,3.0994 2.924,0 5.5172,-1.03 7.7872,-3.0994 2.285,-2.06 4.104,-4.9326 5.4721,-8.6179 1.3605,-3.7042 2.0445,-7.7579 2.0445,-12.1708 0,-4.479 -0.684,-8.5423 -2.0445,-12.1708 -1.3681,-3.6475 -3.2021,-6.5107 -5.5022,-8.5801 -2.3076,-2.06 -4.8557,-3.0994 -7.6368,-3.0994 -2.8713,0 -5.4345,1.0867 -7.697,3.2506 -2.27,2.145 -4.0815,5.0176 -5.442,8.6178 -1.368,3.6097 -2.0445,7.5974 -2.0445,11.9819 z m 69.0022,36.5881 c -4.292,0 -8.351,-0.9828 -12.1769,-2.9483 -3.8335,-1.9843 -7.1107,-4.9231 -9.8317,-8.8068 l 3.9086,-9.8274 c 2.9841,3.5058 5.9532,6.0854 8.8997,7.7485 2.9465,1.6631 5.8779,2.4947 8.8094,2.4947 3.0442,0 5.4871,-0.7749 7.3362,-2.3435 1.8641,-1.5875 2.7961,-3.9026 2.7961,-6.9547 0,-2.2679 -0.5111,-3.931 -1.5334,-4.9893 -1.0072,-1.0772 -2.4278,-2.0222 -4.2694,-2.8348 -1.8491,-0.8032 -4.0289,-1.7104 -6.5544,-2.7215 -3.593,-1.5119 -6.6372,-3.0994 -9.1402,-4.7625 -2.488,-1.6631 -4.3521,-3.7041 -5.5923,-6.1232 -1.2252,-2.4379 -1.8341,-5.5562 -1.8341,-9.336 0,-4.5073 0.8419,-8.3721 2.5256,-11.6038 1.6837,-3.2506 4.0364,-5.7453 7.0656,-7.484 3.0217,-1.7575 6.5093,-2.6458 10.4631,-2.6458 3.7056,0 7.1332,0.7938 10.2826,2.3813 3.142,1.5686 5.9231,4.0065 8.3284,7.3327 l -4.6001,9.714 c -2.2099,-2.7687 -4.51,-4.8192 -6.9153,-6.161 -2.3903,-1.3607 -4.9459,-2.0411 -7.6669,-2.0411 -1.5033,0 -2.9916,0.2551 -4.4498,0.7559 -1.4432,0.482 -2.6609,1.3797 -3.638,2.6837 -0.9847,1.2851 -1.4733,3.0994 -1.4733,5.4428 0,1.9939 0.3984,3.553 1.2027,4.6869 0.8193,1.1151 2.0144,2.0694 3.5779,2.8726 1.5634,0.8127 3.4726,1.7009 5.7426,2.6837 3.9688,1.5402 7.3437,3.1183 10.1324,4.7247 2.7811,1.6158 4.9384,3.6663 6.4642,6.161 1.5184,2.4757 2.2851,5.8586 2.2851,10.1675 0,6.7564 -1.8341,12.0764 -5.5022,15.9506 -3.6681,3.8554 -8.5538,5.7831 -14.6422,5.7831 z m 57.9151,-4.9893 c -0.8419,0.5291 -1.9844,1.1906 -3.4275,1.9654 -1.4282,0.756 -2.9766,1.3986 -4.6603,1.9277 -1.6837,0.5481 -3.4426,0.8316 -5.2616,0.8316 -2.2099,0 -4.2544,-0.567 -6.1335,-1.7009 -1.8867,-1.1339 -3.3975,-2.8537 -4.54,-5.1783 -1.1275,-2.3434 -1.6837,-5.3672 -1.6837,-9.0714 v -44.2232 h -6.8251 v -11.4905 h 6.8251 v -23.1699 h 10.7035 v 23.1699 h 11.0945 v 11.4905 h -11.0945 v 39.3851 c 0.1352,2.419 0.7066,4.2239 1.7138,5.4051 0.9997,1.1622 2.255,1.7386 3.7583,1.7386 1.4808,0 2.9164,-0.3779 4.2995,-1.1339 1.3981,-0.7748 2.3602,-1.3418 2.8864,-1.7009 z m 6.9228,-26.5717 v -13.3804 h 28.9839 v 13.3804 z m 42.8144,30.2002 v -95.6279 h 11.0042 v 49.3637 l 32.4115,-49.5149 h 12.0866 l -27.1799,42.3711 28.7434,53.408 h -12.3874 l -23.3615,-43.8452 -10.3127,14.8545 v 28.9907 z m 59.005,-20.6374 c 0,-4.5074 0.9171,-8.4384 2.7661,-11.7929 1.8416,-3.3734 4.3972,-5.9815 7.6669,-7.8241 3.2848,-1.8615 7.0431,-2.797 11.2749,-2.797 2.2625,0 4.555,0.2551 6.8852,0.7559 2.3451,0.5103 4.4573,1.2001 6.3439,2.0789 v -4.4223 c 0,-4.961 -1.0748,-8.8258 -3.217,-11.6039 -2.1498,-2.797 -5.2241,-4.1955 -9.2304,-4.1955 -2.8713,0 -5.5623,0.6803 -8.0878,2.0411 -2.5256,1.3418 -5.224,3.3545 -8.0879,6.0476 l -3.4876,-10.092 c 3.2246,-3.071 6.5619,-5.3861 10.012,-6.9547 3.4426,-1.5875 7.0431,-2.3813 10.7938,-2.3813 6.81,0 12.1618,2.4947 16.0554,7.4839 3.9086,4.9893 5.8629,12.0764 5.8629,21.2423 v 26.3071 c 0,1.7198 0.2181,2.9388 0.6615,3.6664 0.4585,0.7087 1.2102,1.115 2.255,1.2095 v 11.8684 c -0.9622,0.2741 -1.8266,0.4536 -2.5857,0.5292 -0.7442,0.094 -1.3756,0.189 -1.8942,0.2646 -2.3301,-0.076 -4.0815,-0.8788 -5.2616,-2.4191 -1.1651,-1.5308 -1.8491,-3.3356 -2.0445,-5.405 l -0.2706,-4.0444 c -2.1498,3.9593 -4.9609,7.0209 -8.4486,9.1849 -3.4727,2.1639 -6.9454,3.2505 -10.433,3.2505 -3.39,0 -6.4192,-0.9732 -9.08,-2.9104 -2.6459,-1.9371 -4.7205,-4.5735 -6.2238,-7.8997 -1.4882,-3.3262 -2.2249,-7.0492 -2.2249,-11.188 z m 32.4115,4.4601 c 0.7216,-1.2568 1.3229,-2.4663 1.8039,-3.6286 0.4811,-1.1812 0.7216,-2.2679 0.7216,-3.2506 v -7.9753 c -1.8265,-0.9827 -3.7432,-1.7103 -5.7426,-2.1922 -2.0069,-0.5009 -3.9537,-0.756 -5.8329,-0.756 -3.9687,0 -7.1783,1.0867 -9.6212,3.2506 -2.4278,2.145 -3.638,5.1027 -3.638,8.8824 0,2.0695 0.3984,4.0255 1.2027,5.8587 0.8192,1.8426 1.9918,3.3828 3.5177,4.6113 1.5409,1.2095 3.4125,1.8142 5.6224,1.8142 2.3828,0 4.6452,-0.652 6.795,-1.9654 2.1422,-1.304 3.8635,-2.8537 5.1714,-4.6491 z m 71.8283,16.1773 h -10.6134 v -39.5362 c 0,-6.6524 -0.7817,-11.4716 -2.3452,-14.4765 -1.5484,-3.0238 -3.8109,-4.5357 -6.7949,-4.5357 -2.0896,0 -4.1492,0.7465 -6.1937,2.23 -2.0445,1.493 -3.8635,3.4585 -5.442,5.8965 -1.586,2.419 -2.7661,5.2444 -3.5478,8.4666 v 41.9553 h -10.7036 v -70.5681 h 9.7415 v 14.0607 c 1.2778,-3.1466 2.9615,-5.8397 5.0511,-8.0886 2.0821,-2.2679 4.4498,-4.0255 7.0957,-5.2917 2.6608,-1.2568 5.487,-1.8899 8.4787,-1.8899 3.0442,0 5.5697,0.7749 7.5766,2.3057 2.022,1.5402 3.5854,3.6285 4.6904,6.2744 1.0974,2.6458 1.8716,5.7074 2.3151,9.1848 0.4585,3.4585 0.6915,7.1059 0.6915,10.9613 z m 8.7719,-20.6374 c 0,-4.5074 0.917,-8.4384 2.766,-11.7929 1.8416,-3.3734 4.3972,-5.9815 7.6669,-7.8241 3.2848,-1.8615 7.0431,-2.797 11.2749,-2.797 2.2625,0 4.5551,0.2551 6.8852,0.7559 2.3451,0.5103 4.4573,1.2001 6.344,2.0789 v -4.4223 c 0,-4.961 -1.0749,-8.8258 -3.2171,-11.6039 -2.1498,-2.797 -5.224,-4.1955 -9.2304,-4.1955 -2.8713,0 -5.5622,0.6803 -8.0878,2.0411 -2.5256,1.3418 -5.224,3.3545 -8.0878,6.0476 l -3.4877,-10.092 c 3.2246,-3.071 6.562,-5.3861 10.012,-6.9547 3.4426,-1.5875 7.0431,-2.3813 10.7939,-2.3813 6.81,0 12.1618,2.4947 16.0553,7.4839 3.9087,4.9893 5.863,12.0764 5.863,21.2423 v 26.3071 c 0,1.7198 0.218,2.9388 0.6614,3.6664 0.4585,0.7087 1.2102,1.115 2.255,1.2095 v 11.8684 c -0.9621,0.2741 -1.8265,0.4536 -2.5857,0.5292 -0.7441,0.094 -1.3755,0.189 -1.8942,0.2646 -2.3301,-0.076 -4.0815,-0.8788 -5.2616,-2.4191 -1.165,-1.5308 -1.849,-3.3356 -2.0445,-5.405 l -0.2706,-4.0444 c -2.1497,3.9593 -4.9609,7.0209 -8.4486,9.1849 -3.4727,2.1639 -6.9453,3.2505 -10.433,3.2505 -3.39,0 -6.4191,-0.9732 -9.08,-2.9104 -2.6458,-1.9371 -4.7204,-4.5735 -6.2237,-7.8997 -1.4883,-3.3262 -2.2249,-7.0492 -2.2249,-11.188 z m 32.4114,4.4601 c 0.7216,-1.2568 1.3229,-2.4663 1.804,-3.6286 0.4811,-1.1812 0.7216,-2.2679 0.7216,-3.2506 v -7.9753 c -1.8266,-0.9827 -3.7433,-1.7103 -5.7427,-2.1922 -2.0069,-0.5009 -3.9537,-0.756 -5.8328,-0.756 -3.9688,0 -7.1784,1.0867 -9.6212,3.2506 -2.4279,2.145 -3.6381,5.1027 -3.6381,8.8824 0,2.0695 0.3984,4.0255 1.2027,5.8587 0.8193,1.8426 1.9919,3.3828 3.5177,4.6113 1.5409,1.2095 3.4126,1.8142 5.6224,1.8142 2.3828,0 4.6453,-0.652 6.795,-1.9654 2.1422,-1.304 3.8635,-2.8537 5.1714,-4.6491 z m 26.2779,-82.2854 h 10.7036 v 78.241 c 0,3.5058 0.3909,5.7736 1.1726,6.8036 0.7817,1.0394 1.7514,1.5497 2.9164,1.5497 1.2403,0 2.4504,-0.2268 3.6381,-0.6804 1.2026,-0.4535 2.1948,-0.8504 2.9765,-1.2095 l 1.5635,11.6039 c -1.5635,0.9071 -3.4201,1.682 -5.5623,2.3056 -2.1272,0.6237 -4.0289,0.945 -5.7126,0.945 -3.7132,0 -6.5845,-1.408 -8.629,-4.2334 -2.0445,-2.8442 -3.0668,-6.7846 -3.0668,-11.8306 z m 0,0"
       style="fill:#ffffff;fill-opacity:1;fill-rule:nonzero;stroke:none;stroke-width:3.02019"
       aria-label="Poste deine Projekte&#10;im Mattermost-Kanal" />
    <path
       id="path21"
       d="m 634.73779,2619.9284 c 0,-1.2851 0.3157,-3.26 0.96212,-5.9342 0.63891,-2.6931 1.7213,-5.5373 3.24716,-8.5422 1.51835,-3.0238 3.48769,-5.613 5.89299,-7.7863 2.40531,-2.1923 5.44952,-3.2884 9.14015,-3.2884 3.32233,0 6.29889,0.8693 8.92969,2.608 2.64583,1.7198 5.18643,3.4396 7.63683,5.1783 2.44289,1.7198 5.05114,2.5702 7.81724,2.5702 2.48046,0 4.43477,-0.7559 5.86292,-2.2678 1.44318,-1.5308 2.41282,-3.0994 2.91643,-4.6869 0.51864,-1.6064 0.78172,-2.5419 0.78172,-2.7971 l 10.10227,-0.2268 c 0,0.7843 -0.30066,2.4852 -0.90199,5.1027 -0.60132,2.6269 -1.66868,5.4712 -3.18702,8.5423 -1.52586,3.0805 -3.56286,5.7736 -6.10346,8.0887 -2.52556,2.2962 -5.73514,3.4395 -9.62121,3.4395 -3.32984,0 -6.33647,-0.8693 -9.01988,-2.608 -2.66838,-1.7387 -5.22402,-3.4396 -7.6669,-5.1027 -2.4504,-1.6631 -5.00604,-2.4946 -7.6669,-2.4946 -2.51054,0 -4.41223,0.8126 -5.7126,2.419 -1.28533,1.5875 -2.1347,3.2506 -2.55563,4.9893 -0.40589,1.7198 -0.60133,2.6458 -0.60133,2.797 z m 191.9281,43.5429 h -18.5509 v -56.4318 c 0,-8.032 -0.99218,-13.9096 -2.97656,-17.6137 -1.98437,-3.7231 -4.73544,-5.5941 -8.23816,-5.5941 -3.69063,0 -7.15577,1.9561 -10.40293,5.8587 -3.23213,3.912 -5.5322,8.9202 -6.91524,15.0434 v 58.7375 h -18.70123 v -56.4318 c 0,-8.032 -0.97715,-13.9096 -2.91643,-17.6137 -1.92424,-3.7231 -4.64524,-5.5941 -8.14796,-5.5941 -3.60796,0 -7.08061,1.9277 -10.40293,5.7831 -3.3073,3.8364 -5.65246,8.873 -7.03551,15.119 v 58.7375 h -18.43063 v -100.5416 h 16.74691 v 18.5964 c 2.7661,-6.5201 6.47929,-11.5377 11.15459,-15.0435 4.66779,-3.5246 9.95194,-5.2916 15.84493,-5.2916 6.01326,0 10.7036,2.06 14.07102,6.161 3.36743,4.0821 5.50965,9.1376 6.43419,15.1568 2.96152,-6.9264 6.73484,-12.2086 11.30492,-15.8372 4.57007,-3.6474 9.7565,-5.4806 15.57433,-5.4806 4.42726,0 8.04273,1.1245 10.85393,3.364 2.82623,2.2489 5.02107,5.2538 6.58451,9.0336 1.56345,3.7609 2.64584,8.0036 3.24716,12.7378 0.60133,4.7436 0.90199,9.4777 0.90199,14.2119 z m 11.2072,-29.7467 c 0,-6.5201 1.30789,-12.2181 3.93869,-17.0845 2.64583,-4.857 6.29137,-8.6651 10.94412,-11.4149 4.66779,-2.7403 10.10227,-4.12 16.29593,-4.12 3.02166,0 6.11097,0.3308 9.26041,0.9828 3.14193,0.6331 5.87043,1.6536 8.17803,3.0616 v -5.5941 c 0,-6.246 -1.34548,-11.0936 -4.02888,-14.552 -2.66839,-3.4774 -6.67472,-5.2161 -12.02652,-5.2161 -4.07398,0 -7.90743,0.9733 -11.51538,2.9104 -3.59292,1.9182 -7.36624,4.668 -11.33499,8.2399 l -5.83286,-16.7065 c 4.70538,-4.4602 9.57611,-7.7486 14.61221,-9.8652 5.02859,-2.1167 10.31274,-3.175 15.84494,-3.175 10.3428,0 18.40057,3.553 24.17329,10.6589 5.77273,7.106 8.65909,17.3774 8.65909,30.805 v 32.0146 c 0,2.7025 0.33823,4.6302 1.02223,5.783 0.69907,1.134 1.83406,1.8427 3.3975,2.1167 v 20.9021 c -1.64613,0.3779 -3.14193,0.6898 -4.47987,0.9449 -1.34545,0.274 -2.48047,0.3402 -3.39749,0.189 -3.69065,0 -6.4868,-1.115 -8.38849,-3.3262 -1.88666,-2.2395 -3.02168,-5.0271 -3.39749,-8.3533 l -0.39085,-5.1782 c -3.24718,5.6224 -7.23095,9.9691 -11.93633,13.0401 -4.69034,3.0711 -9.49342,4.6113 -14.40174,4.6113 -4.79558,0 -9.10257,-1.4174 -12.9285,-4.2333 -3.83346,-2.8159 -6.84008,-6.624 -9.01989,-11.4149 -2.16477,-4.7814 -3.24716,-10.1297 -3.24716,-16.0261 z m 45.15956,4.9892 c 0.9997,-1.2851 1.81902,-2.7592 2.46543,-4.4223 0.66145,-1.6631 0.99219,-3.0616 0.99219,-4.1955 v -10.1676 c -2.22491,-1.2851 -4.63021,-2.2773 -7.21591,-2.986 -2.5857,-0.6992 -5.0361,-1.0583 -7.33617,-1.0583 -4.79557,0 -8.74177,1.4363 -11.84612,4.3089 -3.08931,2.8726 -4.6302,6.6807 -4.6302,11.4149 0,2.5702 0.49609,5.046 1.50331,7.4083 1.02225,2.3718 2.47295,4.2617 4.35961,5.6697 1.90169,1.389 4.23935,2.0788 7.00545,2.0788 2.78112,0 5.50964,-0.7654 8.17802,-2.3056 2.68342,-1.5308 4.85571,-3.449 6.52439,-5.7453 z m 34.89943,-25.5133 c 0,-9.6006 1.38304,-18.3508 4.14915,-26.2694 2.76609,-7.9375 6.59202,-14.2119 11.48531,-18.8232 4.88578,-4.6113 10.4706,-6.9169 16.74691,-6.9169 5.26914,0 10.07223,1.8332 14.40177,5.4806 4.34458,3.6286 7.67442,8.2683 9.98199,13.9095 v -57.1877 h 18.70122 v 111.2761 c 0,2.7025 0.31571,4.6302 0.96212,5.783 0.63893,1.134 1.75137,1.8427 3.33736,2.1167 v 20.9021 c -3.32984,0.9071 -5.96815,1.2851 -7.90743,1.1339 -3.32984,0.1512 -6.07337,-0.926 -8.23814,-3.2128 -2.16477,-2.3151 -3.38998,-5.3295 -3.6681,-9.0336 l -0.2706,-6.35 c -2.69093,6.2744 -6.31392,11.0747 -10.88399,14.4009 -4.57008,3.3262 -9.35061,4.9892 -14.34161,4.9892 -4.97596,0 -9.56107,-1.3134 -13.77036,-3.9309 -4.19423,-2.6175 -7.83977,-6.3216 -10.94412,-11.1125 -3.08933,-4.8097 -5.48711,-10.3754 -7.18586,-16.7065 -1.70624,-6.35 -2.55562,-13.163 -2.55562,-20.4485 z m 56.91545,13.2291 v -23.7747 c -0.92453,-3.723 -2.4053,-7.0492 -4.44979,-9.9785 -2.02949,-2.9482 -4.29196,-5.2728 -6.79499,-6.9926 -2.48797,-1.7387 -4.97596,-2.608 -7.45643,-2.608 -2.87133,0 -5.45703,0.8315 -7.75711,2.4946 -2.30758,1.6631 -4.32203,3.9121 -6.0433,6.728 -1.70626,2.797 -2.99912,6.0287 -3.87855,9.6762 -0.86443,3.6569 -1.29286,7.5217 -1.29286,11.6038 0,4.2334 0.49609,8.1832 1.50332,11.8307 1.02226,3.6286 2.4053,6.8225 4.14915,9.5628 1.75886,2.7498 3.88604,4.8664 6.37404,6.35 2.50303,1.4646 5.18645,2.1922 8.05777,2.1922 1.84155,0 3.638,-0.4157 5.38185,-1.2473 1.75889,-0.8315 3.4426,-2.0127 5.05114,-3.553 1.62357,-1.5308 3.07427,-3.3261 4.35961,-5.3672 1.30038,-2.0411 2.23243,-4.3467 2.79615,-6.917 z m 70.46037,38.9693 c -5.8178,0 -11.0794,-1.3796 -15.7848,-4.1199 -4.7129,-2.7687 -8.7343,-6.5484 -12.0566,-11.3393 -3.3073,-4.7814 -5.8479,-10.2526 -7.6068,-16.4041 -1.7438,-6.1421 -2.6157,-12.7378 -2.6157,-19.7682 0,-9.4683 1.5408,-18.1995 4.6302,-26.1937 3.0818,-7.9847 7.4639,-14.3725 13.1389,-19.1634 5.6901,-4.8097 12.5076,-7.2193 20.4451,-7.2193 7.8323,0 14.5671,2.4096 20.2045,7.2193 5.6299,4.7909 9.967,11.0936 13.0187,18.8988 3.0442,7.7863 4.5701,16.2908 4.5701,25.5134 0,1.6631 -0.053,3.2317 -0.1503,4.6869 -0.083,1.4647 -0.173,2.712 -0.2706,3.742 h -55.9233 c 0.2555,5.3672 1.2929,9.9407 3.0968,13.7205 1.804,3.7797 4.1041,6.6902 6.9153,8.7312 2.8262,2.0411 5.8103,3.0616 8.9597,3.0616 3.7658,0 7.2911,-1.2473 10.5834,-3.7419 3.2847,-2.4947 5.5171,-5.8398 6.7047,-10.0542 l 15.7848,6.1232 c -1.6461,5.1216 -4.089,9.6668 -7.3361,13.645 -3.2321,3.9593 -7.0581,7.0587 -11.4853,9.2982 -4.4348,2.2395 -9.3732,3.3639 -14.8227,3.3639 z m -18.9719,-60.2493 h 37.9437 c -0.3608,-5.1121 -1.4056,-9.5628 -3.1269,-13.3426 -1.7063,-3.7797 -3.9387,-6.7279 -6.7048,-8.8446 -2.7661,-2.1167 -5.8554,-3.175 -9.2604,-3.175 -3.3298,0 -6.359,1.0583 -9.08,3.175 -2.7285,2.1167 -4.9459,5.0649 -6.6447,8.8446 -1.7062,3.7798 -2.751,8.2305 -3.1269,13.3426 z m 67.7319,17.2735 v -23.2455 h 42.0928 v 23.2455 z m 53.4353,11.3015 c 0,-6.5201 1.3078,-12.2181 3.9386,-17.0845 2.6459,-4.857 6.2914,-8.6651 10.9442,-11.4149 4.6677,-2.7403 10.1022,-4.12 16.2959,-4.12 3.0216,0 6.111,0.3308 9.2604,0.9828 3.1419,0.6331 5.8704,1.6536 8.178,3.0616 v -5.5941 c 0,-6.246 -1.3454,-11.0936 -4.0289,-14.552 -2.6683,-3.4774 -6.6747,-5.2161 -12.0265,-5.2161 -4.074,0 -7.9074,0.9733 -11.5154,2.9104 -3.5929,1.9182 -7.3662,4.668 -11.3349,8.2399 l -5.8329,-16.7065 c 4.7054,-4.4602 9.5761,-7.7486 14.6122,-9.8652 5.0286,-2.1167 10.3128,-3.175 15.8449,-3.175 10.3428,0 18.4006,3.553 24.1733,10.6589 5.7728,7.106 8.6591,17.3774 8.6591,30.805 v 32.0146 c 0,2.7025 0.3383,4.6302 1.0223,5.783 0.699,1.134 1.834,1.8427 3.3975,2.1167 v 20.9021 c -1.6462,0.3779 -3.142,0.6898 -4.4799,0.9449 -1.3455,0.274 -2.4805,0.3402 -3.3975,0.189 -3.6906,0 -6.4868,-1.115 -8.3885,-3.3262 -1.8867,-2.2395 -3.0217,-5.0271 -3.3975,-8.3533 l -0.3909,-5.1782 c -3.2471,5.6224 -7.2309,9.9691 -11.9363,13.0401 -4.6903,3.0711 -9.4934,4.6113 -14.4017,4.6113 -4.7956,0 -9.1026,-1.4174 -12.9285,-4.2333 -3.8334,-2.8159 -6.8401,-6.624 -9.0199,-11.4149 -2.1648,-4.7814 -3.2471,-10.1297 -3.2471,-16.0261 z m 45.1595,4.9892 c 0.9997,-1.2851 1.819,-2.7592 2.4655,-4.4223 0.6614,-1.6631 0.9921,-3.0616 0.9921,-4.1955 v -10.1676 c -2.2249,-1.2851 -4.6302,-2.2773 -7.2159,-2.986 -2.5857,-0.6992 -5.0361,-1.0583 -7.3362,-1.0583 -4.7955,0 -8.7417,1.4363 -11.8461,4.3089 -3.0893,2.8726 -4.6302,6.6807 -4.6302,11.4149 0,2.5702 0.4961,5.046 1.5033,7.4083 1.0223,2.3718 2.473,4.2617 4.3596,5.6697 1.9017,1.389 4.2394,2.0788 7.0055,2.0788 2.7811,0 5.5096,-0.7654 8.178,-2.3056 2.6834,-1.5308 4.8557,-3.449 6.5244,-5.7453 z m 82.096,19.5792 c -1.6687,1.0394 -3.5779,2.0978 -5.7427,3.175 -2.1648,1.0867 -4.525,1.9844 -7.0655,2.6836 -2.5256,0.6993 -5.0813,1.0584 -7.6669,1.0584 -3.5103,0 -6.6973,-0.8316 -9.5611,-2.4947 -2.8714,-1.6631 -5.1564,-4.3184 -6.8551,-7.9753 -1.7063,-3.6474 -2.5557,-8.4099 -2.5557,-14.2875 v -57.9437 h -9.4408 v -19.5791 h 9.4408 v -32.6194 h 18.6712 v 32.6194 h 15.2436 v 19.5791 h -15.2436 v 49.2881 c 0.098,3.4585 0.7892,5.9909 2.0745,7.5973 1.3004,1.5875 2.9616,2.3813 4.9911,2.3813 1.8415,0 3.6831,-0.4725 5.5322,-1.4364 1.8641,-0.9543 3.3824,-1.8142 4.57,-2.5702 z m 9.1552,-35.8699 v -23.2455 h 42.0928 v 23.2455 z m 52.3378,25.5134 40.1385,-66.9774 h -38.3345 v -18.0294 h 58.1482 v 15.7238 l -39.7476,66.7883 h 40.4391 v 18.0295 h -60.6437 z m 68.1152,-14.2119 c 0,-6.5201 1.3079,-12.2181 3.9387,-17.0845 2.6458,-4.857 6.2913,-8.6651 10.9441,-11.4149 4.6678,-2.7403 10.1023,-4.12 16.2959,-4.12 3.0217,0 6.111,0.3308 9.2605,0.9828 3.1419,0.6331 5.8704,1.6536 8.178,3.0616 v -5.5941 c 0,-6.246 -1.3455,-11.0936 -4.0289,-14.552 -2.6684,-3.4774 -6.6747,-5.2161 -12.0265,-5.2161 -4.074,0 -7.9075,0.9733 -11.5154,2.9104 -3.5929,1.9182 -7.3662,4.668 -11.335,8.2399 l -5.8328,-16.7065 c 4.7053,-4.4602 9.5761,-7.7486 14.6122,-9.8652 5.0285,-2.1167 10.3127,-3.175 15.8449,-3.175 10.3428,0 18.4005,3.553 24.1733,10.6589 5.7727,7.106 8.6591,17.3774 8.6591,30.805 v 32.0146 c 0,2.7025 0.3382,4.6302 1.0222,5.783 0.6991,1.134 1.8341,1.8427 3.3975,2.1167 v 20.9021 c -1.6461,0.3779 -3.1419,0.6898 -4.4799,0.9449 -1.3454,0.274 -2.4804,0.3402 -3.3975,0.189 -3.6906,0 -6.4868,-1.115 -8.3884,-3.3262 -1.8867,-2.2395 -3.0217,-5.0271 -3.3975,-8.3533 l -0.3909,-5.1782 c -3.2472,5.6224 -7.2309,9.9691 -11.9363,13.0401 -4.6903,3.0711 -9.4934,4.6113 -14.4018,4.6113 -4.7955,0 -9.1025,-1.4174 -12.9285,-4.2333 -3.8334,-2.8159 -6.84,-6.624 -9.0199,-11.4149 -2.1647,-4.7814 -3.2471,-10.1297 -3.2471,-16.0261 z m 45.1595,4.9892 c 0.9998,-1.2851 1.819,-2.7592 2.4655,-4.4223 0.6614,-1.6631 0.9922,-3.0616 0.9922,-4.1955 v -10.1676 c -2.2249,-1.2851 -4.6302,-2.2773 -7.2159,-2.986 -2.5857,-0.6992 -5.0361,-1.0583 -7.3362,-1.0583 -4.7956,0 -8.7418,1.4363 -11.8461,4.3089 -3.0893,2.8726 -4.6302,6.6807 -4.6302,11.4149 0,2.5702 0.4961,5.046 1.5033,7.4083 1.0222,2.3718 2.4729,4.2617 4.3596,5.6697 1.9017,1.389 4.2393,2.0788 7.0054,2.0788 2.7812,0 5.5097,-0.7654 8.1781,-2.3056 2.6834,-1.5308 4.8557,-3.449 6.5243,-5.7453 z m 152.0377,24.7575 h -18.5509 v -56.4318 c 0,-8.032 -0.9922,-13.9096 -2.9766,-17.6137 -1.9843,-3.7231 -4.7354,-5.5941 -8.2381,-5.5941 -3.6906,0 -7.1558,1.9561 -10.4029,5.8587 -3.2322,3.912 -5.5322,8.9202 -6.9153,15.0434 v 58.7375 h -18.7012 v -56.4318 c 0,-8.032 -0.9772,-13.9096 -2.9164,-17.6137 -1.9243,-3.7231 -4.6453,-5.5941 -8.148,-5.5941 -3.608,0 -7.0806,1.9277 -10.4029,5.7831 -3.3073,3.8364 -5.6525,8.873 -7.0355,15.119 v 58.7375 h -18.4307 v -100.5416 h 16.7469 v 18.5964 c 2.7661,-6.5201 6.4793,-11.5377 11.1546,-15.0435 4.6678,-3.5246 9.952,-5.2916 15.845,-5.2916 6.0132,0 10.7036,2.06 14.071,6.161 3.3674,4.0821 5.5096,9.1376 6.4342,15.1568 2.9615,-6.9264 6.7348,-12.2086 11.3049,-15.8372 4.57,-3.6474 9.7565,-5.4806 15.5743,-5.4806 4.4273,0 8.0427,1.1245 10.854,3.364 2.8262,2.2489 5.021,5.2538 6.5845,9.0336 1.5634,3.7609 2.6458,8.0036 3.2471,12.7378 0.6013,4.7436 0.902,9.4777 0.902,14.2119 z m 0,0"
       style="fill:#ffffff;fill-opacity:1;fill-rule:nonzero;stroke:none;stroke-width:3.02019"
       aria-label="~made-at-zam" />
    <path
       id="path22"
       d="M 0,0 83.258,-83.258 0,-166.517 -83.258,-83.258 Z"
       style="fill:#ffffff;fill-opacity:1;fill-rule:nonzero;stroke:none"
       transform="matrix(2.5656558,0,0,-3.2253946,269.5216,2191.4158)"
       clip-path="url(#clipPath23)" />
    <path
       id="path24"
       d="M 0,0 2.485,-2.485 0,-4.969 -2.485,-2.485 Z M -4.969,4.969 -2.485,2.485 -4.969,0 -7.454,2.485 Z m -17.392,17.392 2.485,-2.485 -2.485,-2.484 -2.485,2.484 z m -7.454,7.454 2.485,-2.485 -2.485,-2.484 -2.484,2.484 z m -2.484,2.484 2.484,-2.484 -2.484,-2.485 -2.485,2.485 z m -4.969,4.969 2.484,-2.484 -2.484,-2.485 -2.485,2.485 z m -2.485,2.485 2.485,-2.485 -2.485,-2.484 -2.484,2.484 z m -2.484,2.484 2.484,-2.484 -2.484,-2.485 -2.485,2.485 z m -2.485,2.485 2.485,-2.485 -2.485,-2.484 -2.484,2.484 z m -4.969,4.969 2.485,-2.485 -2.485,-2.484 -2.485,2.484 z m -2.485,2.485 2.485,-2.485 -2.485,-2.485 -2.484,2.485 z m -2.484,2.484 2.484,-2.484 -2.484,-2.485 -2.485,2.485 z m -2.485,2.485 2.485,-2.485 -2.485,-2.484 -2.484,2.484 z m -2.484,2.484 2.484,-2.484 -2.484,-2.485 -2.485,2.485 z m -2.485,2.485 2.485,-2.485 -2.485,-2.484 -2.484,2.484 z m -2.484,2.484 2.484,-2.484 -2.484,-2.485 -2.485,2.485 z M 4.969,0 7.454,-2.485 4.969,-4.969 2.485,-2.485 Z M 0,4.969 2.485,2.485 0,0 -2.485,2.485 Z M -4.969,9.938 -2.485,7.454 -4.969,4.969 -7.454,7.454 Z m -2.485,2.485 2.485,-2.485 -2.485,-2.484 -2.484,2.484 z m -4.969,4.969 2.485,-2.485 -2.485,-2.484 -2.484,2.484 z m -9.938,9.938 2.485,-2.484 -2.485,-2.485 -2.485,2.485 z m -4.969,4.969 2.484,-2.484 -2.484,-2.485 -2.485,2.485 z m -4.969,4.969 2.484,-2.484 -2.484,-2.485 -2.485,2.485 z m -2.485,2.485 2.485,-2.485 -2.485,-2.484 -2.484,2.484 z m -2.484,2.484 2.484,-2.484 -2.484,-2.485 -2.485,2.485 z m -4.969,4.969 2.484,-2.484 -2.484,-2.485 -2.485,2.485 z m -4.969,4.97 2.484,-2.485 -2.484,-2.485 -2.485,2.485 z m -14.908,14.907 2.485,-2.485 -2.485,-2.484 -2.484,2.484 z M 7.454,2.485 9.938,0 7.454,-2.485 4.969,0 Z M 4.969,4.969 7.454,2.485 4.969,0 2.485,2.485 Z M 2.485,7.454 4.969,4.969 2.485,2.485 0,4.969 Z M 0,9.938 2.485,7.454 0,4.969 -2.485,7.454 Z M -2.485,12.423 0,9.938 -2.485,7.454 -4.969,9.938 Z m -2.484,2.484 2.484,-2.484 -2.484,-2.485 -2.485,2.485 z m -2.485,2.485 2.485,-2.485 -2.485,-2.484 -2.484,2.484 z m -2.484,2.484 2.484,-2.484 -2.484,-2.485 -2.485,2.485 z m -2.485,2.485 2.485,-2.485 -2.485,-2.484 -2.484,2.484 z m -2.484,2.485 2.484,-2.485 -2.484,-2.485 -2.485,2.485 z m -7.454,7.453 2.485,-2.484 -2.485,-2.485 -2.485,2.485 z m -2.485,2.485 2.485,-2.485 -2.485,-2.484 -2.484,2.484 z m -4.969,4.969 2.485,-2.485 -2.485,-2.484 -2.484,2.484 z m -7.453,7.453 2.484,-2.484 -2.484,-2.485 -2.485,2.485 z m -2.485,2.485 2.485,-2.485 -2.485,-2.484 -2.484,2.484 z m -4.969,4.969 2.485,-2.484 -2.485,-2.485 -2.484,2.485 z m -4.969,4.969 2.485,-2.484 -2.485,-2.485 -2.485,2.485 z m -2.485,2.485 2.485,-2.485 -2.485,-2.484 -2.484,2.484 z m -2.484,2.484 2.484,-2.484 -2.484,-2.485 -2.485,2.485 z m -4.969,4.969 2.484,-2.484 -2.484,-2.485 -2.485,2.485 z M 12.423,2.485 14.907,0 12.423,-2.485 9.938,0 Z M 9.938,4.969 12.423,2.485 9.938,0 7.454,2.485 Z M 7.454,7.454 9.938,4.969 7.454,2.485 4.969,4.969 Z M 4.969,9.938 7.454,7.454 4.969,4.969 2.485,7.454 Z m -12.423,12.423 2.485,-2.485 -2.485,-2.484 -2.484,2.484 z m -4.969,4.969 2.485,-2.484 -2.485,-2.485 -2.484,2.485 z m -4.969,4.969 2.485,-2.484 -2.485,-2.485 -2.484,2.485 z m -7.454,7.454 2.485,-2.485 -2.485,-2.484 -2.484,2.484 z m -4.969,4.969 2.485,-2.485 -2.485,-2.484 -2.484,2.484 z m -7.453,7.454 2.484,-2.485 -2.484,-2.485 -2.485,2.485 z m -4.969,4.969 2.484,-2.485 -2.484,-2.484 -2.485,2.484 z m -4.969,4.969 2.484,-2.485 -2.484,-2.484 -2.485,2.484 z m -2.485,2.484 2.485,-2.484 -2.485,-2.485 -2.485,2.485 z m -2.485,2.485 2.485,-2.485 -2.485,-2.484 -2.484,2.484 z m -4.969,4.969 2.485,-2.485 -2.485,-2.484 -2.484,2.484 z M 14.907,4.969 17.392,2.485 14.907,0 12.423,2.485 Z M 9.938,9.938 12.423,7.454 9.938,4.969 7.454,7.454 Z M 4.969,14.907 7.454,12.423 4.969,9.938 2.485,12.423 Z M 2.485,17.392 4.969,14.907 2.485,12.423 0,14.907 Z M 0,19.876 2.485,17.392 0,14.907 -2.485,17.392 Z M -2.485,22.361 0,19.876 -2.485,17.392 -4.969,19.876 Z m -2.484,2.485 2.484,-2.485 -2.484,-2.485 -2.485,2.485 z m -7.454,7.453 2.485,-2.484 -2.485,-2.485 -2.484,2.485 z m -9.938,9.938 2.485,-2.484 -2.485,-2.485 -2.485,2.485 z m -2.485,2.485 2.485,-2.485 -2.485,-2.484 -2.484,2.484 z m -4.969,4.969 2.485,-2.485 -2.485,-2.484 -2.484,2.484 z m -2.484,2.485 2.484,-2.485 -2.484,-2.485 -2.485,2.485 z m -2.485,2.484 2.485,-2.484 -2.485,-2.485 -2.484,2.485 z m -4.969,4.969 2.485,-2.484 -2.485,-2.485 -2.484,2.485 z m -4.969,4.969 2.485,-2.484 -2.485,-2.485 -2.484,2.485 z m -2.484,2.485 2.484,-2.485 -2.484,-2.484 -2.485,2.484 z m -2.485,2.484 2.485,-2.484 -2.485,-2.485 -2.485,2.485 z m -4.969,4.97 2.484,-2.485 -2.484,-2.485 -2.485,2.485 z M 17.392,7.454 19.876,4.969 17.392,2.485 14.907,4.969 Z M 14.907,9.938 17.392,7.454 14.907,4.969 12.423,7.454 Z M 7.454,17.392 9.938,14.907 7.454,12.423 4.969,14.907 Z M -2.485,27.33 0,24.846 -2.485,22.361 -4.969,24.846 Z m -2.484,2.485 2.484,-2.485 -2.484,-2.484 -2.485,2.484 z m -2.485,2.484 2.485,-2.484 -2.485,-2.485 -2.484,2.485 z m -4.969,4.969 2.485,-2.484 -2.485,-2.485 -2.484,2.485 z m -9.938,9.938 2.485,-2.484 -2.485,-2.485 -2.485,2.485 z m -4.969,4.97 2.484,-2.485 -2.484,-2.485 -2.485,2.485 z m -2.485,2.484 2.485,-2.484 -2.485,-2.485 -2.484,2.485 z m -7.453,7.454 2.484,-2.485 -2.484,-2.484 -2.485,2.484 z m -14.908,14.907 2.485,-2.484 -2.485,-2.485 -2.484,2.485 z m 67.083,-62.114 2.485,-2.484 -2.485,-2.485 -2.484,2.485 z m -2.484,2.485 2.484,-2.485 -2.484,-2.484 -2.485,2.484 z M 9.938,19.876 12.423,17.392 9.938,14.907 7.454,17.392 Z M 4.969,24.846 7.454,22.361 4.969,19.876 2.485,22.361 Z M 0,29.815 2.485,27.33 0,24.846 -2.485,27.33 Z M -2.485,32.299 0,29.815 -2.485,27.33 -4.969,29.815 Z m -2.484,2.485 2.484,-2.485 -2.484,-2.484 -2.485,2.484 z m -7.454,7.453 2.485,-2.484 -2.485,-2.485 -2.484,2.485 z m -2.484,2.485 2.484,-2.485 -2.484,-2.484 -2.485,2.484 z m -9.939,9.938 2.485,-2.484 -2.485,-2.485 -2.484,2.485 z m -2.484,2.485 2.484,-2.485 -2.484,-2.484 -2.485,2.484 z m -2.485,2.484 2.485,-2.484 -2.485,-2.485 -2.484,2.485 z m -4.969,4.969 2.485,-2.484 -2.485,-2.485 -2.484,2.485 z m -2.484,2.485 2.484,-2.485 -2.484,-2.484 -2.485,2.484 z m -2.485,2.484 2.485,-2.484 -2.485,-2.485 -2.484,2.485 z m -2.484,2.485 2.484,-2.485 -2.484,-2.484 -2.485,2.484 z m -2.485,2.485 2.485,-2.485 -2.485,-2.485 -2.484,2.485 z m -2.484,2.484 2.484,-2.484 -2.484,-2.485 -2.485,2.485 z m -2.485,2.485 2.485,-2.485 -2.485,-2.484 -2.485,2.484 z M 22.361,12.423 24.846,9.938 22.361,7.454 19.876,9.938 Z m -2.485,2.484 2.485,-2.484 -2.485,-2.485 -2.484,2.485 z m -2.484,2.485 2.484,-2.485 -2.484,-2.484 -2.485,2.484 z m -2.485,2.484 2.485,-2.484 -2.485,-2.485 -2.484,2.485 z m -2.484,2.485 2.484,-2.485 -2.484,-2.484 -2.485,2.484 z M 2.485,32.299 4.969,29.815 2.485,27.33 0,29.815 Z M -2.485,37.268 0,34.784 -2.485,32.299 -4.969,34.784 Z m -2.484,2.485 2.484,-2.485 -2.484,-2.484 -2.485,2.484 z m -2.485,2.484 2.485,-2.484 -2.485,-2.485 -2.484,2.485 z m -4.969,4.969 2.485,-2.484 -2.485,-2.485 -2.484,2.485 z m -7.453,7.454 2.484,-2.484 -2.484,-2.485 -2.485,2.485 z m -2.485,2.485 2.485,-2.485 -2.485,-2.484 -2.485,2.484 z m -2.485,2.484 2.485,-2.484 -2.485,-2.485 -2.484,2.485 z m -2.484,2.485 2.484,-2.485 -2.484,-2.484 -2.485,2.484 z M 24.846,14.907 27.33,12.423 24.846,9.938 22.361,12.423 Z m -2.485,2.485 2.485,-2.485 -2.485,-2.484 -2.485,2.484 z m -2.485,2.484 2.485,-2.484 -2.485,-2.485 -2.484,2.485 z m -4.969,4.97 2.485,-2.485 -2.485,-2.485 -2.484,2.485 z m -2.484,2.484 2.484,-2.484 -2.484,-2.485 -2.485,2.485 z M 9.938,29.815 12.423,27.33 9.938,24.846 7.454,27.33 Z M 7.454,32.299 9.938,29.815 7.454,27.33 4.969,29.815 Z M 4.969,34.784 7.454,32.299 4.969,29.815 2.485,32.299 Z M 2.485,37.268 4.969,34.784 2.485,32.299 0,34.784 Z M -2.485,42.237 0,39.753 -2.485,37.268 -4.969,39.753 Z m -4.969,4.969 2.485,-2.484 -2.485,-2.485 -2.484,2.485 z m -2.484,2.485 2.484,-2.485 -2.484,-2.484 -2.485,2.484 z m -2.485,2.485 2.485,-2.485 -2.485,-2.485 -2.484,2.485 z m -2.484,2.484 2.484,-2.484 -2.484,-2.485 -2.485,2.485 z m -2.485,2.485 2.485,-2.485 -2.485,-2.484 -2.484,2.484 z m -2.484,2.484 2.484,-2.484 -2.484,-2.485 -2.485,2.485 z m -2.485,2.485 2.485,-2.485 -2.485,-2.484 -2.485,2.484 z m -2.485,2.484 2.485,-2.484 -2.485,-2.485 -2.484,2.485 z m -2.484,2.485 2.484,-2.485 -2.484,-2.484 -2.485,2.484 z m -2.485,2.484 2.485,-2.484 -2.485,-2.485 -2.484,2.485 z m -2.484,2.485 2.484,-2.485 -2.484,-2.484 -2.485,2.484 z m -4.969,4.969 2.484,-2.484 -2.484,-2.485 -2.485,2.485 z m -7.454,7.454 2.485,-2.485 -2.485,-2.484 -2.484,2.484 z M 24.846,19.876 27.33,17.392 24.846,14.907 22.361,17.392 Z M -2.485,47.206 0,44.722 -2.485,42.237 -4.969,44.722 Z m -2.484,2.485 2.484,-2.485 -2.484,-2.484 -2.485,2.484 z m -2.485,2.485 2.485,-2.485 -2.485,-2.485 -2.484,2.485 z m -14.907,14.907 2.485,-2.485 -2.485,-2.484 -2.485,2.484 z m -14.907,14.907 2.484,-2.484 -2.484,-2.485 -2.485,2.485 z m -4.969,4.969 2.484,-2.484 -2.484,-2.485 -2.485,2.485 z m 67.083,-62.113 2.484,-2.485 -2.484,-2.485 -2.485,2.485 z m -4.97,4.969 2.485,-2.485 -2.485,-2.484 -2.484,2.484 z m -7.453,7.453 2.484,-2.484 -2.484,-2.485 -2.485,2.485 z M 4.969,44.722 7.454,42.237 4.969,39.753 2.485,42.237 Z M 2.485,47.206 4.969,44.722 2.485,42.237 0,44.722 Z M 0,49.691 2.485,47.206 0,44.722 -2.485,47.206 Z M -2.485,52.176 0,49.691 -2.485,47.206 -4.969,49.691 Z m -14.907,14.907 2.485,-2.485 -2.485,-2.484 -2.484,2.484 z m -2.484,2.484 2.484,-2.484 -2.484,-2.485 -2.485,2.485 z m -2.485,2.485 2.485,-2.485 -2.485,-2.484 -2.485,2.484 z m -2.485,2.485 2.485,-2.485 -2.485,-2.485 -2.484,2.485 z m -2.484,2.484 2.484,-2.484 -2.484,-2.485 -2.485,2.485 z m -2.485,2.485 2.485,-2.485 -2.485,-2.484 -2.484,2.484 z m -4.969,4.969 2.485,-2.485 -2.485,-2.484 -2.484,2.484 z m -4.969,4.969 2.485,-2.485 -2.485,-2.484 -2.484,2.484 z m 72.052,-67.083 2.485,-2.485 -2.485,-2.484 -2.484,2.484 z m -4.969,4.969 2.485,-2.484 -2.485,-2.485 -2.484,2.485 z m -4.969,4.969 2.485,-2.484 -2.485,-2.485 -2.485,2.485 z m -2.485,2.485 2.485,-2.485 -2.485,-2.484 -2.484,2.484 z m -2.484,2.484 2.484,-2.484 -2.484,-2.485 -2.485,2.485 z m -2.485,2.485 2.485,-2.485 -2.485,-2.484 -2.484,2.484 z m -2.484,2.484 2.484,-2.484 -2.484,-2.485 -2.485,2.485 z M 9.938,44.722 12.423,42.237 9.938,39.753 7.454,42.237 Z M 7.454,47.206 9.938,44.722 7.454,42.237 4.969,44.722 Z M 2.485,52.176 4.969,49.691 2.485,47.206 0,49.691 Z m -9.939,9.938 2.485,-2.485 -2.485,-2.484 -2.484,2.484 z m -4.969,4.969 2.485,-2.485 -2.485,-2.484 -2.484,2.484 z m -2.484,2.484 2.484,-2.484 -2.484,-2.485 -2.485,2.485 z m -9.939,9.939 2.485,-2.485 -2.485,-2.484 -2.484,2.484 z m -2.484,2.484 2.484,-2.484 -2.484,-2.485 -2.485,2.485 z m -9.938,9.938 2.484,-2.484 -2.484,-2.485 -2.485,2.485 z M 29.815,29.815 32.299,27.33 29.815,24.846 27.33,27.33 Z M 27.33,32.299 29.815,29.815 27.33,27.33 24.846,29.815 Z M 7.454,52.176 9.938,49.691 7.454,47.206 4.969,49.691 Z M 0,59.629 2.485,57.145 0,54.66 -2.485,57.145 Z M -2.485,62.114 0,59.629 -2.485,57.145 -4.969,59.629 Z m -2.484,2.484 2.484,-2.484 -2.484,-2.485 -2.485,2.485 z m -2.485,2.485 2.485,-2.485 -2.485,-2.484 -2.484,2.484 z m -2.484,2.484 2.484,-2.484 -2.484,-2.485 -2.485,2.485 z m -2.485,2.485 2.485,-2.485 -2.485,-2.484 -2.484,2.484 z m -7.453,7.454 2.484,-2.485 -2.484,-2.484 -2.485,2.484 z m -9.939,9.938 2.485,-2.485 -2.485,-2.484 -2.484,2.484 z m -2.484,2.484 2.484,-2.484 -2.484,-2.485 -2.485,2.485 z M 34.784,29.815 37.268,27.33 34.784,24.846 32.299,27.33 Z m -7.454,7.453 2.485,-2.484 -2.485,-2.485 -2.484,2.485 z m -4.969,4.969 2.485,-2.484 -2.485,-2.485 -2.485,2.485 z m -2.485,2.485 2.485,-2.485 -2.485,-2.484 -2.484,2.484 z M 7.454,57.145 9.938,54.66 7.454,52.176 4.969,54.66 Z M 4.969,59.629 7.454,57.145 4.969,54.66 2.485,57.145 Z M 2.485,62.114 4.969,59.629 2.485,57.145 0,59.629 Z m -7.454,7.453 2.484,-2.484 -2.484,-2.485 -2.485,2.485 z m -2.485,2.485 2.485,-2.485 -2.485,-2.484 -2.484,2.484 z m -2.484,2.485 2.484,-2.485 -2.484,-2.485 -2.485,2.485 z m -2.485,2.484 2.485,-2.484 -2.485,-2.485 -2.484,2.485 z m -2.484,2.485 2.484,-2.485 -2.484,-2.484 -2.485,2.484 z m -9.939,9.938 2.485,-2.485 -2.485,-2.484 -2.484,2.484 z m 59.63,-54.66 2.484,-2.485 -2.484,-2.484 -2.485,2.484 z m -2.485,2.484 2.485,-2.484 -2.485,-2.485 -2.484,2.485 z m -2.484,2.485 2.484,-2.485 -2.484,-2.484 -2.485,2.484 z m -2.485,2.484 2.485,-2.484 -2.485,-2.485 -2.484,2.485 z m -2.484,2.485 2.484,-2.485 -2.484,-2.484 -2.485,2.484 z m -2.485,2.484 2.485,-2.484 -2.485,-2.485 -2.485,2.485 z m -2.485,2.485 2.485,-2.485 -2.485,-2.484 -2.484,2.484 z M 12.423,57.145 14.907,54.66 12.423,52.176 9.938,54.66 Z M 7.454,62.114 9.938,59.629 7.454,57.145 4.969,59.629 Z M 4.969,64.598 7.454,62.114 4.969,59.629 2.485,62.114 Z M 0,69.567 2.485,67.083 0,64.598 -2.485,67.083 Z M -2.485,72.052 0,69.567 -2.485,67.083 -4.969,69.567 Z m -12.422,12.423 2.484,-2.485 -2.484,-2.484 -2.485,2.484 z m -9.939,9.938 2.485,-2.485 -2.485,-2.484 -2.484,2.484 z m 67.083,-62.114 2.485,-2.484 -2.485,-2.485 -2.484,2.485 z m -9.938,9.938 2.485,-2.484 -2.485,-2.485 -2.484,2.485 z m -2.484,2.485 2.484,-2.485 -2.484,-2.484 -2.485,2.484 z m -2.485,2.484 2.485,-2.484 -2.485,-2.485 -2.484,2.485 z m -4.969,4.97 2.485,-2.485 -2.485,-2.485 -2.485,2.485 z m -2.485,2.484 2.485,-2.484 -2.485,-2.485 -2.484,2.485 z m -2.484,2.485 2.484,-2.485 -2.484,-2.484 -2.485,2.484 z m -2.485,2.484 2.485,-2.484 -2.485,-2.485 -2.484,2.485 z m -2.484,2.485 2.484,-2.485 -2.484,-2.484 -2.485,2.484 z M 4.969,69.567 7.454,67.083 4.969,64.598 2.485,67.083 Z m -9.938,9.939 2.484,-2.485 -2.484,-2.484 -2.485,2.484 z m -2.485,2.484 2.485,-2.484 -2.485,-2.485 -2.484,2.485 z m -12.422,12.423 2.484,-2.485 -2.484,-2.484 -2.485,2.484 z m -2.485,2.484 2.485,-2.484 -2.485,-2.485 -2.485,2.485 z m -2.485,2.485 2.485,-2.485 -2.485,-2.484 -2.484,2.484 z m 64.599,-59.629 2.484,-2.485 -2.484,-2.484 -2.485,2.484 z m -2.485,2.484 2.485,-2.484 -2.485,-2.485 -2.484,2.485 z m -4.969,4.969 2.485,-2.484 -2.485,-2.485 -2.484,2.485 z m -7.453,7.454 2.484,-2.484 -2.484,-2.485 -2.485,2.485 z m -4.97,4.969 2.485,-2.484 -2.485,-2.485 -2.484,2.485 z m -2.484,2.485 2.484,-2.485 -2.484,-2.484 -2.485,2.484 z m -2.485,2.484 2.485,-2.484 -2.485,-2.485 -2.484,2.485 z m -2.484,2.485 2.484,-2.485 -2.484,-2.484 -2.485,2.484 z M 7.454,72.052 9.938,69.567 7.454,67.083 4.969,69.567 Z M 4.969,74.537 7.454,72.052 4.969,69.567 2.485,72.052 Z M 0,79.506 2.485,77.021 0,74.537 -2.485,77.021 Z M -2.485,81.99 0,79.506 -2.485,77.021 -4.969,79.506 Z m -2.484,2.485 2.484,-2.485 -2.484,-2.484 -2.485,2.484 z m -2.485,2.484 2.485,-2.484 -2.485,-2.485 -2.484,2.485 z m -2.484,2.485 2.484,-2.485 -2.484,-2.484 -2.485,2.484 z m -4.969,4.969 2.484,-2.485 -2.484,-2.484 -2.485,2.484 z m -2.485,2.484 2.485,-2.484 -2.485,-2.485 -2.484,2.485 z m -4.969,4.97 2.485,-2.485 -2.485,-2.485 -2.485,2.485 z m 67.083,-62.114 2.484,-2.485 -2.484,-2.484 -2.485,2.484 z m -4.969,4.969 2.484,-2.485 -2.484,-2.484 -2.485,2.484 z m -2.485,2.484 2.485,-2.484 -2.485,-2.485 -2.484,2.485 z m -2.484,2.485 2.484,-2.485 -2.484,-2.484 -2.485,2.484 z m -2.485,2.485 2.485,-2.485 -2.485,-2.485 -2.484,2.485 z m -2.484,2.484 2.484,-2.484 -2.484,-2.485 -2.485,2.485 z M 27.33,57.145 29.815,54.66 27.33,52.176 24.846,54.66 Z M 12.423,72.052 14.907,69.567 12.423,67.083 9.938,69.567 Z M 7.454,77.021 9.938,74.537 7.454,72.052 4.969,74.537 Z m -22.361,22.361 2.484,-2.485 -2.484,-2.484 -2.485,2.484 z m -2.485,2.485 2.485,-2.485 -2.485,-2.485 -2.484,2.485 z m -2.484,2.484 2.484,-2.484 -2.484,-2.485 -2.485,2.485 z m -2.485,2.485 2.485,-2.485 -2.485,-2.484 -2.485,2.484 z m 62.114,-57.145 2.484,-2.485 -2.484,-2.484 -2.485,2.484 z m -4.969,4.969 2.484,-2.484 -2.484,-2.485 -2.485,2.485 z m -4.969,4.969 2.484,-2.484 -2.484,-2.485 -2.485,2.485 z m -9.939,9.938 2.485,-2.484 -2.485,-2.485 -2.484,2.485 z m -2.484,2.485 2.484,-2.485 -2.484,-2.484 -2.485,2.484 z m -2.485,2.485 2.485,-2.485 -2.485,-2.485 -2.484,2.485 z M 4.969,84.475 7.454,81.99 4.969,79.506 2.485,81.99 Z M 0,89.444 2.485,86.959 0,84.475 -2.485,86.959 Z m -4.969,4.969 2.484,-2.485 -2.484,-2.484 -2.485,2.484 z m -2.485,2.484 2.485,-2.484 -2.485,-2.485 -2.484,2.485 z m -4.969,4.97 2.485,-2.485 -2.485,-2.485 -2.484,2.485 z m 64.599,-59.63 2.484,-2.484 -2.484,-2.485 -2.485,2.485 z m -9.939,9.939 2.485,-2.485 -2.485,-2.485 -2.484,2.485 z m -4.969,4.969 2.485,-2.485 -2.485,-2.484 -2.484,2.484 z m -2.484,2.484 2.484,-2.484 -2.484,-2.485 -2.485,2.485 z m -2.485,2.485 2.485,-2.485 -2.485,-2.484 -2.484,2.484 z m -2.484,2.484 2.484,-2.484 -2.484,-2.485 -2.485,2.485 z m -2.485,2.485 2.485,-2.485 -2.485,-2.484 -2.484,2.484 z m -2.484,2.484 2.484,-2.484 -2.484,-2.485 -2.485,2.485 z M 12.423,81.99 14.907,79.506 12.423,77.021 9.938,79.506 Z M 7.454,86.959 9.938,84.475 7.454,81.99 4.969,84.475 Z M 2.485,91.928 4.969,89.444 2.485,86.959 0,89.444 Z M 0,94.413 2.485,91.928 0,89.444 -2.485,91.928 Z m -4.969,4.969 2.484,-2.485 -2.484,-2.484 -2.485,2.484 z m -4.969,4.969 2.484,-2.484 -2.484,-2.485 -2.485,2.485 z m 62.114,-57.145 2.484,-2.484 -2.484,-2.485 -2.485,2.485 z m -4.97,4.97 2.485,-2.485 -2.485,-2.485 -2.484,2.485 z m -4.969,4.969 2.485,-2.485 -2.485,-2.484 -2.484,2.484 z m -4.969,4.969 2.485,-2.485 -2.485,-2.484 -2.484,2.484 z m -2.484,2.484 2.484,-2.484 -2.484,-2.485 -2.485,2.485 z m -7.454,7.454 2.485,-2.485 -2.485,-2.484 -2.484,2.484 z m -7.454,7.454 2.485,-2.485 -2.485,-2.484 -2.484,2.484 z m -2.484,2.484 2.484,-2.484 -2.484,-2.485 -2.485,2.485 z m -4.969,4.969 2.484,-2.484 -2.484,-2.485 -2.485,2.485 z M 7.454,91.928 9.938,89.444 7.454,86.959 4.969,89.444 Z M 4.969,94.413 7.454,91.928 4.969,89.444 2.485,91.928 Z M 2.485,96.897 4.969,94.413 2.485,91.928 0,94.413 Z M 0,99.382 2.485,96.897 0,94.413 -2.485,96.897 Z m -4.969,4.969 2.484,-2.484 -2.484,-2.485 -2.485,2.485 z m -2.485,2.485 2.485,-2.485 -2.485,-2.484 -2.484,2.484 z m -2.484,2.484 2.484,-2.484 -2.484,-2.485 -2.485,2.485 z m -2.485,2.485 2.485,-2.485 -2.485,-2.484 -2.484,2.484 z m -2.484,2.484 2.484,-2.484 -2.484,-2.485 -2.485,2.485 z m 49.691,-44.722 2.484,-2.484 -2.484,-2.485 -2.485,2.485 z m -7.454,7.454 2.485,-2.484 -2.485,-2.485 -2.484,2.485 z m -12.423,12.423 2.485,-2.485 -2.485,-2.484 -2.484,2.484 z m -2.484,2.484 2.484,-2.484 -2.484,-2.485 -2.485,2.485 z m -2.485,2.485 2.485,-2.485 -2.485,-2.484 -2.484,2.484 z m 49.691,-44.722 2.485,-2.485 -2.485,-2.484 -2.484,2.484 z m -2.484,2.485 2.484,-2.485 -2.484,-2.485 -2.485,2.485 z m -2.485,2.484 2.485,-2.484 -2.485,-2.485 -2.484,2.485 z m -2.484,2.485 2.484,-2.485 -2.484,-2.484 -2.485,2.484 z m -2.485,2.484 2.485,-2.484 -2.485,-2.485 -2.485,2.485 z m -2.485,2.485 2.485,-2.485 -2.485,-2.484 -2.484,2.484 z m -2.484,2.484 2.484,-2.484 -2.484,-2.485 -2.485,2.485 z m -4.969,4.969 2.484,-2.484 -2.484,-2.485 -2.485,2.485 z m -4.969,4.97 2.484,-2.485 -2.484,-2.485 -2.485,2.485 z m -4.969,4.969 2.484,-2.485 -2.484,-2.484 -2.485,2.484 z m -4.969,4.969 2.484,-2.485 -2.484,-2.484 -2.485,2.484 z m -4.97,4.969 2.485,-2.485 -2.485,-2.484 -2.484,2.484 z m -4.969,4.969 2.485,-2.485 -2.485,-2.484 -2.484,2.484 z m -4.969,4.969 2.485,-2.485 -2.485,-2.484 -2.484,2.484 z m -4.969,4.969 2.485,-2.484 -2.485,-2.485 -2.484,2.485 z M 2.485,106.836 4.969,104.351 2.485,101.867 0,104.351 Z M 0,109.32 2.485,106.836 0,104.351 l -2.485,2.485 z m -2.485,2.485 2.485,-2.485 -2.485,-2.484 -2.484,2.484 z m -2.484,2.484 2.484,-2.484 -2.484,-2.485 -2.485,2.485 z m -2.485,2.485 2.485,-2.485 -2.485,-2.484 -2.484,2.484 z m -2.484,2.484 2.484,-2.484 -2.484,-2.485 -2.485,2.485 z m 72.052,-67.082 2.484,-2.485 -2.484,-2.485 -2.485,2.485 z m -14.908,14.907 2.485,-2.485 -2.485,-2.484 -2.484,2.484 z m -4.969,4.969 2.485,-2.485 -2.485,-2.484 -2.484,2.484 z m -4.969,4.969 2.485,-2.484 -2.485,-2.485 -2.484,2.485 z m -4.969,4.969 2.485,-2.484 -2.485,-2.485 -2.484,2.485 z m -2.484,2.485 2.484,-2.485 -2.484,-2.484 -2.485,2.484 z m -2.485,2.484 2.485,-2.484 -2.485,-2.485 -2.484,2.485 z m -4.969,4.969 2.485,-2.484 -2.485,-2.485 -2.485,2.485 z m -2.485,2.485 2.485,-2.485 -2.485,-2.484 -2.484,2.484 z m -4.969,4.969 2.485,-2.485 -2.485,-2.484 -2.484,2.484 z m -2.484,2.485 2.484,-2.485 -2.484,-2.485 -2.485,2.485 z m -4.969,4.969 2.484,-2.485 -2.484,-2.484 -2.485,2.484 z m -14.908,14.907 2.485,-2.485 -2.485,-2.484 -2.484,2.484 z m 72.052,-67.083 2.485,-2.484 -2.485,-2.485 -2.484,2.485 z m -4.969,4.969 2.485,-2.484 -2.485,-2.485 -2.484,2.485 z m -2.484,2.485 2.484,-2.485 -2.484,-2.484 -2.485,2.484 z m -2.485,2.484 2.485,-2.484 -2.485,-2.485 -2.484,2.485 z m -4.969,4.969 2.485,-2.484 -2.485,-2.485 -2.485,2.485 z m -7.454,7.454 2.485,-2.484 -2.485,-2.485 -2.484,2.485 z m -2.484,2.485 2.484,-2.485 -2.484,-2.484 -2.485,2.484 z m -4.969,4.969 2.484,-2.485 -2.484,-2.484 -2.485,2.484 z m -17.392,17.392 2.484,-2.485 -2.484,-2.485 -2.485,2.485 z m -7.454,7.453 2.485,-2.484 -2.485,-2.485 -2.484,2.485 z m -4.969,4.969 2.485,-2.484 -2.485,-2.485 -2.484,2.485 z M 2.485,116.774 4.969,114.289 2.485,111.805 0,114.289 Z M 0,119.258 2.485,116.774 0,114.289 l -2.485,2.485 z m -4.969,4.97 2.484,-2.485 -2.484,-2.485 -2.485,2.485 z M 67.083,57.145 69.567,54.66 67.083,52.176 64.598,54.66 Z m -4.969,4.969 2.484,-2.485 -2.484,-2.484 -2.485,2.484 z m -2.485,2.484 2.485,-2.484 -2.485,-2.485 -2.484,2.485 z m -2.484,2.485 2.484,-2.485 -2.484,-2.484 -2.485,2.484 z m -4.969,4.969 2.484,-2.485 -2.484,-2.484 -2.485,2.484 z m -7.454,7.454 2.484,-2.485 -2.484,-2.484 -2.485,2.484 z m -4.969,4.969 2.484,-2.485 -2.484,-2.484 -2.485,2.484 z m -7.454,7.453 2.485,-2.484 -2.485,-2.485 -2.484,2.485 z m -2.484,2.485 2.484,-2.485 -2.484,-2.484 -2.485,2.484 z m -2.485,2.484 2.485,-2.484 -2.485,-2.485 -2.484,2.485 z m -4.969,4.97 2.485,-2.485 -2.485,-2.485 -2.485,2.485 z m -2.485,2.484 2.485,-2.484 -2.485,-2.485 -2.484,2.485 z m -2.484,2.485 2.484,-2.485 -2.484,-2.484 -2.485,2.484 z m -4.969,4.969 2.484,-2.485 -2.484,-2.484 -2.485,2.484 z m -4.969,4.969 2.484,-2.485 -2.484,-2.484 -2.485,2.484 z m -2.485,2.484 2.485,-2.484 -2.485,-2.485 -2.484,2.485 z M 2.485,121.743 4.969,119.258 2.485,116.774 0,119.258 Z m -4.97,4.969 2.485,-2.484 -2.485,-2.485 -2.484,2.485 z m 72.052,-67.083 2.485,-2.484 -2.485,-2.485 -2.484,2.485 z m -4.969,4.969 2.485,-2.484 -2.485,-2.485 -2.484,2.485 z m -2.484,2.485 2.484,-2.485 -2.484,-2.484 -2.485,2.484 z m -2.485,2.484 2.485,-2.484 -2.485,-2.485 -2.484,2.485 z m -4.969,4.97 2.485,-2.485 -2.485,-2.485 -2.484,2.485 z m -4.969,4.969 2.485,-2.485 -2.485,-2.484 -2.485,2.484 z m -2.485,2.484 2.485,-2.484 -2.485,-2.485 -2.484,2.485 z m -2.484,2.485 2.484,-2.485 -2.484,-2.484 -2.485,2.484 z m -4.969,4.969 2.484,-2.485 -2.484,-2.484 -2.485,2.484 z m -2.485,2.484 2.485,-2.484 -2.485,-2.485 -2.484,2.485 z m -2.484,2.485 2.484,-2.485 -2.484,-2.484 -2.485,2.484 z m -4.969,4.969 2.484,-2.485 -2.484,-2.484 -2.485,2.484 z m -14.908,14.907 2.485,-2.484 -2.485,-2.485 -2.484,2.485 z m -4.969,4.969 2.485,-2.484 -2.485,-2.485 -2.484,2.485 z m -2.484,2.485 2.484,-2.485 -2.484,-2.484 -2.485,2.484 z m -2.485,2.485 2.485,-2.485 -2.485,-2.485 -2.484,2.485 z M 0,129.197 2.485,126.712 0,124.228 l -2.485,2.484 z m 72.052,-67.083 2.485,-2.485 -2.485,-2.484 -2.485,2.484 z m -14.907,14.907 2.484,-2.484 -2.484,-2.485 -2.485,2.485 z m -4.969,4.969 2.484,-2.484 -2.484,-2.485 -2.485,2.485 z m -4.97,4.969 2.485,-2.484 -2.485,-2.485 -2.484,2.485 z m -2.484,2.485 2.484,-2.485 -2.484,-2.484 -2.485,2.484 z m -2.485,2.484 2.485,-2.484 -2.485,-2.485 -2.484,2.485 z m -2.484,2.485 2.484,-2.485 -2.484,-2.484 -2.485,2.484 z m -12.423,12.423 2.485,-2.485 -2.485,-2.484 -2.484,2.484 z m -4.969,4.969 2.485,-2.485 -2.485,-2.484 -2.485,2.484 z m -4.969,4.969 2.484,-2.485 -2.484,-2.484 -2.485,2.484 z M 2.485,131.681 4.969,129.197 2.485,126.712 0,129.197 Z m 72.052,-67.083 2.484,-2.484 -2.484,-2.485 -2.485,2.485 z m -2.485,2.485 2.485,-2.485 -2.485,-2.484 -2.485,2.484 z m -2.485,2.484 2.485,-2.484 -2.485,-2.485 -2.484,2.485 z m -2.484,2.485 2.484,-2.485 -2.484,-2.484 -2.485,2.484 z m -2.485,2.485 2.485,-2.485 -2.485,-2.485 -2.484,2.485 z m -2.484,2.484 2.484,-2.484 -2.484,-2.485 -2.485,2.485 z m -2.485,2.485 2.485,-2.485 -2.485,-2.484 -2.484,2.484 z M 54.66,84.475 57.145,81.99 54.66,79.506 52.176,81.99 Z m -2.484,2.484 2.484,-2.484 -2.484,-2.485 -2.485,2.485 z m -4.97,4.969 2.485,-2.484 -2.485,-2.485 -2.484,2.485 z m -2.484,2.485 2.484,-2.485 -2.484,-2.484 -2.485,2.484 z m -9.938,9.938 2.484,-2.484 -2.484,-2.485 -2.485,2.485 z m -4.969,4.969 2.484,-2.484 -2.484,-2.485 -2.485,2.485 z m -9.939,9.938 2.485,-2.484 -2.485,-2.485 -2.484,2.485 z m -2.484,2.485 2.484,-2.485 -2.484,-2.484 -2.485,2.484 z m -2.485,2.485 2.485,-2.485 -2.485,-2.485 -2.484,2.485 z m -2.484,2.484 2.484,-2.484 -2.484,-2.485 -2.485,2.485 z m -2.485,2.485 2.485,-2.485 -2.485,-2.484 -2.484,2.484 z m -2.484,2.484 2.484,-2.484 -2.484,-2.485 -2.485,2.485 z m -2.485,2.485 2.485,-2.485 -2.485,-2.484 -2.484,2.484 z"
       style="fill:#110f0d;fill-opacity:1;fill-rule:nonzero;stroke:none"
       transform="matrix(2.5656558,0,0,-3.2253946,256.77259,2660.298)"
       clip-path="url(#clipPath25)" />
  </g>
</svg>
