<?xml version="1.0" encoding="UTF-8" standalone="no"?>
<!-- Created with Inkscape (http://www.inkscape.org/) -->

<svg
   version="1.1"
   id="svg1"
   width="1920"
   height="1080"
   viewBox="0 0 1919.9999 1080"
   sodipodi:docname="background_landscape.svg"
   inkscape:version="1.4.2 (ebf0e940d0, 2025-05-08)"
   xmlns:inkscape="http://www.inkscape.org/namespaces/inkscape"
   xmlns:sodipodi="http://sodipodi.sourceforge.net/DTD/sodipodi-0.dtd"
   xmlns="http://www.w3.org/2000/svg"
   xmlns:svg="http://www.w3.org/2000/svg">
  <defs
     id="defs1">
    <clipPath
       clipPathUnits="userSpaceOnUse"
       id="clipPath3">
      <path
         d="M 0,841.89 H 1190.551 V 0 H 0 Z"
         transform="translate(-519.28582,-401.51021)"
         id="path3" />
    </clipPath>
    <clipPath
       clipPathUnits="userSpaceOnUse"
       id="clipPath6">
      <path
         d="M 0,841.89 H 1190.551 V 0 H 0 Z"
         transform="translate(-442.22561,-796.80972)"
         id="path6" />
    </clipPath>
    <clipPath
       clipPathUnits="userSpaceOnUse"
       id="clipPath8">
      <path
         d="M 0,841.89 H 1190.551 V 0 H 0 Z"
         id="path8" />
    </clipPath>
    <clipPath
       clipPathUnits="userSpaceOnUse"
       id="clipPath10">
      <path
         d="M 0,841.89 H 1190.551 V 0 H 0 Z"
         transform="translate(-366.75701,-783.80992)"
         id="path10" />
    </clipPath>
    <clipPath
       clipPathUnits="userSpaceOnUse"
       id="clipPath12">
      <path
         d="M 0,841.89 H 1190.551 V 0 H 0 Z"
         id="path12" />
    </clipPath>
    <clipPath
       clipPathUnits="userSpaceOnUse"
       id="clipPath14">
      <path
         d="M 0,841.89 H 1190.551 V 0 H 0 Z"
         transform="translate(-296.3452,-757.81132)"
         id="path14" />
    </clipPath>
    <clipPath
       clipPathUnits="userSpaceOnUse"
       id="clipPath16">
      <path
         d="M 0,841.89 H 1190.551 V 0 H 0 Z"
         id="path16" />
    </clipPath>
    <clipPath
       clipPathUnits="userSpaceOnUse"
       id="clipPath19">
      <path
         d="M 0,841.89 H 1190.551 V 0 H 0 Z"
         transform="translate(-1327.7875,-165.3855)"
         id="path19" />
    </clipPath>
    <clipPath
       clipPathUnits="userSpaceOnUse"
       id="clipPath23">
      <path
         d="M 0,841.89 H 1190.551 V 0 H 0 Z"
         transform="translate(-652.99181,-164.4184)"
         id="path23" />
    </clipPath>
    <clipPath
       clipPathUnits="userSpaceOnUse"
       id="clipPath25">
      <path
         d="M 0,841.89 H 1190.551 V 0 H 0 Z"
         transform="translate(-648.02272,-19.046325)"
         id="path25" />
    </clipPath>
  </defs>
  <sodipodi:namedview
     id="namedview1"
     pagecolor="#ffffff"
     bordercolor="#000000"
     borderopacity="0.25"
     inkscape:showpageshadow="2"
     inkscape:pageopacity="0.0"
     inkscape:pagecheckerboard="0"
     inkscape:deskcolor="#d1d1d1"
     inkscape:zoom="0.18195571"
     inkscape:cx="1874.0824"
     inkscape:cy="970.01627"
     inkscape:window-width="1920"
     inkscape:window-height="1044"
     inkscape:window-x="0"
     inkscape:window-y="20"
     inkscape:window-maximized="1"
     inkscape:current-layer="layer-MC0">
    <inkscape:page
       x="2.5000001e-05"
       y="0"
       inkscape:label="1"
       id="page1"
       width="1920"
       height="1080"
       margin="0"
       bleed="0" />
  </sodipodi:namedview>
  <g
     id="layer-MC0"
     inkscape:groupmode="layer"
     inkscape:label="Layer 1"
     transform="translate(166.29867,-21.26)">
    <path
       id="path1"
       d="m -166.2987,1101.26 h 1920 V 21.260026 h -1920 z"
       style="fill:#4397d9;fill-opacity:1;fill-rule:nonzero;stroke:none;stroke-width:1.43833" />
    <path
       id="path2"
       d="M 0,0 C 0,76.798 -60.464,141.347 -136.449,146.249 -60.464,151.969 0,216.514 0,293.316 0,374.203 -66.184,440.379 -147.071,440.379 h -147.067 l -294.13,10e-4 V 293.317 l 278.61,-0.001 C -383.193,285.144 -441.201,223.052 -441.201,147.063 -441.201,66.181 -375.021,0 -294.138,0 h -294.13 v -147.067 h 441.197 C -66.184,-147.067 0,-80.887 0,0"
       style="fill:#5fb63e;fill-opacity:1;fill-rule:nonzero;stroke:none"
       transform="matrix(1.6126973,0,0,-1.2828279,671.15215,586.19151)"
       clip-path="url(#clipPath3)" />
    <path
       id="path4"
       d="m -63.7302,145.79453 v -35.14748 l -14.0607,24.71448 H -90.075115 L -104.1358,110.64705 v 35.14748 h -23.03765 V 79.077461 h 25.1732 l 18.067255,31.389199 18.18063,-31.389199 h 25.04091 V 145.79453 Z M -6.934585,79.077461 H 18.82448 L 45.509585,145.79453 H 22.13176 L 17.047985,132.73074 H -5.27148 l -4.9704,13.06379 H -33.751975 Z M 13.38163,120.52383 5.954395,97.027026 -1.85081,120.52383 Z m 39.09216,25.2707 V 79.077461 h 32.26024 c 9.284025,0 17.05617,1.48828 23.32111,4.46484 6.26024,2.976565 10.98494,6.98665 14.17411,12.026515 3.18446,5.043614 4.7814,10.635944 4.7814,16.776984 0,6.76491 -1.75287,12.65415 -5.25387,17.66394 -3.50573,5.01355 -8.42415,8.89586 -14.75996,11.65068 -6.34055,2.75858 -13.75834,4.13411 -22.26279,4.13411 z m 51.15905,-33.44873 c 0,-3.44635 -0.75123,-6.46801 -2.24897,-9.06498 -1.50246,-2.60449 -3.666355,-4.622699 -6.5012,-6.058364 -2.8348,-1.443175 -6.21769,-2.164765 -10.14864,-2.164765 h -9.222605 v 34.756619 h 9.222605 c 4.00654,0 7.40834,-0.75166 10.20534,-2.25498 2.797035,-1.50331 4.94204,-3.58164 6.4445,-6.23875 1.49774,-2.66462 2.24897,-5.65621 2.24897,-8.97478 z m 93.18523,17.46851 v 15.98022 H 137.04119 V 79.077461 h 58.71853 v 15.98023 h -35.68091 v 9.395709 h 30.48376 v 14.83771 h -30.48376 v 10.5232 z m 0,0"
       style="fill:#ffffff;fill-opacity:1;fill-rule:nonzero;stroke:none;stroke-width:1.43833"
       aria-label="MADE" />
    <path
       id="path5"
       d="M 0,0 C -6.788,0 -12.494,-5.345 -12.927,-12.061 -13.433,-5.345 -19.138,0 -25.927,0 -33.076,0 -38.926,-5.85 -38.926,-13 v -12.999 -25.999 h 12.999 v 24.627 c 0.723,-6.5 6.211,-11.627 12.928,-11.627 7.149,0 12.999,5.849 12.999,12.999 V -51.998 H 12.999 V -13 C 12.999,-5.85 7.15,0 0,0"
       style="fill:#ffffff;fill-opacity:1;fill-rule:nonzero;stroke:none"
       transform="matrix(1.6126973,0,0,-1.2828279,546.87737,79.090271)"
       clip-path="url(#clipPath6)" />
    <path
       id="path7"
       d="m 379.757,744.812 h 12.999 v 51.998 h -12.999 z"
       style="fill:#ffffff;fill-opacity:1;fill-rule:nonzero;stroke:none"
       transform="matrix(1.6126973,0,0,-1.2828279,-166.2987,1101.26)"
       clip-path="url(#clipPath8)" />
    <path
       id="path9"
       d="M 0,0 H 13 C 13,7.15 7.15,13 0,13 -7.149,13 -12.999,7.15 -12.999,0 v -25.999 c 0,-7.149 5.85,-12.999 12.999,-12.999 7.15,0 13,5.85 13,12.999 H 0 Z"
       style="fill:#ffffff;fill-opacity:1;fill-rule:nonzero;stroke:none"
       transform="matrix(1.6126973,0,0,-1.2828279,425.16935,95.766776)"
       clip-path="url(#clipPath10)" />
    <path
       id="path11"
       d="m 293.745,744.812 h 51.997 v 13 h -51.997 z"
       style="fill:#ffffff;fill-opacity:1;fill-rule:nonzero;stroke:none"
       transform="matrix(1.6126973,0,0,-1.2828279,-166.2987,1101.26)"
       clip-path="url(#clipPath12)" />
    <path
       id="path13"
       d="M 0,0 50.192,13.433 46.798,25.999 -3.395,12.566 Z"
       style="fill:#ffffff;fill-opacity:1;fill-rule:nonzero;stroke:none"
       transform="matrix(1.6126973,0,0,-1.2828279,311.61642,129.1185)"
       clip-path="url(#clipPath14)" />
    <path
       id="path15"
       d="m 293.745,783.81 h 51.997 v 12.999 h -51.997 z"
       style="fill:#ffffff;fill-opacity:1;fill-rule:nonzero;stroke:none"
       transform="matrix(1.6126973,0,0,-1.2828279,-166.2987,1101.26)"
       clip-path="url(#clipPath16)" />
    <path
       id="path17"
       d="m 250.94895,83.455861 c 5.63184,0 11.03689,0.68401 16.21517,2.04451 5.17828,1.364255 9.83681,3.45386 13.98511,6.268815 4.15774,2.818715 7.43195,6.40412 9.82737,10.763734 2.40487,4.35961 3.60967,9.56859 3.60967,15.61943 0,1.03353 -0.10387,2.41658 -0.30238,4.14914 -0.18893,1.72506 -0.58587,3.58917 -1.19063,5.59233 -0.60476,1.99565 -1.57805,3.88607 -2.91041,5.6675 -1.33709,1.78518 -3.14665,3.25467 -5.42394,4.40471 -2.28204,1.15003 -5.17356,1.72881 -8.67456,1.72881 -2.82536,0 -5.07431,-0.36831 -6.74687,-1.09742 -1.67727,-0.72159 -2.90096,-1.59727 -3.66637,-2.6308 -0.75594,-1.02977 -1.24731,-1.99941 -1.4741,-2.9014 -2.58441,1.87538 -5.55153,3.29978 -8.90133,4.26942 -3.35455,0.96211 -6.81775,1.44318 -10.39434,1.44318 -5.78304,0 -10.18172,-1.19138 -13.19136,-3.57789 -3.01436,-2.39403 -4.51682,-5.56227 -4.51682,-9.50094 0,-3.50648 1.02526,-6.27258 3.0805,-8.2983 2.06469,-2.03323 4.72942,-3.49144 7.99419,-4.37464 3.27424,-0.87944 6.66185,-1.32292 10.16755,-1.32292 2.89625,0 5.31529,0.20295 7.25714,0.60133 1.93713,0.39086 3.40653,0.79675 4.40343,1.21768 0,-1.63109 -0.34963,-3.07052 -1.03943,-4.31451 -0.68035,-1.24024 -1.89932,-2.20987 -3.64746,-2.90139 -1.75287,-0.69904 -4.22861,-1.05232 -7.42724,-1.05232 -3.20334,0 -6.03817,0.33824 -8.50446,1.00722 -2.47101,0.66145 -4.46955,1.57096 -5.99092,2.721 l -3.66636,-8.80943 c 2.89625,-1.570964 6.07596,-2.705964 9.5439,-3.397484 3.4632,-0.699045 7.05869,-1.05232 10.79121,-1.05232 5.48064,0 9.76122,0.62387 12.85117,1.864105 3.08523,1.243995 5.31057,2.863819 6.67129,4.855709 1.37015,1.99565 2.21115,4.10028 2.51353,6.31392 0.30238,2.21738 0.45358,4.32202 0.45358,6.31391 v 6.08842 c 0,1.75513 0.0945,3.51401 0.28347,5.27664 0.19845,1.75512 0.69926,3.19454 1.49301,4.31451 0.80319,1.11245 2.08358,1.66868 3.83645,1.66868 1.82373,0 3.26949,-0.55623 4.32783,-1.66868 1.06777,-1.11997 1.87098,-2.5143 2.40014,-4.17921 0.52917,-1.67244 0.86935,-3.31105 1.02053,-4.91584 0.16071,-1.60103 0.24569,-2.89012 0.24569,-3.86351 0,-4.05895 -0.841,-7.79469 -2.51353,-11.21473 -1.67728,-3.41628 -4.07743,-6.38157 -7.20044,-8.899619 -3.12776,-2.51429 -6.89806,-4.453565 -11.32038,-5.817825 -4.41287,-1.3605 -9.3927,-2.04451 -14.94895,-2.04451 -5.48066,0 -10.41323,0.68401 -14.79776,2.04451 -4.37507,1.36426 -8.06506,3.2885 -11.0747,5.772725 -3.00017,2.487989 -5.3011,5.408169 -6.89806,8.764319 -1.60166,3.35991 -2.40013,7.03551 -2.40013,11.03433 0,3.81842 0.73704,7.41134 2.21114,10.77876 1.48357,3.3599 3.65693,6.29513 6.52009,8.80942 2.85844,2.50301 6.34055,4.48363 10.45104,5.93809 4.10575,1.4507 8.82573,2.17981 14.15518,2.17981 3.96876,0 7.26187,-0.36832 9.88409,-1.09742 2.63165,-0.7216 5.35307,-1.50332 8.16428,-2.34518 l 2.28676,6.17862 c -3.27896,1.20266 -6.68546,2.10464 -10.22425,2.70597 -3.54353,0.60884 -7.02565,0.91702 -10.45104,0.91702 -5.70743,0 -11.0747,-0.80427 -16.10177,-2.4053 -5.02708,-1.60479 -9.42578,-3.88983 -13.19136,-6.85511 -3.77033,-2.96905 -6.73744,-6.55445 -8.90134,-10.76373 -2.16864,-4.20928 -3.25059,-8.94847 -3.25059,-14.22135 0,-5.56978 1.19535,-10.46306 3.59076,-14.67234 2.39071,-4.209284 5.64129,-7.734554 9.75178,-10.583334 4.11995,-2.845025 8.84465,-4.97973 14.17411,-6.40412 5.32946,-1.42063 10.92349,-2.134705 16.78212,-2.134705 z m 4.57352,45.700749 c 0.68035,-0.30818 1.3607,-0.67649 2.04106,-1.09742 0.68981,-0.42093 1.26622,-0.90199 1.7198,-1.44318 0.46301,-0.54871 0.69924,-1.15756 0.69924,-1.81901 v -3.72822 c -1.1481,-0.3608 -2.76866,-0.73663 -4.85698,-1.12748 -2.09305,-0.39838 -4.2475,-0.60133 -6.46339,-0.60133 -2.05525,0 -3.75142,0.23301 -5.08378,0.69152 -1.32292,0.45099 -2.3151,1.15004 -2.96711,2.08961 -0.64255,0.93205 -0.96384,2.09712 -0.96384,3.48768 0,1.1538 0.22679,2.11216 0.68035,2.87134 0.46303,0.75165 1.20952,1.30788 2.23006,1.66868 1.02999,0.36079 2.3104,0.54118 3.83647,0.54118 1.05832,0 2.48047,-0.10523 4.27112,-0.31569 1.78594,-0.21047 3.40652,-0.61636 4.857,-1.21768 z m 0,0"
       style="fill:#ffffff;fill-opacity:1;fill-rule:nonzero;stroke:none;stroke-width:1.43833"
       aria-label="@" />
    <path
       id="path18"
       d="M 0,0 V -279.364 C 153.646,-279.364 279.364,-153.646 279.364,0 279.364,153.638 153.646,279.349 0,279.349 H -558.705 C -712.35,279.349 -838.061,153.638 -838.061,0 c 0,-153.646 125.711,-279.364 279.356,-279.364 V 0 Z"
       style="fill:#f7f11f;fill-opacity:1;fill-rule:nonzero;stroke:none"
       transform="matrix(1.6126973,0,0,-1.2828279,1975.0207,889.09886)"
       clip-path="url(#clipPath19)" />
    <path
       id="path20"
       d="m 1116.3675,948.87611 v -38.094 h 18.2373 c 1.9513,0 3.742,0.36085 5.3673,1.08245 1.6347,0.71405 3.0663,1.66115 4.29,2.84125 1.2331,1.17255 2.1733,2.50675 2.8159,3.9988 0.652,1.48455 0.9827,2.97285 0.9827,4.46485 0,2.11595 -0.5433,4.11905 -1.6253,6.0133 -1.0725,1.89415 -2.5891,3.44255 -4.5546,4.6452 -1.956,1.19515 -4.2616,1.78895 -6.9169,1.78895 h -11.6795 v 13.2592 z m 6.9169,-18.5659 h 11.2637 c 1.2568,0 2.3813,-0.3082 3.364,-0.93205 0.9827,-0.6314 1.7576,-1.4883 2.3246,-2.57065 0.5669,-1.08995 0.8504,-2.3189 0.8504,-3.68315 0,-1.39055 -0.3307,-2.61575 -0.9828,-3.6681 -0.6425,-1.0598 -1.4882,-1.88665 -2.5324,-2.48045 -1.0489,-0.59005 -2.1544,-0.88695 -3.3262,-0.88695 h -10.9613 z m 44.1193,19.10715 c -2.5325,0 -4.8003,-0.38715 -6.8036,-1.1576 -1.9938,-0.77045 -3.7136,-1.834 -5.1594,-3.18705 -1.4505,-1.36045 -2.5655,-2.90885 -3.3451,-4.64525 -0.7701,-1.7325 -1.1528,-3.56655 -1.1528,-5.5021 0,-2.0032 0.3827,-3.87105 1.1528,-5.60735 0.7796,-1.73255 1.8946,-3.2772 3.3451,-4.6302 1.4458,-1.3605 3.1797,-2.42785 5.1972,-3.20205 2.0127,-0.77045 4.2711,-1.15755 6.7658,-1.15755 2.5182,0 4.7672,0.3871 6.7468,1.15755 1.975,0.7742 3.7042,1.84155 5.1783,3.20205 1.4741,1.353 2.5939,2.89765 3.364,4.6302 0.7796,1.7363 1.1717,3.60415 1.1717,5.60735 0,1.93555 -0.3921,3.7696 -1.1717,5.5021 -0.7701,1.7364 -1.8804,3.2848 -3.3262,4.64525 -1.4505,1.35305 -3.1892,2.4166 -5.2161,3.18705 -2.0174,0.77045 -4.2664,1.1576 -6.7468,1.1576 z m -9.5439,-14.5521 c 0,1.834 0.4252,3.46885 1.2851,4.90075 0.8552,1.42445 1.9938,2.5482 3.4207,3.36745 1.4221,0.8231 3.0096,1.23275 4.7625,1.23275 1.8379,0 3.4679,-0.40965 4.8948,-1.23275 1.4363,-0.81925 2.5796,-1.9618 3.4395,-3.42755 0.8552,-1.47325 1.2851,-3.08555 1.2851,-4.84065 0,-1.78145 -0.4299,-3.3975 -1.2851,-4.84065 -0.8599,-1.4507 -2.0127,-2.5895 -3.4584,-3.41255 -1.4505,-0.81935 -3.0522,-1.2327 -4.8003,-1.2327 -1.8049,0 -3.416,0.43215 -4.8381,1.2928 -1.4269,0.85315 -2.5655,1.9957 -3.4207,3.4276 -0.8599,1.43565 -1.2851,3.02165 -1.2851,4.7655 z m 43.3727,14.5521 c -2.6978,0 -5.2491,-0.3909 -7.6539,-1.1726 -2.4096,-0.7893 -4.4697,-1.95805 -6.18,-3.50275 l 2.4569,-3.9086 c 1.8756,1.3943 3.7419,2.4203 5.5939,3.08175 1.8522,0.66145 3.6949,0.9922 5.5375,0.9922 1.9135,0 3.4489,-0.30815 4.6113,-0.93205 1.1717,-0.6314 1.7575,-1.55215 1.7575,-2.76605 0,-0.90205 -0.3212,-1.5635 -0.9638,-1.9844 -0.633,-0.42845 -1.526,-0.8043 -2.6836,-1.1275 -1.1624,-0.31945 -2.5325,-0.6802 -4.1199,-1.08235 -2.2585,-0.60135 -4.172,-1.23275 -5.7453,-1.8942 -1.564,-0.66145 -2.7356,-1.47325 -3.5153,-2.43535 -0.77,-0.96965 -1.1527,-2.2099 -1.1527,-3.7132 0,-1.7927 0.5291,-3.32985 1.5874,-4.6152 1.0585,-1.29285 2.5373,-2.28505 4.4414,-2.97655 1.8992,-0.69905 4.0915,-1.0523 6.5767,-1.0523 2.3292,0 4.4838,0.31565 6.4633,0.9471 1.9749,0.62385 3.7231,1.5935 5.2351,2.9164 l -2.8915,3.8635 c -1.3892,-1.10115 -2.8349,-1.9167 -4.3467,-2.4504 -1.5026,-0.5412 -3.1089,-0.8118 -4.8192,-0.8118 -0.9451,0 -1.8805,0.1015 -2.7971,0.3007 -0.9072,0.1917 -1.6725,0.5487 -2.2867,1.06735 -0.619,0.5111 -0.9262,1.2327 -0.9262,2.16475 0,0.793 0.2506,1.41315 0.756,1.86415 0.515,0.44345 1.2663,0.82305 2.249,1.1425 0.9826,0.3232 2.1828,0.67645 3.6096,1.06735 2.4946,0.6126 4.616,1.24025 6.369,1.8791 1.7482,0.64275 3.1041,1.45825 4.0631,2.45045 0.9544,0.98465 1.4364,2.33015 1.4364,4.0439 0,2.6872 -1.1529,4.8031 -3.4585,6.344 -2.3056,1.5334 -5.3766,2.3001 -9.2037,2.3001 z m 36.4085,-1.9844 c -0.5291,0.21045 -1.2472,0.4735 -2.1544,0.7817 -0.8978,0.30065 -1.871,0.55625 -2.9293,0.7667 -1.0583,0.218 -2.1639,0.33075 -3.3072,0.33075 -1.3892,0 -2.6742,-0.2255 -3.8554,-0.6765 -1.186,-0.45105 -2.1356,-1.135 -2.8539,-2.05955 -0.7087,-0.93205 -1.0583,-2.1347 -1.0583,-3.60795 v -17.58875 h -4.29 v -4.5701 h 4.29 v -9.2153 h 6.7281 v 9.2153 h 6.9736 v 4.5701 h -6.9736 v 15.66455 c 0.084,0.9621 0.4441,1.6799 1.0771,2.14965 0.6284,0.4623 1.4175,0.69155 2.3624,0.69155 0.9308,0 1.8332,-0.1503 2.7026,-0.45095 0.8787,-0.3082 1.4835,-0.5337 1.8142,-0.67655 z m 18.7193,1.9844 c -2.5325,0 -4.8002,-0.38715 -6.8036,-1.1576 -1.9939,-0.77045 -3.723,-1.8228 -5.1972,-3.15695 -1.4646,-1.3417 -2.5891,-2.87885 -3.3828,-4.61515 -0.7938,-1.74385 -1.1906,-3.5779 -1.1906,-5.50215 0,-2.6834 0.6898,-5.1338 2.0787,-7.3512 1.3844,-2.22495 3.3311,-3.99885 5.8399,-5.3217 2.5041,-1.32295 5.3908,-1.9844 8.6556,-1.9844 3.3876,0 6.2933,0.6727 8.7124,2.0144 2.4283,1.3455 4.3182,3.10815 5.6695,5.2917 1.3467,2.176 2.0222,4.51745 2.0222,7.02045 0,0.43225 -0.029,0.8381 -0.075,1.2177 -0.038,0.37205 -0.075,0.66145 -0.1132,0.87195 h -25.7023 c 0.1984,1.68365 0.7465,3.1419 1.6441,4.3746 0.9072,1.23275 2.0694,2.2024 3.4963,2.9014 1.4363,0.7028 2.9482,1.0523 4.5357,1.0523 1.8379,0 3.5577,-0.39085 5.1594,-1.17255 1.6111,-0.78925 2.7072,-1.83405 3.2884,-3.1269 l 5.7451,1.4432 c -0.6944,1.36425 -1.7575,2.59325 -3.1938,3.6831 -1.4268,1.09365 -3.0899,1.9543 -4.9892,2.5857 -1.89,0.62015 -3.9594,0.9321 -6.1989,0.9321 z m -9.6006,-16.5365 h 19.3334 c -0.1651,-1.64235 -0.6896,-3.07055 -1.5687,-4.28445 -0.8691,-1.21015 -2.0221,-2.16855 -3.4582,-2.8713 -1.427,-0.6991 -2.9766,-1.05235 -4.6493,-1.05235 -1.715,0 -3.2788,0.35325 -4.6868,1.05235 -1.3984,0.70275 -2.5515,1.66115 -3.4584,2.8713 -0.8978,1.2139 -1.3986,2.6421 -1.512,4.28445 z m 44.6012,1.9844 c 0,-2.6759 0.6142,-5.1113 1.852,-7.30615 1.2473,-2.20235 2.953,-3.95745 5.1216,-5.2616 2.1639,-1.3116 4.6539,-1.9693 7.465,-1.9693 2.4947,0 4.7295,0.55625 6.7091,1.6687 1.9749,1.1124 3.4963,2.4729 4.5546,4.07395 v -16.35605 h 6.728 v 32.50165 c 0,0.65395 0.1364,1.12745 0.4157,1.4281 0.2882,0.3007 0.7607,0.4736 1.4176,0.5112 v 4.72035 c -1.2238,0.1804 -2.2019,0.28565 -2.9294,0.31575 -1.2756,0 -2.3387,-0.33075 -3.1939,-0.9922 -0.86,-0.66145 -1.3229,-1.4357 -1.3985,-2.33015 l -0.058,-2.0295 c -1.2757,1.7439 -2.9434,3.11185 -5.0082,4.10405 -2.0551,0.9809 -4.205,1.4733 -6.4444,1.4733 -2.2065,0 -4.2334,-0.38715 -6.0855,-1.1576 -1.852,-0.77045 -3.4679,-1.8228 -4.838,-3.15695 -1.3607,-1.3417 -2.419,-2.87885 -3.1751,-4.61515 -0.7559,-1.74385 -1.134,-3.6155 -1.134,-5.6224 z m 25.7023,3.92365 v -7.35125 c -0.4535,-1.14245 -1.1812,-2.15725 -2.1733,-3.0517 -0.997,-0.902 -2.1168,-1.62735 -3.364,-2.1798 -1.2474,-0.5487 -2.5041,-0.8268 -3.7609,-0.8268 -1.3891,0 -2.6648,0.2706 -3.8363,0.8118 -1.1624,0.53365 -2.1641,1.2402 -3.005,2.11965 -0.8316,0.87195 -1.4742,1.8904 -1.9277,3.0517 -0.4441,1.1651 -0.6615,2.3715 -0.6615,3.623 0,1.25525 0.2458,2.4504 0.7371,3.5929 0.4914,1.14255 1.1906,2.15725 2.0978,3.0367 0.9166,0.87195 1.9749,1.54845 3.1749,2.02945 1.2096,0.4811 2.5325,0.72165 3.9689,0.72165 0.893,0 1.8,-0.1278 2.7214,-0.3909 0.9166,-0.27055 1.7812,-0.6539 2.5891,-1.1575 0.8173,-0.4999 1.5308,-1.09745 2.1354,-1.789 0.6144,-0.699 1.0489,-1.4469 1.3041,-2.2399 z m 29.794,10.62845 c -2.5325,0 -4.8002,-0.38715 -6.8036,-1.1576 -1.9939,-0.77045 -3.723,-1.8228 -5.1972,-3.15695 -1.4646,-1.3417 -2.5891,-2.87885 -3.3829,-4.61515 -0.7937,-1.74385 -1.1905,-3.5779 -1.1905,-5.50215 0,-2.6834 0.6898,-5.1338 2.0787,-7.3512 1.3844,-2.22495 3.331,-3.99885 5.8399,-5.3217 2.5041,-1.32295 5.3908,-1.9844 8.6556,-1.9844 3.3876,0 6.2933,0.6727 8.7123,2.0144 2.4285,1.3455 4.3183,3.10815 5.6696,5.2917 1.3467,2.176 2.0222,4.51745 2.0222,7.02045 0,0.43225 -0.029,0.8381 -0.075,1.2177 -0.039,0.37205 -0.075,0.66145 -0.1133,0.87195 h -25.7023 c 0.1984,1.68365 0.7465,3.1419 1.6441,4.3746 0.9072,1.23275 2.0693,2.2024 3.4963,2.9014 1.4363,0.7028 2.9482,1.0523 4.5357,1.0523 1.838,0 3.5577,-0.39085 5.1594,-1.17255 1.6111,-0.78925 2.7072,-1.83405 3.2884,-3.1269 l 5.7452,1.4432 c -0.6945,1.36425 -1.7576,2.59325 -3.1939,3.6831 -1.4268,1.09365 -3.0899,1.9543 -4.9893,2.5857 -1.8899,0.62015 -3.9593,0.9321 -6.1988,0.9321 z m -9.6006,-16.5365 h 19.3334 c -0.1651,-1.64235 -0.6898,-3.07055 -1.5686,-4.28445 -0.8692,-1.21015 -2.0222,-2.16855 -3.4583,-2.8713 -1.427,-0.6991 -2.9766,-1.05235 -4.6493,-1.05235 -1.7149,0 -3.2788,0.35325 -4.6869,1.05235 -1.3983,0.70275 -2.5513,1.66115 -3.4583,2.8713 -0.8978,1.2139 -1.3985,2.6421 -1.512,4.28445 z m 31.5091,15.99525 v -28.06685 h 6.7279 v 28.06685 z m 0,-32.68205 v -6.47925 h 6.7279 v 6.47925 z m 43.4955,32.68205 h -6.6712 v -15.72465 c 0,-2.64585 -0.4914,-4.56255 -1.4742,-5.7577 -0.9733,-1.2026 -2.3954,-1.80395 -4.2711,-1.80395 -1.3134,0 -2.6081,0.29685 -3.8931,0.88695 -1.2851,0.5938 -2.4286,1.3755 -3.4207,2.34515 -0.9969,0.9621 -1.7388,2.08585 -2.2301,3.36745 v 16.68675 h -6.7281 v -28.06685 h 6.1233 v 5.5923 c 0.8031,-1.2515 1.8616,-2.3226 3.1751,-3.2171 1.3087,-0.90195 2.7969,-1.601 4.46,-2.1046 1.6727,-0.49985 3.4491,-0.75165 5.3295,-0.75165 1.9135,0 3.5009,0.30815 4.7626,0.917 1.2708,0.6126 2.2537,1.4432 2.9481,2.4955 0.6899,1.0523 1.1764,2.27 1.4552,3.65305 0.2882,1.37555 0.4347,2.82625 0.4347,4.35965 z m 22.3384,0.54125 c -2.5325,0 -4.8004,-0.38715 -6.8037,-1.1576 -1.9937,-0.77045 -3.7229,-1.8228 -5.197,-3.15695 -1.4648,-1.3417 -2.5892,-2.87885 -3.3829,-4.61515 -0.7937,-1.74385 -1.1906,-3.5779 -1.1906,-5.50215 0,-2.6834 0.6897,-5.1338 2.0788,-7.3512 1.3843,-2.22495 3.3308,-3.99885 5.8397,-5.3217 2.504,-1.32295 5.391,-1.9844 8.6557,-1.9844 3.3877,0 6.2932,0.6727 8.7124,2.0144 2.4284,1.3455 4.3183,3.10815 5.6696,5.2917 1.3465,2.176 2.0221,4.51745 2.0221,7.02045 0,0.43225 -0.029,0.8381 -0.075,1.2177 -0.038,0.37205 -0.075,0.66145 -0.1132,0.87195 h -25.7025 c 0.1985,1.68365 0.7465,3.1419 1.6443,4.3746 0.907,1.23275 2.0694,2.2024 3.4961,2.9014 1.4364,0.7028 2.9484,1.0523 4.5358,1.0523 1.8378,0 3.5578,-0.39085 5.1594,-1.17255 1.6111,-0.78925 2.7072,-1.83405 3.2884,-3.1269 l 5.7452,1.4432 c -0.6946,1.36425 -1.7575,2.59325 -3.1939,3.6831 -1.4269,1.09365 -3.09,1.9543 -4.9893,2.5857 -1.8898,0.62015 -3.9592,0.9321 -6.1987,0.9321 z m -9.6005,-16.5365 h 19.3334 c -0.1651,-1.64235 -0.6899,-3.07055 -1.5686,-4.28445 -0.8694,-1.21015 -2.0222,-2.16855 -3.4585,-2.8713 -1.4268,-0.6991 -2.9766,-1.05235 -4.6491,-1.05235 -1.7152,0 -3.279,0.35325 -4.6869,1.05235 -1.3986,0.70275 -2.5513,1.66115 -3.4585,2.8713 -0.8976,1.2139 -1.3986,2.6421 -1.5118,4.28445 z m 47.4737,15.99525 v -38.094 h 18.2373 c 1.9513,0 3.7419,0.36085 5.3674,1.08245 1.6346,0.71405 3.0662,1.66115 4.2898,2.84125 1.2332,1.17255 2.1734,2.50675 2.8161,3.9988 0.6518,1.48455 0.9826,2.97285 0.9826,4.46485 0,2.11595 -0.5433,4.11905 -1.6253,6.0133 -1.0725,1.89415 -2.5891,3.44255 -4.5546,4.6452 -1.9561,1.19515 -4.2616,1.78895 -6.917,1.78895 h -11.6793 v 13.2592 z m 6.917,-18.5659 h 11.2637 c 1.2566,0 2.3811,-0.3082 3.3638,-0.93205 0.9828,-0.6314 1.7578,-1.4883 2.3247,-2.57065 0.5668,-1.08995 0.8504,-2.3189 0.8504,-3.68315 0,-1.39055 -0.3308,-2.61575 -0.9827,-3.6681 -0.6426,-1.0598 -1.4883,-1.88665 -2.5324,-2.48045 -1.0489,-0.59005 -2.1545,-0.88695 -3.3262,-0.88695 h -10.9613 z m 48.2674,-4.40475 c -2.5703,0.0415 -4.8664,0.5638 -6.8791,1.5635 -2.0174,1.00345 -3.4537,2.41655 -4.3089,4.2393 v 17.16785 h -6.7281 v -28.06685 h 6.1799 v 6.22375 c 1.134,-1.89425 2.594,-3.42005 4.3845,-4.58515 1.8002,-1.16125 3.6853,-1.7927 5.6508,-1.89415 0.4395,0 0.7937,0 1.0583,0 0.2646,0 0.4773,0.015 0.6426,0.045 z m 18.7997,23.5119 c -2.5325,0 -4.8004,-0.38715 -6.8037,-1.1576 -1.9937,-0.77045 -3.7135,-1.834 -5.1592,-3.18705 -1.4506,-1.36045 -2.5655,-2.90885 -3.3453,-4.64525 -0.7701,-1.7325 -1.1527,-3.56655 -1.1527,-5.5021 0,-2.0032 0.3826,-3.87105 1.1527,-5.60735 0.7797,-1.73255 1.8947,-3.2772 3.3453,-4.6302 1.4457,-1.3605 3.1797,-2.42785 5.197,-3.20205 2.0128,-0.77045 4.2713,-1.15755 6.7659,-1.15755 2.5183,0 4.7672,0.3871 6.7469,1.15755 1.9749,0.7742 3.7041,1.84155 5.1782,3.20205 1.474,1.353 2.5938,2.89765 3.3639,4.6302 0.7797,1.7363 1.1717,3.60415 1.1717,5.60735 0,1.93555 -0.392,3.7696 -1.1717,5.5021 -0.7701,1.7364 -1.8803,3.2848 -3.3262,4.64525 -1.4504,1.35305 -3.1892,2.4166 -5.2159,3.18705 -2.0175,0.77045 -4.2664,1.1576 -6.7469,1.1576 z m -9.5439,-14.5521 c 0,1.834 0.4253,3.46885 1.285,4.90075 0.8552,1.42445 1.9939,2.5482 3.4207,3.36745 1.4221,0.8231 3.0096,1.23275 4.7626,1.23275 1.8378,0 3.4679,-0.40965 4.8948,-1.23275 1.4361,-0.81925 2.5795,-1.9618 3.4394,-3.42755 0.8552,-1.47325 1.2852,-3.08555 1.2852,-4.84065 0,-1.78145 -0.43,-3.3975 -1.2852,-4.84065 -0.8599,-1.4507 -2.0127,-2.5895 -3.4584,-3.41255 -1.4506,-0.81935 -3.0523,-1.2327 -4.8002,-1.2327 -1.805,0 -3.4161,0.43215 -4.8382,1.2928 -1.4268,0.85315 -2.5655,1.9957 -3.4207,3.4276 -0.8597,1.43565 -1.285,3.02165 -1.285,4.7655 z m 28.6316,24.26345 c -1.4364,0 -2.8207,-0.19165 -4.1578,-0.5712 -1.3465,-0.37215 -2.5325,-0.9885 -3.5529,-1.84915 l 2.986,-3.9687 c 0.4913,0.4284 1.0961,0.7404 1.8144,0.932 0.7086,0.19925 1.4125,0.3007 2.1166,0.3007 0.8031,0 1.5544,-0.1804 2.2489,-0.5412 0.6898,-0.35325 1.238,-0.83435 1.6442,-1.4432 0.4157,-0.61255 0.6237,-1.3079 0.6237,-2.0896 v -29.0891 h 6.728 v 28.6532 c 0,1.86405 -0.4915,3.52525 -1.4742,4.991 -0.9732,1.4732 -2.23,2.61945 -3.7797,3.44255 -1.5498,0.81935 -3.2837,1.2327 -5.1972,1.2327 z m 3.7231,-42.93465 v -6.47925 h 6.728 v 6.47925 z m 29.312,33.2233 c -2.5325,0 -4.8004,-0.38715 -6.8035,-1.1576 -1.9939,-0.77045 -3.7231,-1.8228 -5.1972,-3.15695 -1.4646,-1.3417 -2.5892,-2.87885 -3.3829,-4.61515 -0.7937,-1.74385 -1.1906,-3.5779 -1.1906,-5.50215 0,-2.6834 0.6897,-5.1338 2.0788,-7.3512 1.3843,-2.22495 3.331,-3.99885 5.8397,-5.3217 2.504,-1.32295 5.391,-1.9844 8.6557,-1.9844 3.3876,0 6.2932,0.6727 8.7124,2.0144 2.4284,1.3455 4.3183,3.10815 5.6696,5.2917 1.3465,2.176 2.0221,4.51745 2.0221,7.02045 0,0.43225 -0.029,0.8381 -0.075,1.2177 -0.038,0.37205 -0.075,0.66145 -0.1133,0.87195 h -25.7025 c 0.1986,1.68365 0.7465,3.1419 1.6443,4.3746 0.907,1.23275 2.0694,2.2024 3.4964,2.9014 1.4361,0.7028 2.9481,1.0523 4.5356,1.0523 1.8378,0 3.5577,-0.39085 5.1594,-1.17255 1.6111,-0.78925 2.7072,-1.83405 3.2884,-3.1269 l 5.7452,1.4432 c -0.6945,1.36425 -1.7576,2.59325 -3.1939,3.6831 -1.427,1.09365 -3.0901,1.9543 -4.9893,2.5857 -1.8899,0.62015 -3.9593,0.9321 -6.1988,0.9321 z m -9.6006,-16.5365 h 19.3335 c -0.1651,-1.64235 -0.6899,-3.07055 -1.5687,-4.28445 -0.8693,-1.21015 -2.0221,-2.16855 -3.4584,-2.8713 -1.4268,-0.6991 -2.9766,-1.05235 -4.6491,-1.05235 -1.715,0 -3.279,0.35325 -4.6869,1.05235 -1.3986,0.70275 -2.5513,1.66115 -3.4585,2.8713 -0.8976,1.2139 -1.3986,2.6421 -1.5119,4.28445 z m 53.7718,15.99525 -10.2809,-12.8834 -5.2539,4.3596 v 8.5238 h -6.728 v -39.1613 h 6.728 v 24.66935 l 14.7979,-13.5148 h 7.2382 l -12.3788,11.75595 13.0969,16.2508 z m 29.0711,-1.44315 c -0.5292,0.21045 -1.2473,0.4735 -2.1545,0.7817 -0.8976,0.30065 -1.871,0.55625 -2.9293,0.7667 -1.0583,0.218 -2.1638,0.33075 -3.3072,0.33075 -1.3891,0 -2.6742,-0.2255 -3.8554,-0.6765 -1.186,-0.45105 -2.1356,-1.135 -2.8537,-2.05955 -0.7088,-0.93205 -1.0585,-2.1347 -1.0585,-3.60795 v -17.58875 h -4.2898 v -4.5701 h 4.2898 v -9.2153 h 6.7281 v 9.2153 h 6.9736 v 4.5701 h -6.9736 v 15.66455 c 0.085,0.9621 0.4441,1.6799 1.0773,2.14965 0.6282,0.4623 1.4174,0.69155 2.3622,0.69155 0.9308,0 1.8332,-0.1503 2.7026,-0.45095 0.8788,-0.3082 1.4836,-0.5337 1.8142,-0.67655 z m 18.7192,1.9844 c -2.5325,0 -4.8002,-0.38715 -6.8035,-1.1576 -1.9937,-0.77045 -3.7231,-1.8228 -5.1973,-3.15695 -1.4645,-1.3417 -2.5891,-2.87885 -3.3828,-4.61515 -0.7937,-1.74385 -1.1906,-3.5779 -1.1906,-5.50215 0,-2.6834 0.6898,-5.1338 2.0788,-7.3512 1.3845,-2.22495 3.331,-3.99885 5.8398,-5.3217 2.5041,-1.32295 5.3908,-1.9844 8.6556,-1.9844 3.3876,0 6.2934,0.6727 8.7124,2.0144 2.4284,1.3455 4.3184,3.10815 5.6696,5.2917 1.3466,2.176 2.0223,4.51745 2.0223,7.02045 0,0.43225 -0.029,0.8381 -0.075,1.2177 -0.038,0.37205 -0.075,0.66145 -0.1133,0.87195 h -25.7022 c 0.1983,1.68365 0.7465,3.1419 1.6441,4.3746 0.9072,1.23275 2.0693,2.2024 3.4963,2.9014 1.4363,0.7028 2.9481,1.0523 4.5356,1.0523 1.838,0 3.5577,-0.39085 5.1594,-1.17255 1.6113,-0.78925 2.7072,-1.83405 3.2884,-3.1269 l 5.7452,1.4432 c -0.6945,1.36425 -1.7576,2.59325 -3.1937,3.6831 -1.427,1.09365 -3.0901,1.9543 -4.9893,2.5857 -1.8899,0.62015 -3.9595,0.9321 -6.1989,0.9321 z m -9.6006,-16.5365 h 19.3335 c -0.1652,-1.64235 -0.6897,-3.07055 -1.5685,-4.28445 -0.8694,-1.21015 -2.0223,-2.16855 -3.4585,-2.8713 -1.4269,-0.6991 -2.9766,-1.05235 -4.6491,-1.05235 -1.7151,0 -3.2789,0.35325 -4.6869,1.05235 -1.3985,0.70275 -2.5515,1.66115 -3.4585,2.8713 -0.8978,1.2139 -1.3985,2.6421 -1.512,4.28445 z m -565.4236,73.39934 v -28.06694 h 6.728 v 28.06694 z m 0,-32.68209 v -6.47925 h 6.728 v 6.47925 z m 63.7551,32.68209 h -6.6713 v -15.72469 c 0,-2.60445 -0.5008,-4.5137 -1.493,-5.7276 -0.9969,-1.2215 -2.4332,-1.83405 -4.3089,-1.83405 -1.8804,0 -3.6191,0.61635 -5.2161,1.84905 -1.5875,1.2327 -2.7308,2.8375 -3.4206,4.8106 v 16.62669 h -6.728 v -15.72469 c 0,-2.64585 -0.4819,-4.56255 -1.4363,-5.7577 -0.9591,-1.2026 -2.4002,-1.80395 -4.3279,-1.80395 -1.8284,0 -3.5482,0.60135 -5.1593,1.80395 -1.6159,1.19515 -2.7687,2.7924 -3.4585,4.7956 v 16.68679 h -6.728 v -28.06694 h 6.1232 v 5.59235 c 1.2568,-1.93175 2.9152,-3.42755 4.9704,-4.4799 2.0647,-1.0598 4.4223,-1.59345 7.0682,-1.59345 2.6553,0 4.7483,0.60135 6.2744,1.80395 1.5355,1.19515 2.5041,2.721 2.9104,4.5851 1.3465,-2.07455 3.0285,-3.65675 5.046,-4.75045 2.0269,-1.0899 4.3467,-1.6386 6.9547,-1.6386 1.8757,0 3.4302,0.30815 4.668,0.917 1.2473,0.6126 2.2301,1.44315 2.9482,2.4955 0.7182,1.0523 1.2285,2.27 1.5308,3.65305 0.3024,1.37555 0.4536,2.8262 0.4536,4.3596 z m 60.2636,0 v -27.14989 l -12.7945,20.61045 h -4.0255 l -12.7945,-20.61045 v 27.14989 h -6.917 v -38.09404 h 7.3517 l 14.382,23.22625 14.3631,-23.22625 h 7.3517 v 38.09404 z m 13.1581,-8.20809 c 0,-1.79275 0.5766,-3.35615 1.7388,-4.6904 1.1576,-1.3417 2.764,-2.37895 4.8192,-3.11185 2.0648,-0.74035 4.4271,-1.11245 7.0871,-1.11245 1.4221,0 2.8631,0.10145 4.3279,0.30065 1.4739,0.203 2.8016,0.4773 3.9876,0.82685 v -1.75885 c 0,-1.97315 -0.6756,-3.51025 -2.0223,-4.6152 -1.3511,-1.11245 -3.2836,-1.6687 -5.8019,-1.6687 -1.8048,0 -3.4963,0.2706 -5.0838,0.8118 -1.5874,0.53365 -3.2835,1.3342 -5.0837,2.4053 l -2.1923,-4.0138 c 2.027,-1.2215 4.1247,-2.14225 6.2934,-2.7661 2.1638,-0.63145 4.4269,-0.9471 6.7845,-0.9471 4.2806,0 7.6447,0.9922 10.0921,2.9765 2.4568,1.9844 3.6852,4.8031 3.6852,8.44865 v 10.4631 c 0,0.68399 0.1364,1.16879 0.4157,1.45819 0.2882,0.2819 0.7607,0.4435 1.4176,0.4811 v 4.7204 c -0.6048,0.109 -1.1482,0.1804 -1.6253,0.2105 -0.4679,0.038 -0.8648,0.075 -1.1908,0.1052 -1.4646,-0.031 -2.5655,-0.3495 -3.3072,-0.9622 -0.7323,-0.6088 -1.1624,-1.3266 -1.2851,-2.1497 l -0.1708,-1.6085 c -1.3513,1.5747 -3.1183,2.7924 -5.3106,3.653 -2.1828,0.8607 -4.3657,1.2929 -6.5579,1.2929 -2.1308,0 -4.0349,-0.3871 -5.7074,-1.1576 -1.6631,-0.7704 -2.9672,-1.819 -3.9122,-3.1419 -0.9354,-1.3229 -1.3985,-2.80374 -1.3985,-4.44979 z m 20.373,1.7739 c 0.4537,-0.4999 0.8315,-0.9809 1.1339,-1.4432 0.3024,-0.4698 0.4537,-0.902 0.4537,-1.29285 v -3.172 c -1.1481,-0.39085 -2.3529,-0.68025 -3.6098,-0.87195 -1.2614,-0.19915 -2.485,-0.30065 -3.6662,-0.30065 -2.4947,0 -4.5122,0.4322 -6.0476,1.29285 -1.5262,0.85315 -2.2869,2.0295 -2.2869,3.5328 0,0.82305 0.2505,1.60105 0.756,2.33015 0.515,0.73284 1.2521,1.34544 2.2111,1.83404 0.9687,0.4811 2.145,0.7216 3.5342,0.7216 1.4976,0 2.9197,-0.2593 4.271,-0.7817 1.3465,-0.5187 2.4286,-1.135 3.2506,-1.84909 z m 34.0226,4.99099 c -0.5292,0.2105 -1.2473,0.4735 -2.1545,0.7817 -0.8976,0.3007 -1.871,0.5563 -2.9293,0.7667 -1.0583,0.218 -2.1639,0.3308 -3.3072,0.3308 -1.3891,0 -2.6742,-0.2255 -3.8554,-0.6765 -1.186,-0.4511 -2.1356,-1.1351 -2.8537,-2.0596 -0.7088,-0.932 -1.0583,-2.1347 -1.0583,-3.608 v -17.58874 h -4.29 v -4.5701 h 4.29 v -9.2153 h 6.7279 v 9.2153 h 6.9736 v 4.5701 h -6.9736 v 15.66455 c 0.085,0.9621 0.4441,1.67999 1.0773,2.14969 0.6282,0.4623 1.4173,0.6916 2.3622,0.6916 0.9308,0 1.8332,-0.1504 2.7026,-0.451 0.8788,-0.3082 1.4836,-0.5337 1.8144,-0.6765 z m 22.3904,0 c -0.5291,0.2105 -1.2474,0.4735 -2.1546,0.7817 -0.8976,0.3007 -1.8709,0.5563 -2.9292,0.7667 -1.0585,0.218 -2.164,0.3308 -3.3073,0.3308 -1.3892,0 -2.6742,-0.2255 -3.8554,-0.6765 -1.1858,-0.4511 -2.1356,-1.1351 -2.8537,-2.0596 -0.7087,-0.932 -1.0583,-2.1347 -1.0583,-3.608 v -17.58874 h -4.2901 v -4.5701 h 4.2901 v -9.2153 h 6.7278 v 9.2153 h 6.9739 v 4.5701 h -6.9739 v 15.66455 c 0.084,0.9621 0.4444,1.67999 1.0774,2.14969 0.6284,0.4623 1.4173,0.6916 2.3623,0.6916 0.9308,0 1.8333,-0.1504 2.7026,-0.451 0.8788,-0.3082 1.4834,-0.5337 1.8142,-0.6765 z m 18.7239,1.9844 c -2.5323,0 -4.8002,-0.3871 -6.8036,-1.1576 -1.9937,-0.7704 -3.723,-1.8228 -5.1972,-3.1569 -1.4646,-1.3417 -2.5891,-2.87889 -3.3829,-4.61519 -0.7937,-1.7439 -1.1905,-3.5779 -1.1905,-5.50215 0,-2.6834 0.6898,-5.1338 2.0789,-7.3512 1.3843,-2.22495 3.3308,-3.99885 5.8397,-5.3217 2.5041,-1.32295 5.3908,-1.9844 8.6556,-1.9844 3.3876,0 6.2933,0.6727 8.7123,2.0144 2.4287,1.34545 4.3185,3.10815 5.6698,5.2917 1.3464,2.176 2.0221,4.51745 2.0221,7.02045 0,0.43225 -0.029,0.8381 -0.075,1.2177 -0.039,0.37205 -0.075,0.66145 -0.1133,0.8719 h -25.7023 c 0.1983,1.6837 0.7465,3.14195 1.6441,4.37465 0.9072,1.2327 2.0694,2.20244 3.4963,2.90144 1.4364,0.7028 2.9482,1.0523 4.5358,1.0523 1.8379,0 3.5576,-0.3909 5.1593,-1.1726 1.611,-0.7892 2.7074,-1.83404 3.2884,-3.12689 l 5.7452,1.4432 c -0.6945,1.36429 -1.7576,2.59319 -3.1939,3.68309 -1.4268,1.0937 -3.0899,1.9543 -4.9892,2.5857 -1.89,0.6202 -3.9594,0.9321 -6.1989,0.9321 z m -9.6006,-16.53649 h 19.3334 c -0.1651,-1.64235 -0.6896,-3.07055 -1.5684,-4.28445 -0.8694,-1.21015 -2.0224,-2.16855 -3.4585,-2.87135 -1.427,-0.69905 -2.9766,-1.0523 -4.6491,-1.0523 -1.7151,0 -3.279,0.35325 -4.6869,1.0523 -1.3985,0.7028 -2.5515,1.6612 -3.4585,2.87135 -0.8978,1.2139 -1.3985,2.6421 -1.512,4.28445 z m 49.4252,-6.9754 c -2.5703,0.0415 -4.8664,0.5638 -6.8792,1.5635 -2.0175,1.0034 -3.4539,2.41655 -4.309,4.2393 v 17.16789 h -6.7279 v -28.06694 h 6.1799 v 6.22375 c 1.134,-1.89415 2.5937,-3.42005 4.3845,-4.5851 1.8,-1.16135 3.6853,-1.7927 5.6508,-1.89415 0.4393,0 0.7937,0 1.0583,0 0.2646,0 0.4771,0.015 0.6426,0.0455 z m 53.9182,22.97069 h -6.6712 v -15.72469 c 0,-2.60445 -0.501,-4.5137 -1.493,-5.7276 -0.9971,-1.2215 -2.4332,-1.83405 -4.3091,-1.83405 -1.8805,0 -3.619,0.61635 -5.216,1.84905 -1.5875,1.2327 -2.7309,2.8375 -3.4208,4.8106 v 16.62669 h -6.7278 v -15.72469 c 0,-2.64585 -0.4819,-4.56255 -1.4363,-5.7577 -0.9591,-1.2026 -2.4002,-1.80395 -4.328,-1.80395 -1.8283,0 -3.5481,0.60135 -5.1594,1.80395 -1.6156,1.19515 -2.7686,2.7924 -3.4584,4.7956 v 16.68679 h -6.7279 v -28.06694 h 6.1233 v 5.59235 c 1.2566,-1.93175 2.9151,-3.42755 4.9703,-4.4799 2.0647,-1.0598 4.4223,-1.59345 7.0681,-1.59345 2.6553,0 4.7483,0.60135 6.2745,1.80395 1.5354,1.19515 2.5041,2.721 2.9103,4.5851 1.3466,-2.07455 3.0287,-3.65675 5.046,-4.75045 2.0269,-1.0899 4.3467,-1.6386 6.9548,-1.6386 1.8756,0 3.4301,0.30815 4.6679,0.917 1.2474,0.6126 2.2301,1.44315 2.9483,2.4955 0.7181,1.0523 1.2285,2.27 1.5309,3.65305 0.3022,1.37555 0.4535,2.8262 0.4535,4.3596 z m 22.1541,0.5412 c -2.5325,0 -4.8004,-0.3871 -6.8035,-1.1576 -1.9939,-0.7704 -3.7137,-1.834 -5.1595,-3.187 -1.4505,-1.3605 -2.5654,-2.90889 -3.345,-4.64529 -0.7701,-1.7325 -1.153,-3.56655 -1.153,-5.5021 0,-2.0032 0.3829,-3.87105 1.153,-5.60735 0.7796,-1.7326 1.8945,-3.2772 3.345,-4.63025 1.4458,-1.36045 3.1797,-2.4278 5.1971,-3.202 2.0128,-0.7705 4.2712,-1.15755 6.7659,-1.15755 2.5183,0 4.7671,0.38705 6.7469,1.15755 1.9749,0.7742 3.7041,1.84155 5.1782,3.202 1.4742,1.35305 2.594,2.89765 3.3641,4.63025 0.7795,1.7363 1.1716,3.60415 1.1716,5.60735 0,1.93555 -0.3921,3.7696 -1.1716,5.5021 -0.7701,1.7364 -1.8805,3.28479 -3.3262,4.64529 -1.4506,1.353 -3.1892,2.4166 -5.2161,3.187 -2.0175,0.7705 -4.2664,1.1576 -6.7469,1.1576 z m -9.5439,-14.55214 c 0,1.83405 0.4253,3.4689 1.285,4.90085 0.8552,1.4244 1.994,2.54805 3.4207,3.36739 1.4222,0.8231 3.0098,1.2328 4.7625,1.2328 1.838,0 3.4679,-0.4097 4.8949,-1.2328 1.4363,-0.81934 2.5797,-1.96179 3.4395,-3.42754 0.8551,-1.47325 1.2852,-3.08555 1.2852,-4.8407 0,-1.7814 -0.4301,-3.39745 -1.2852,-4.84065 -0.8598,-1.45065 -2.0128,-2.5895 -3.4585,-3.4125 -1.4504,-0.81935 -3.0521,-1.23275 -4.8002,-1.23275 -1.8048,0 -3.4161,0.4322 -4.8382,1.29285 -1.4268,0.85315 -2.5655,1.9957 -3.4207,3.42755 -0.8598,1.4357 -1.285,3.0217 -1.285,4.7655 z m 43.3728,14.55214 c -2.6978,0 -5.2493,-0.3909 -7.6541,-1.1726 -2.4096,-0.7893 -4.4696,-1.9581 -6.1799,-3.5027 l 2.4568,-3.90864 c 1.8756,1.3943 3.7421,2.42034 5.5941,3.08174 1.852,0.6615 3.6947,0.9922 5.5373,0.9922 1.9134,0 3.4491,-0.3081 4.6112,-0.932 1.1718,-0.6314 1.7576,-1.55219 1.7576,-2.76609 0,-0.90205 -0.3212,-1.5635 -0.9638,-1.9844 -0.6331,-0.42845 -1.526,-0.8043 -2.6836,-1.1275 -1.1622,-0.31945 -2.5325,-0.68025 -4.12,-1.0824 -2.2583,-0.6013 -4.1717,-1.2327 -5.7452,-1.89415 -1.5638,-0.66145 -2.7356,-1.47325 -3.5151,-2.43535 -0.7701,-0.9697 -1.1528,-2.2099 -1.1528,-3.7132 0,-1.7927 0.5292,-3.32985 1.5875,-4.6152 1.0583,-1.29285 2.5371,-2.28505 4.4411,-2.97655 1.8995,-0.69905 4.0917,-1.0523 6.5768,-1.0523 2.3293,0 4.4838,0.31565 6.4635,0.9471 1.9749,0.62385 3.7231,1.5935 5.2349,2.9164 l -2.8915,3.8635 c -1.389,-1.10115 -2.8347,-1.9167 -4.3467,-2.4504 -1.5024,-0.5412 -3.1089,-0.8118 -4.8192,-0.8118 -0.9449,0 -1.8805,0.1015 -2.7971,0.3007 -0.907,0.19165 -1.6725,0.5487 -2.2867,1.06735 -0.619,0.5111 -0.926,1.2327 -0.926,2.16475 0,0.793 0.2503,1.41315 0.7559,1.86415 0.515,0.44345 1.2662,0.82305 2.2491,1.14245 0.9826,0.32325 2.1826,0.67655 3.6096,1.0674 2.4947,0.6126 4.6161,1.24025 6.3688,1.8791 1.7482,0.6427 3.1043,1.45825 4.0633,2.45045 0.9544,0.9847 1.4363,2.33015 1.4363,4.0439 0,2.68719 -1.1529,4.80309 -3.4585,6.34399 -2.3056,1.5334 -5.3767,2.3001 -9.2036,2.3001 z m 36.4038,-1.9844 c -0.5292,0.2105 -1.2475,0.4735 -2.1545,0.7817 -0.8978,0.3007 -1.871,0.5563 -2.9293,0.7667 -1.0583,0.218 -2.1639,0.3308 -3.3074,0.3308 -1.3889,0 -2.6742,-0.2255 -3.8552,-0.6765 -1.186,-0.4511 -2.1356,-1.1351 -2.8539,-2.0596 -0.7086,-0.932 -1.0583,-2.1347 -1.0583,-3.608 v -17.58874 h -4.29 v -4.5701 h 4.29 v -9.2153 h 6.7281 v 9.2153 h 6.9736 v 4.5701 h -6.9736 v 15.66455 c 0.084,0.9621 0.4441,1.67999 1.0771,2.14969 0.6284,0.4623 1.4176,0.6916 2.3624,0.6916 0.9308,0 1.8332,-0.1504 2.7026,-0.451 0.8788,-0.3082 1.4836,-0.5337 1.8142,-0.6765 z m 4.3514,-10.56829 v -5.32175 h 18.2184 v 5.32175 z m 26.9119,12.01149 v -38.03384 h 6.917 v 19.63325 l 20.3727,-19.69345 h 7.5974 l -17.0845,16.8522 18.0672,21.24184 h -7.7862 l -14.6843,-17.43849 -6.4823,5.90805 v 11.53044 z m 37.0889,-8.20809 c 0,-1.79275 0.5763,-3.35615 1.7387,-4.6904 1.1576,-1.3417 2.7638,-2.37895 4.8192,-3.11185 2.0646,-0.74035 4.4269,-1.11245 7.0869,-1.11245 1.4222,0 2.8633,0.10145 4.3279,0.30065 1.4742,0.203 2.8018,0.4773 3.9876,0.82685 v -1.75885 c 0,-1.97315 -0.6756,-3.51025 -2.0221,-4.6152 -1.3513,-1.11245 -3.2836,-1.6687 -5.8019,-1.6687 -1.805,0 -3.4963,0.2706 -5.0837,0.8118 -1.5877,0.53365 -3.2838,1.3342 -5.0839,2.4053 l -2.1922,-4.0138 c 2.0267,-1.2215 4.1245,-2.14225 6.2932,-2.7661 2.164,-0.63145 4.4271,-0.9471 6.7847,-0.9471 4.2806,0 7.6444,0.9922 10.0919,2.9765 2.4568,1.9844 3.6852,4.8031 3.6852,8.44865 v 10.4631 c 0,0.68399 0.1363,1.16879 0.4159,1.45819 0.2882,0.2819 0.7607,0.4435 1.4173,0.4811 v 4.7204 c -0.6048,0.109 -1.1479,0.1804 -1.6252,0.2105 -0.4678,0.038 -0.8646,0.075 -1.1906,0.1052 -1.4646,-0.031 -2.5655,-0.3495 -3.3072,-0.9622 -0.7325,-0.6088 -1.1624,-1.3266 -1.2853,-2.1497 l -0.1709,-1.6085 c -1.3513,1.5747 -3.1182,2.7924 -5.3105,3.653 -2.1828,0.8607 -4.3657,1.2929 -6.5578,1.2929 -2.131,0 -4.035,-0.3871 -5.7075,-1.1576 -1.6631,-0.7704 -2.967,-1.819 -3.912,-3.1419 -0.9355,-1.3229 -1.3986,-2.80374 -1.3986,-4.44979 z m 20.3729,1.7739 c 0.4535,-0.4999 0.8315,-0.9809 1.1339,-1.4432 0.3024,-0.4698 0.4535,-0.902 0.4535,-1.29285 v -3.172 c -1.1481,-0.39085 -2.3529,-0.68025 -3.6096,-0.87195 -1.2614,-0.19915 -2.4852,-0.30065 -3.6664,-0.30065 -2.4947,0 -4.512,0.4322 -6.0476,1.29285 -1.526,0.85315 -2.2867,2.0295 -2.2867,3.5328 0,0.82305 0.2503,1.60105 0.7559,2.33015 0.5149,0.73284 1.252,1.34544 2.2112,1.83404 0.9685,0.4811 2.1451,0.7216 3.534,0.7216 1.4978,0 2.9199,-0.2593 4.2712,-0.7817 1.3465,-0.5187 2.4284,-1.135 3.2506,-1.84909 z m 45.1492,6.43419 h -6.6713 v -15.72469 c 0,-2.64585 -0.4913,-4.56255 -1.4741,-5.7577 -0.9733,-1.2026 -2.3954,-1.80395 -4.2711,-1.80395 -1.3135,0 -2.6081,0.2969 -3.8932,0.88695 -1.285,0.59375 -2.4284,1.37555 -3.4206,2.34515 -0.9969,0.9621 -1.7388,2.08585 -2.2301,3.36745 v 16.68679 h -6.7279 v -28.06694 h 6.1231 v 5.59235 c 0.8033,-1.2515 1.8616,-2.3226 3.1751,-3.2171 1.3087,-0.90195 2.797,-1.601 4.46,-2.10465 1.6727,-0.4998 3.449,-0.7516 5.3295,-0.7516 1.9135,0 3.5011,0.30815 4.7626,0.917 1.2708,0.6126 2.2536,1.44315 2.9481,2.4955 0.6899,1.0523 1.1764,2.27 1.4552,3.65305 0.2882,1.37555 0.4347,2.8262 0.4347,4.3596 z m 5.5136,-8.20809 c 0,-1.79275 0.5766,-3.35615 1.7388,-4.6904 1.1576,-1.3417 2.764,-2.37895 4.8192,-3.11185 2.0648,-0.74035 4.4271,-1.11245 7.0871,-1.11245 1.4221,0 2.8631,0.10145 4.3279,0.30065 1.4739,0.203 2.8016,0.4773 3.9876,0.82685 v -1.75885 c 0,-1.97315 -0.6756,-3.51025 -2.0223,-4.6152 -1.3511,-1.11245 -3.2836,-1.6687 -5.8019,-1.6687 -1.8048,0 -3.4963,0.2706 -5.0838,0.8118 -1.5874,0.53365 -3.2835,1.3342 -5.0837,2.4053 l -2.1923,-4.0138 c 2.027,-1.2215 4.1247,-2.14225 6.2934,-2.7661 2.1638,-0.63145 4.4269,-0.9471 6.7845,-0.9471 4.2806,0 7.6447,0.9922 10.0921,2.9765 2.4568,1.9844 3.6852,4.8031 3.6852,8.44865 v 10.4631 c 0,0.68399 0.1364,1.16879 0.4157,1.45819 0.2882,0.2819 0.7607,0.4435 1.4176,0.4811 v 4.7204 c -0.6048,0.109 -1.1483,0.1804 -1.6253,0.2105 -0.4679,0.038 -0.8648,0.075 -1.1908,0.1052 -1.4646,-0.031 -2.5655,-0.3495 -3.3072,-0.9622 -0.7323,-0.6088 -1.1624,-1.3266 -1.2851,-2.1497 l -0.1708,-1.6085 c -1.3513,1.5747 -3.1183,2.7924 -5.3106,3.653 -2.1828,0.8607 -4.3657,1.2929 -6.5579,1.2929 -2.1308,0 -4.0349,-0.3871 -5.7074,-1.1576 -1.6631,-0.7704 -2.9672,-1.819 -3.9122,-3.1419 -0.9354,-1.3229 -1.3985,-2.80374 -1.3985,-4.44979 z m 20.373,1.7739 c 0.4537,-0.4999 0.8315,-0.9809 1.1339,-1.4432 0.3024,-0.4698 0.4537,-0.902 0.4537,-1.29285 v -3.172 c -1.1482,-0.39085 -2.353,-0.68025 -3.6098,-0.87195 -1.2614,-0.19915 -2.485,-0.30065 -3.6662,-0.30065 -2.4947,0 -4.5122,0.4322 -6.0476,1.29285 -1.5262,0.85315 -2.287,2.0295 -2.287,3.5328 0,0.82305 0.2506,1.60105 0.7561,2.33015 0.515,0.73284 1.2521,1.34544 2.2111,1.83404 0.9687,0.4811 2.145,0.7216 3.5342,0.7216 1.4976,0 2.9197,-0.2593 4.271,-0.7817 1.3465,-0.5187 2.4286,-1.135 3.2506,-1.84909 z m 16.5175,-32.72715 h 6.7281 v 31.1186 c 0,1.3943 0.2456,2.29634 0.7371,2.70594 0.4913,0.4134 1.1007,0.6164 1.833,0.6164 0.7797,0 1.5404,-0.09 2.2869,-0.2706 0.7559,-0.1804 1.3795,-0.3382 1.8709,-0.4811 l 0.9828,4.6152 c -0.9828,0.3608 -2.1498,0.6689 -3.4963,0.917 -1.3371,0.248 -2.5325,0.3759 -3.5908,0.3759 -2.3339,0 -4.1387,-0.56 -5.424,-1.6838 -1.285,-1.1312 -1.9277,-2.6984 -1.9277,-4.7054 z m 0,0"
       style="fill:#ffffff;fill-opacity:1;fill-rule:nonzero;stroke:none;stroke-width:1.51009"
       aria-label="Poste deine Projekte&#10;im Mattermost-Kanal" />
    <path
       id="path21"
       d="m 1116.3486,1060.7716 c 0,-0.5111 0.1984,-1.2966 0.6047,-2.3602 0.4016,-1.0711 1.082,-2.2023 2.0411,-3.3975 0.9544,-1.2027 2.1923,-2.2324 3.7042,-3.0968 1.5119,-0.872 3.4254,-1.3079 5.7452,-1.3079 2.0883,0 3.9592,0.3458 5.6129,1.0373 1.6631,0.684 3.2601,1.368 4.8003,2.0595 1.5356,0.684 3.175,1.0223 4.9137,1.0223 1.5592,0 2.7876,-0.3007 3.6853,-0.902 0.9071,-0.6088 1.5166,-1.2327 1.8332,-1.8641 0.326,-0.639 0.4913,-1.011 0.4913,-1.1125 l 6.35,-0.09 c 0,0.3119 -0.1889,0.9885 -0.567,2.0295 -0.3779,1.0448 -1.0488,2.1761 -2.0032,3.3975 -0.9591,1.2252 -2.2396,2.2963 -3.8365,3.2171 -1.5875,0.9132 -3.605,1.368 -6.0476,1.368 -2.093,0 -3.9829,-0.3458 -5.6696,-1.0373 -1.6773,-0.6915 -3.2837,-1.368 -4.8192,-2.0294 -1.5403,-0.6615 -3.1467,-0.9922 -4.8193,-0.9922 -1.578,0 -2.7733,0.3231 -3.5907,0.9621 -0.8079,0.6313 -1.3418,1.2928 -1.6064,1.9844 -0.2552,0.6839 -0.378,1.0523 -0.378,1.1124 z m 120.6358,17.3182 h -11.6607 v -22.4445 c 0,-3.1945 -0.6237,-5.5322 -1.8709,-7.0054 -1.2474,-1.4808 -2.9766,-2.2249 -5.1782,-2.2249 -2.32,0 -4.498,0.7779 -6.5392,2.3301 -2.0316,1.5559 -3.4773,3.5478 -4.3467,5.9832 v 23.3615 h -11.755 v -22.4445 c 0,-3.1945 -0.6142,-5.5322 -1.8332,-7.0054 -1.2094,-1.4808 -2.9198,-2.2249 -5.1215,-2.2249 -2.2679,0 -4.4507,0.7667 -6.539,2.3 -2.0789,1.5259 -3.553,3.5291 -4.4223,6.0133 v 23.3615 h -11.585 v -39.9882 h 10.5266 v 7.3963 c 1.7387,-2.5932 4.0727,-4.5888 7.0115,-5.9832 2.934,-1.4018 6.2555,-2.1046 9.9596,-2.1046 3.7799,0 6.7281,0.8193 8.8447,2.4504 2.1165,1.6236 3.4633,3.6343 4.0443,6.0283 1.8616,-2.7548 4.2334,-4.8557 7.1061,-6.2989 2.8725,-1.4507 6.1325,-2.1798 9.7894,-2.1798 2.7829,0 5.0554,0.4472 6.8226,1.3379 1.7763,0.8945 3.1561,2.0896 4.1387,3.593 0.9827,1.4958 1.6632,3.1832 2.0412,5.0662 0.3778,1.8866 0.567,3.7695 0.567,5.6524 z m 7.0445,-11.8311 c 0,-2.5932 0.8221,-4.8595 2.4756,-6.795 1.6631,-1.9318 3.9546,-3.4463 6.8792,-4.54 2.9341,-1.0899 6.35,-1.6386 10.2432,-1.6386 1.8993,0 3.8411,0.1315 5.8209,0.3909 1.9749,0.2518 3.6898,0.6576 5.1404,1.2176 v -2.2248 c 0,-2.4843 -0.8458,-4.4123 -2.5325,-5.7878 -1.6771,-1.3831 -4.1954,-2.0746 -7.5594,-2.0746 -2.5609,0 -4.9705,0.3871 -7.2382,1.1576 -2.2585,0.7629 -4.6303,1.8565 -7.125,3.2772 l -3.6665,-6.6447 c 2.9579,-1.7739 6.0195,-3.0818 9.185,-3.9236 3.1609,-0.8419 6.4823,-1.2628 9.9596,-1.2628 6.5013,0 11.5661,1.4131 15.1947,4.2394 3.6286,2.8262 5.4428,6.9114 5.4428,12.252 v 12.733 c 0,1.0749 0.2125,1.8416 0.6426,2.3001 0.4393,0.451 1.1528,0.7329 2.1357,0.8418 v 8.3134 c -1.0349,0.1503 -1.9751,0.2743 -2.8161,0.3758 -0.8458,0.109 -1.559,0.1353 -2.1354,0.075 -2.32,0 -4.0775,-0.4435 -5.273,-1.3229 -1.1857,-0.8908 -1.8992,-1.9994 -2.1354,-3.3224 l -0.2457,-2.0595 c -2.0412,2.2361 -4.5452,3.965 -7.5028,5.1864 -2.9484,1.2215 -5.9674,1.834 -9.0527,1.834 -3.0144,0 -5.7215,-0.5637 -8.1263,-1.6836 -2.4096,-1.12 -4.2995,-2.6346 -5.6698,-4.5401 -1.3607,-1.9016 -2.0409,-4.0289 -2.0409,-6.374 z m 28.3858,1.9844 c 0.6284,-0.5111 1.1436,-1.0974 1.5499,-1.7589 0.4156,-0.6615 0.6236,-1.2177 0.6236,-1.6687 v -4.0439 c -1.3986,-0.5111 -2.9104,-0.9058 -4.5357,-1.1876 -1.6252,-0.2782 -3.1657,-0.4209 -4.6114,-0.4209 -3.0142,0 -5.4948,0.5712 -7.4461,1.7137 -1.9417,1.1425 -2.9104,2.6571 -2.9104,4.54 0,1.0223 0.3118,2.007 0.945,2.9465 0.6425,0.9433 1.5545,1.695 2.7403,2.255 1.1954,0.5525 2.6647,0.8268 4.4035,0.8268 1.7481,0 3.4631,-0.3044 5.1404,-0.917 1.6867,-0.6088 3.0522,-1.3718 4.1009,-2.285 z m 21.937,-10.1474 c 0,-3.8184 0.8692,-7.2986 2.6079,-10.448 1.7388,-3.157 4.1436,-5.6525 7.2194,-7.4865 3.0711,-1.8341 6.5814,-2.7511 10.5266,-2.7511 3.312,0 6.331,0.7291 9.0526,2.1798 2.7308,1.4432 4.8238,3.2885 6.2744,5.5322 v -22.7451 h 11.755 v 44.2575 c 0,1.0749 0.1983,1.8416 0.6048,2.3001 0.4015,0.451 1.1007,0.7329 2.0978,0.8418 v 8.3134 c -2.0932,0.3608 -3.7515,0.5111 -4.9705,0.451 -2.0931,0.06 -3.8175,-0.3683 -5.1783,-1.2778 -1.3607,-0.9208 -2.1308,-2.1197 -2.3057,-3.593 l -0.1709,-2.5255 c -1.6915,2.4955 -3.9688,4.4047 -6.8415,5.7276 -2.8725,1.3229 -5.8775,1.9843 -9.0146,1.9843 -3.1279,0 -6.0098,-0.5224 -8.6557,-1.5634 -2.6364,-1.041 -4.9279,-2.5143 -6.8792,-4.4197 -1.9419,-1.913 -3.4489,-4.1266 -4.5168,-6.6447 -1.0725,-2.5255 -1.6063,-5.2353 -1.6063,-8.1329 z m 35.7754,5.2616 v -9.4558 c -0.5812,-1.4808 -1.512,-2.8037 -2.7971,-3.9688 -1.2757,-1.1726 -2.6978,-2.0971 -4.271,-2.7811 -1.5641,-0.6915 -3.1279,-1.0373 -4.687,-1.0373 -1.8049,0 -3.4302,0.3307 -4.876,0.9922 -1.4504,0.6614 -2.7166,1.5559 -3.7985,2.6759 -1.0725,1.1124 -1.8853,2.3978 -2.438,3.8485 -0.5434,1.4544 -0.8126,2.9915 -0.8126,4.6151 0,1.6838 0.3118,3.2547 0.9449,4.7054 0.6426,1.4432 1.512,2.7135 2.6081,3.8034 1.1055,1.0936 2.4426,1.9355 4.0064,2.5255 1.5733,0.5826 3.26,0.872 5.065,0.872 1.1576,0 2.2867,-0.1654 3.3829,-0.4961 1.1055,-0.3308 2.1638,-0.8005 3.1749,-1.4131 1.0204,-0.6089 1.9324,-1.3229 2.7404,-2.1348 0.8173,-0.8117 1.4031,-1.7288 1.7576,-2.751 z m 44.2892,15.4991 c -3.6569,0 -6.9641,-0.5487 -9.9218,-1.6385 -2.9624,-1.1012 -5.4901,-2.6046 -7.5785,-4.51 -2.0787,-1.9017 -3.6758,-4.0777 -4.7813,-6.5244 -1.0962,-2.4428 -1.6441,-5.0661 -1.6441,-7.8623 0,-3.7658 0.9684,-7.2385 2.9103,-10.418 1.9371,-3.1757 4.6915,-5.7163 8.2587,-7.6218 3.5766,-1.9129 7.862,-2.8713 12.8513,-2.8713 4.9231,0 9.1565,0.9584 12.6999,2.8713 3.5389,1.9055 6.2649,4.4123 8.1832,7.5166 1.9135,3.0968 2.8727,6.4793 2.8727,10.1474 0,0.6614 -0.032,1.2853 -0.094,1.8641 -0.052,0.5825 -0.1094,1.0786 -0.1709,1.4882 H 1362.85 c 0.1613,2.1348 0.8125,3.9538 1.9465,5.4571 1.1339,1.5033 2.5797,2.6609 4.3467,3.4727 1.7766,0.8117 3.6522,1.2176 5.6319,1.2176 2.367,0 4.5829,-0.496 6.6522,-1.4882 2.0648,-0.9922 3.4681,-2.3227 4.2146,-3.9988 l 9.9218,2.4353 c -1.0347,2.037 -2.5703,3.8447 -4.6112,5.4269 -2.0318,1.5748 -4.4366,2.8075 -7.2194,3.6982 -2.7877,0.8907 -5.8917,1.3379 -9.3172,1.3379 z m -11.9252,-23.9628 h 23.8505 c -0.227,-2.0332 -0.8836,-3.8034 -1.9655,-5.3067 -1.0725,-1.5033 -2.4759,-2.6758 -4.2144,-3.5177 -1.7388,-0.8419 -3.6807,-1.2628 -5.8209,-1.2628 -2.0932,0 -3.9972,0.4209 -5.7074,1.2628 -1.7151,0.8419 -3.1088,2.0144 -4.1767,3.5177 -1.0726,1.5033 -1.7292,3.2735 -1.9656,5.3067 z m 42.5743,6.8702 v -9.2454 h 26.4584 v 9.2454 z m 33.5879,4.4949 c 0,-2.5932 0.8222,-4.8595 2.4759,-6.795 1.6631,-1.9318 3.9544,-3.4463 6.8791,-4.54 2.934,-1.0899 6.35,-1.6386 10.243,-1.6386 1.8995,0 3.8414,0.1315 5.8209,0.3909 1.9749,0.2518 3.6901,0.6576 5.1404,1.2176 v -2.2248 c 0,-2.4843 -0.8455,-4.4123 -2.5323,-5.7878 -1.6773,-1.3831 -4.1956,-2.0746 -7.5596,-2.0746 -2.5607,0 -4.9703,0.3871 -7.2382,1.1576 -2.2583,0.7629 -4.6303,1.8565 -7.1249,3.2772 l -3.6663,-6.6447 c 2.9576,-1.7739 6.0192,-3.0818 9.1847,-3.9236 3.1609,-0.8419 6.4823,-1.2628 9.9599,-1.2628 6.5011,0 11.566,1.4131 15.1944,4.2394 3.6287,2.8262 5.4431,6.9114 5.4431,12.252 v 12.733 c 0,1.0749 0.2125,1.8416 0.6424,2.3001 0.4395,0.451 1.1529,0.7329 2.1356,0.8418 v 8.3134 c -1.0347,0.1503 -1.9749,0.2743 -2.8159,0.3758 -0.8457,0.109 -1.5592,0.1353 -2.1356,0.075 -2.3198,0 -4.0775,-0.4435 -5.2727,-1.3229 -1.186,-0.8908 -1.8994,-1.9994 -2.1356,-3.3224 l -0.2458,-2.0595 c -2.041,2.2361 -4.545,3.965 -7.5028,5.1864 -2.9482,1.2215 -5.9674,1.834 -9.0524,1.834 -3.0144,0 -5.7216,-0.5637 -8.1266,-1.6836 -2.4096,-1.12 -4.2995,-2.6346 -5.6696,-4.5401 -1.3607,-1.9016 -2.0411,-4.0289 -2.0411,-6.374 z m 28.3861,1.9844 c 0.6284,-0.5111 1.1433,-1.0974 1.5496,-1.7589 0.4159,-0.6615 0.6236,-1.2177 0.6236,-1.6687 v -4.0439 c -1.3983,-0.5111 -2.9103,-0.9058 -4.5356,-1.1876 -1.6253,-0.2782 -3.1655,-0.4209 -4.6113,-0.4209 -3.0144,0 -5.4948,0.5712 -7.4461,1.7137 -1.9419,1.1425 -2.9105,2.6571 -2.9105,4.54 0,1.0223 0.312,2.007 0.945,2.9465 0.6426,0.9433 1.5544,1.695 2.7404,2.255 1.1952,0.5525 2.6646,0.8268 4.4033,0.8268 1.7482,0 3.4633,-0.3044 5.1405,-0.917 1.6867,-0.6088 3.0522,-1.3718 4.1011,-2.285 z m 51.603,7.7871 c -1.0489,0.4135 -2.2489,0.8344 -3.6096,1.2628 -1.3607,0.4322 -2.8442,0.7892 -4.4411,1.0674 -1.5877,0.2781 -3.1939,0.4209 -4.8192,0.4209 -2.2065,0 -4.2098,-0.3307 -6.0098,-0.9922 -1.805,-0.6615 -3.2412,-1.7175 -4.3091,-3.172 -1.0725,-1.4507 -1.6062,-3.3449 -1.6062,-5.6825 v -23.0458 h -5.9344 v -7.7872 h 5.9344 v -12.9736 h 11.736 v 12.9736 h 9.5817 v 7.7872 h -9.5817 v 19.6032 c 0.061,1.3755 0.4961,2.3827 1.304,3.0217 0.8174,0.6314 1.8617,0.9471 3.1373,0.9471 1.1576,0 2.3152,-0.188 3.4773,-0.5713 1.1718,-0.3796 2.1262,-0.7216 2.8727,-1.0223 z m 5.7549,-14.2664 v -9.2454 h 26.4581 v 9.2454 z m 32.898,10.1474 25.23,-26.6388 h -24.096 v -7.1708 h 36.5502 v 6.2538 l -24.9842,26.5636 h 25.4189 v 7.1708 h -38.1189 z m 42.8152,-5.6525 c 0,-2.5932 0.8222,-4.8595 2.4757,-6.795 1.6631,-1.9318 3.9546,-3.4463 6.8792,-4.54 2.9341,-1.0899 6.35,-1.6386 10.2432,-1.6386 1.8992,0 3.8411,0.1315 5.8208,0.3909 1.9749,0.2518 3.6901,0.6576 5.1404,1.2176 v -2.2248 c 0,-2.4843 -0.8457,-4.4123 -2.5324,-5.7878 -1.6772,-1.3831 -4.1954,-2.0746 -7.5595,-2.0746 -2.5609,0 -4.9705,0.3871 -7.2382,1.1576 -2.2585,0.7629 -4.6302,1.8565 -7.1249,3.2772 l -3.6664,-6.6447 c 2.9577,-1.7739 6.0194,-3.0818 9.1849,-3.9236 3.1609,-0.8419 6.4823,-1.2628 9.9596,-1.2628 6.5013,0 11.5661,1.4131 15.1947,4.2394 3.6286,2.8262 5.4428,6.9114 5.4428,12.252 v 12.733 c 0,1.0749 0.2127,1.8416 0.6426,2.3001 0.4393,0.451 1.1528,0.7329 2.1356,0.8418 v 8.3134 c -1.0349,0.1503 -1.9749,0.2743 -2.816,0.3758 -0.8456,0.109 -1.5591,0.1353 -2.1355,0.075 -2.3199,0 -4.0775,-0.4435 -5.2729,-1.3229 -1.1858,-0.8908 -1.8992,-1.9994 -2.1354,-3.3224 l -0.2457,-2.0595 c -2.0412,2.2361 -4.5453,3.965 -7.5028,5.1864 -2.9482,1.2215 -5.9674,1.834 -9.0526,1.834 -3.0144,0 -5.7216,-0.5637 -8.1264,-1.6836 -2.4096,-1.12 -4.2995,-2.6346 -5.6698,-4.5401 -1.3607,-1.9016 -2.041,-4.0289 -2.041,-6.374 z m 28.3861,1.9844 c 0.6282,-0.5111 1.1433,-1.0974 1.5496,-1.7589 0.4157,-0.6615 0.6236,-1.2177 0.6236,-1.6687 v -4.0439 c -1.3985,-0.5111 -2.9103,-0.9058 -4.5356,-1.1876 -1.6253,-0.2782 -3.1657,-0.4209 -4.6114,-0.4209 -3.0142,0 -5.4947,0.5712 -7.4462,1.7137 -1.9417,1.1425 -2.9103,2.6571 -2.9103,4.54 0,1.0223 0.3118,2.007 0.945,2.9465 0.6424,0.9433 1.5544,1.695 2.7402,2.255 1.1954,0.5525 2.6648,0.8268 4.4036,0.8268 1.7481,0 3.4631,-0.3044 5.1404,-0.917 1.6867,-0.6088 3.0522,-1.3718 4.1011,-2.285 z m 95.5665,9.8467 h -11.6606 v -22.4445 c 0,-3.1945 -0.6238,-5.5322 -1.871,-7.0054 -1.2475,-1.4808 -2.9766,-2.2249 -5.1783,-2.2249 -2.3199,0 -4.498,0.7779 -6.5389,2.3301 -2.0318,1.5559 -3.4775,3.5478 -4.3469,5.9832 v 23.3615 h -11.755 v -22.4445 c 0,-3.1945 -0.6142,-5.5322 -1.8332,-7.0054 -1.2094,-1.4808 -2.9198,-2.2249 -5.1216,-2.2249 -2.2677,0 -4.4506,0.7667 -6.539,2.3 -2.0787,1.5259 -3.5529,3.5291 -4.4223,6.0133 v 23.3615 h -11.5849 v -39.9882 h 10.5266 v 7.3963 c 1.7388,-2.5932 4.0727,-4.5888 7.0115,-5.9832 2.9341,-1.4018 6.2555,-2.1046 9.9596,-2.1046 3.7799,0 6.728,0.8193 8.8446,2.4504 2.1168,1.6236 3.4633,3.6343 4.0443,6.0283 1.8617,-2.7548 4.2334,-4.8557 7.1061,-6.2989 2.8726,-1.4507 6.1327,-2.1798 9.7895,-2.1798 2.7829,0 5.0554,0.4472 6.8226,1.3379 1.7764,0.8945 3.1561,2.0896 4.1387,3.593 0.9829,1.4958 1.6631,3.1832 2.0412,5.0662 0.3778,1.8866 0.567,3.7695 0.567,5.6524 z m 0,0"
       style="fill:#ffffff;fill-opacity:1;fill-rule:nonzero;stroke:none;stroke-width:1.51009"
       aria-label="~made-at-zam" />
    <path
       id="path22"
       d="M 0,0 83.258,-83.258 0,-166.517 -83.258,-83.258 Z"
       style="fill:#ffffff;fill-opacity:1;fill-rule:nonzero;stroke:none"
       transform="matrix(1.6126973,0,0,-1.2828279,886.77946,890.33951)"
       clip-path="url(#clipPath23)" />
    <path
       id="path24"
       d="M 0,0 2.485,-2.485 0,-4.969 -2.484,-2.485 Z M -4.969,4.969 -2.484,2.485 -4.969,0 -7.454,2.485 Z m -17.392,17.392 2.485,-2.485 -2.485,-2.484 -2.484,2.484 z m -7.454,7.454 2.485,-2.485 -2.485,-2.484 -2.484,2.484 z m -2.484,2.484 2.484,-2.484 -2.484,-2.485 -2.485,2.485 z m -4.969,4.969 2.484,-2.484 -2.484,-2.485 -2.485,2.485 z m -2.485,2.485 2.485,-2.485 -2.485,-2.484 -2.484,2.484 z m -2.484,2.484 2.484,-2.484 -2.484,-2.485 -2.485,2.485 z m -2.485,2.485 2.485,-2.485 -2.485,-2.484 -2.484,2.484 z m -4.969,4.969 2.485,-2.485 -2.485,-2.484 -2.485,2.484 z m -2.485,2.485 2.485,-2.485 -2.485,-2.485 -2.484,2.485 z m -2.484,2.484 2.484,-2.484 -2.484,-2.485 -2.485,2.485 z m -2.485,2.485 2.485,-2.485 -2.485,-2.484 -2.484,2.484 z m -2.484,2.484 2.484,-2.484 -2.484,-2.485 -2.485,2.485 z m -2.485,2.485 2.485,-2.485 -2.485,-2.484 -2.484,2.484 z m -2.484,2.484 2.484,-2.484 -2.484,-2.485 -2.485,2.485 z M 4.969,0 7.454,-2.485 4.969,-4.969 2.485,-2.485 Z M 0,4.969 2.485,2.485 0,0 -2.484,2.485 Z M -4.969,9.938 -2.484,7.454 -4.969,4.969 -7.454,7.454 Z m -2.485,2.485 2.485,-2.485 -2.485,-2.484 -2.484,2.484 z m -4.969,4.969 2.485,-2.485 -2.485,-2.484 -2.484,2.484 z m -9.938,9.938 2.485,-2.484 -2.485,-2.485 -2.484,2.485 z m -4.969,4.969 2.485,-2.484 -2.485,-2.485 -2.485,2.485 z m -4.969,4.969 2.484,-2.484 -2.484,-2.485 -2.485,2.485 z m -2.485,2.485 2.485,-2.485 -2.485,-2.484 -2.484,2.484 z m -2.484,2.484 2.484,-2.484 -2.484,-2.485 -2.485,2.485 z m -4.969,4.969 2.484,-2.484 -2.484,-2.485 -2.485,2.485 z m -4.969,4.97 2.484,-2.485 -2.484,-2.485 -2.485,2.485 z m -14.908,14.907 2.485,-2.485 -2.485,-2.484 -2.484,2.484 z M 7.454,2.485 9.938,0 7.454,-2.485 4.969,0 Z M 4.969,4.969 7.454,2.485 4.969,0 2.485,2.485 Z M 2.485,7.454 4.969,4.969 2.485,2.485 0,4.969 Z M 0,9.938 2.485,7.454 0,4.969 -2.484,7.454 Z M -2.484,12.423 0,9.938 -2.484,7.454 -4.969,9.938 Z m -2.485,2.484 2.485,-2.484 -2.485,-2.485 -2.485,2.485 z m -2.485,2.485 2.485,-2.485 -2.485,-2.484 -2.484,2.484 z m -2.484,2.484 2.484,-2.484 -2.484,-2.485 -2.485,2.485 z m -2.485,2.485 2.485,-2.485 -2.485,-2.484 -2.484,2.484 z m -2.484,2.485 2.484,-2.485 -2.484,-2.485 -2.485,2.485 z m -7.454,7.453 2.485,-2.484 -2.485,-2.485 -2.484,2.485 z m -2.484,2.485 2.484,-2.485 -2.484,-2.484 -2.485,2.484 z m -4.97,4.969 2.485,-2.485 -2.485,-2.484 -2.484,2.484 z m -7.453,7.453 2.484,-2.484 -2.484,-2.485 -2.485,2.485 z m -2.485,2.485 2.485,-2.485 -2.485,-2.484 -2.484,2.484 z m -4.969,4.969 2.485,-2.484 -2.485,-2.485 -2.484,2.485 z m -4.969,4.969 2.485,-2.484 -2.485,-2.485 -2.485,2.485 z m -2.485,2.485 2.485,-2.485 -2.485,-2.484 -2.484,2.484 z m -2.484,2.484 2.484,-2.484 -2.484,-2.485 -2.485,2.485 z m -4.969,4.969 2.484,-2.484 -2.484,-2.485 -2.485,2.485 z M 12.423,2.485 14.907,0 12.423,-2.485 9.938,0 Z M 9.938,4.969 12.423,2.485 9.938,0 7.454,2.485 Z M 7.454,7.454 9.938,4.969 7.454,2.485 4.969,4.969 Z M 4.969,9.938 7.454,7.454 4.969,4.969 2.485,7.454 Z m -12.423,12.423 2.485,-2.485 -2.485,-2.484 -2.484,2.484 z m -4.969,4.969 2.485,-2.484 -2.485,-2.485 -2.484,2.485 z m -4.969,4.969 2.485,-2.484 -2.485,-2.485 -2.484,2.485 z m -7.453,7.454 2.484,-2.485 -2.484,-2.484 -2.485,2.484 z m -4.97,4.969 2.485,-2.485 -2.485,-2.484 -2.484,2.484 z m -7.453,7.454 2.484,-2.485 -2.484,-2.485 -2.485,2.485 z m -4.969,4.969 2.484,-2.485 -2.484,-2.484 -2.485,2.484 z m -4.969,4.969 2.484,-2.485 -2.484,-2.484 -2.485,2.484 z m -2.485,2.484 2.485,-2.484 -2.485,-2.485 -2.485,2.485 z m -2.485,2.485 2.485,-2.485 -2.485,-2.484 -2.484,2.484 z m -4.969,4.969 2.485,-2.485 -2.485,-2.484 -2.484,2.484 z M 14.907,4.969 17.392,2.485 14.907,0 12.423,2.485 Z M 9.938,9.938 12.423,7.454 9.938,4.969 7.454,7.454 Z M 4.969,14.907 7.454,12.423 4.969,9.938 2.485,12.423 Z M 2.485,17.392 4.969,14.907 2.485,12.423 0,14.907 Z M 0,19.876 2.485,17.392 0,14.907 -2.484,17.392 Z M -2.484,22.361 0,19.876 -2.484,17.392 -4.969,19.876 Z m -2.485,2.485 2.485,-2.485 -2.485,-2.485 -2.485,2.485 z m -7.454,7.453 2.485,-2.484 -2.485,-2.485 -2.484,2.485 z m -9.938,9.938 2.485,-2.484 -2.485,-2.485 -2.484,2.485 z m -2.484,2.485 2.484,-2.485 -2.484,-2.484 -2.485,2.484 z m -4.97,4.969 2.485,-2.485 -2.485,-2.484 -2.484,2.484 z m -2.484,2.485 2.484,-2.485 -2.484,-2.485 -2.485,2.485 z m -2.485,2.484 2.485,-2.484 -2.485,-2.485 -2.484,2.485 z m -4.969,4.969 2.485,-2.484 -2.485,-2.485 -2.484,2.485 z m -4.969,4.969 2.485,-2.484 -2.485,-2.485 -2.484,2.485 z m -2.484,2.485 2.484,-2.485 -2.484,-2.484 -2.485,2.484 z m -2.485,2.484 2.485,-2.484 -2.485,-2.485 -2.485,2.485 z m -4.969,4.97 2.484,-2.485 -2.484,-2.485 -2.485,2.485 z M 17.392,7.454 19.876,4.969 17.392,2.485 14.907,4.969 Z M 14.907,9.938 17.392,7.454 14.907,4.969 12.423,7.454 Z M 7.454,17.392 9.938,14.907 7.454,12.423 4.969,14.907 Z M -2.484,27.33 0,24.846 -2.484,22.361 -4.969,24.846 Z m -2.485,2.485 2.485,-2.485 -2.485,-2.484 -2.485,2.484 z m -2.485,2.484 2.485,-2.484 -2.485,-2.485 -2.484,2.485 z m -4.969,4.969 2.485,-2.484 -2.485,-2.485 -2.484,2.485 z m -9.938,9.938 2.485,-2.484 -2.485,-2.485 -2.484,2.485 z m -4.969,4.97 2.485,-2.485 -2.485,-2.485 -2.485,2.485 z m -2.485,2.484 2.485,-2.484 -2.485,-2.485 -2.484,2.485 z m -7.453,7.454 2.484,-2.485 -2.484,-2.484 -2.485,2.484 z m -14.908,14.907 2.485,-2.484 -2.485,-2.485 -2.484,2.485 z m 67.083,-62.114 2.485,-2.484 -2.485,-2.485 -2.484,2.485 z m -2.484,2.485 2.484,-2.485 -2.484,-2.484 -2.485,2.484 z M 9.938,19.876 12.423,17.392 9.938,14.907 7.454,17.392 Z M 4.969,24.846 7.454,22.361 4.969,19.876 2.485,22.361 Z M 0,29.815 2.485,27.33 0,24.846 -2.484,27.33 Z M -2.484,32.299 0,29.815 -2.484,27.33 -4.969,29.815 Z m -2.485,2.485 2.485,-2.485 -2.485,-2.484 -2.485,2.484 z m -7.454,7.453 2.485,-2.484 -2.485,-2.485 -2.484,2.485 z m -2.484,2.485 2.484,-2.485 -2.484,-2.484 -2.485,2.484 z m -9.938,9.938 2.484,-2.484 -2.484,-2.485 -2.485,2.485 z m -2.485,2.485 2.485,-2.485 -2.485,-2.484 -2.485,2.484 z m -2.485,2.484 2.485,-2.484 -2.485,-2.485 -2.484,2.485 z m -4.969,4.969 2.485,-2.484 -2.485,-2.485 -2.484,2.485 z m -2.484,2.485 2.484,-2.485 -2.484,-2.484 -2.485,2.484 z m -2.485,2.484 2.485,-2.484 -2.485,-2.485 -2.484,2.485 z m -2.484,2.485 2.484,-2.485 -2.484,-2.484 -2.485,2.484 z m -2.485,2.485 2.485,-2.485 -2.485,-2.485 -2.484,2.485 z m -2.484,2.484 2.484,-2.484 -2.484,-2.485 -2.485,2.485 z m -2.485,2.485 2.485,-2.485 -2.485,-2.484 -2.485,2.484 z M 22.361,12.423 24.846,9.938 22.361,7.454 19.876,9.938 Z m -2.485,2.484 2.485,-2.484 -2.485,-2.485 -2.484,2.485 z m -2.484,2.485 2.484,-2.485 -2.484,-2.484 -2.485,2.484 z m -2.485,2.484 2.485,-2.484 -2.485,-2.485 -2.484,2.485 z m -2.484,2.485 2.484,-2.485 -2.484,-2.484 -2.485,2.484 z M 2.485,32.299 4.969,29.815 2.485,27.33 0,29.815 Z M -2.484,37.268 0,34.784 -2.484,32.299 -4.969,34.784 Z m -2.485,2.485 2.485,-2.485 -2.485,-2.484 -2.485,2.484 z m -2.485,2.484 2.485,-2.484 -2.485,-2.485 -2.484,2.485 z m -4.969,4.969 2.485,-2.484 -2.485,-2.485 -2.484,2.485 z m -7.453,7.454 2.484,-2.484 -2.484,-2.485 -2.485,2.485 z m -2.485,2.485 2.485,-2.485 -2.485,-2.484 -2.484,2.484 z m -2.484,2.484 2.484,-2.484 -2.484,-2.485 -2.485,2.485 z m -2.485,2.485 2.485,-2.485 -2.485,-2.484 -2.485,2.484 z M 24.846,14.907 27.33,12.423 24.846,9.938 22.361,12.423 Z m -2.485,2.485 2.485,-2.485 -2.485,-2.484 -2.485,2.484 z m -2.485,2.484 2.485,-2.484 -2.485,-2.485 -2.484,2.485 z m -4.969,4.97 2.485,-2.485 -2.485,-2.485 -2.484,2.485 z m -2.484,2.484 2.484,-2.484 -2.484,-2.485 -2.485,2.485 z M 9.938,29.815 12.423,27.33 9.938,24.846 7.454,27.33 Z M 7.454,32.299 9.938,29.815 7.454,27.33 4.969,29.815 Z M 4.969,34.784 7.454,32.299 4.969,29.815 2.485,32.299 Z M 2.485,37.268 4.969,34.784 2.485,32.299 0,34.784 Z M -2.484,42.237 0,39.753 -2.484,37.268 -4.969,39.753 Z m -4.97,4.969 2.485,-2.484 -2.485,-2.485 -2.484,2.485 z m -2.484,2.485 2.484,-2.485 -2.484,-2.484 -2.485,2.484 z m -2.485,2.485 2.485,-2.485 -2.485,-2.485 -2.484,2.485 z m -2.484,2.484 2.484,-2.484 -2.484,-2.485 -2.485,2.485 z m -2.485,2.485 2.485,-2.485 -2.485,-2.484 -2.484,2.484 z m -2.484,2.484 2.484,-2.484 -2.484,-2.485 -2.485,2.485 z m -2.485,2.485 2.485,-2.485 -2.485,-2.484 -2.484,2.484 z m -2.484,2.484 2.484,-2.484 -2.484,-2.485 -2.485,2.485 z m -2.485,2.485 2.485,-2.485 -2.485,-2.484 -2.485,2.484 z m -2.485,2.484 2.485,-2.484 -2.485,-2.485 -2.484,2.485 z m -2.484,2.485 2.484,-2.485 -2.484,-2.484 -2.485,2.484 z m -4.969,4.969 2.484,-2.484 -2.484,-2.485 -2.485,2.485 z m -7.454,7.454 2.485,-2.485 -2.485,-2.484 -2.484,2.484 z M 24.846,19.876 27.33,17.392 24.846,14.907 22.361,17.392 Z M -2.484,47.206 0,44.722 -2.484,42.237 -4.969,44.722 Z m -2.485,2.485 2.485,-2.485 -2.485,-2.484 -2.485,2.484 z m -2.485,2.485 2.485,-2.485 -2.485,-2.485 -2.484,2.485 z m -14.907,14.907 2.485,-2.485 -2.485,-2.484 -2.484,2.484 z m -14.907,14.907 2.484,-2.484 -2.484,-2.485 -2.485,2.485 z m -4.969,4.969 2.484,-2.484 -2.484,-2.485 -2.485,2.485 z m 67.083,-62.113 2.484,-2.485 -2.484,-2.485 -2.485,2.485 z m -4.97,4.969 2.485,-2.485 -2.485,-2.484 -2.484,2.484 z m -7.453,7.453 2.484,-2.484 -2.484,-2.485 -2.485,2.485 z M 4.969,44.722 7.454,42.237 4.969,39.753 2.485,42.237 Z M 2.485,47.206 4.969,44.722 2.485,42.237 0,44.722 Z M 0,49.691 2.485,47.206 0,44.722 -2.484,47.206 Z M -2.484,52.176 0,49.691 -2.484,47.206 -4.969,49.691 Z m -14.908,14.907 2.485,-2.485 -2.485,-2.484 -2.484,2.484 z m -2.484,2.484 2.484,-2.484 -2.484,-2.485 -2.485,2.485 z m -2.485,2.485 2.485,-2.485 -2.485,-2.484 -2.484,2.484 z m -2.484,2.485 2.484,-2.485 -2.484,-2.485 -2.485,2.485 z m -2.485,2.484 2.485,-2.484 -2.485,-2.485 -2.485,2.485 z m -2.485,2.485 2.485,-2.485 -2.485,-2.484 -2.484,2.484 z m -4.969,4.969 2.485,-2.485 -2.485,-2.484 -2.484,2.484 z m -4.969,4.969 2.485,-2.485 -2.485,-2.484 -2.484,2.484 z m 72.052,-67.083 2.485,-2.485 -2.485,-2.484 -2.484,2.484 z m -4.969,4.969 2.485,-2.484 -2.485,-2.485 -2.484,2.485 z m -4.969,4.969 2.485,-2.484 -2.485,-2.485 -2.485,2.485 z m -2.485,2.485 2.485,-2.485 -2.485,-2.484 -2.484,2.484 z m -2.484,2.484 2.484,-2.484 -2.484,-2.485 -2.485,2.485 z m -2.485,2.485 2.485,-2.485 -2.485,-2.484 -2.484,2.484 z m -2.484,2.484 2.484,-2.484 -2.484,-2.485 -2.485,2.485 z M 9.938,44.722 12.423,42.237 9.938,39.753 7.454,42.237 Z M 7.454,47.206 9.938,44.722 7.454,42.237 4.969,44.722 Z M 2.485,52.176 4.969,49.691 2.485,47.206 0,49.691 Z m -9.939,9.938 2.485,-2.485 -2.485,-2.484 -2.484,2.484 z m -4.969,4.969 2.485,-2.485 -2.485,-2.484 -2.484,2.484 z m -2.484,2.484 2.484,-2.484 -2.484,-2.485 -2.485,2.485 z m -9.938,9.939 2.484,-2.485 -2.484,-2.484 -2.485,2.484 z m -2.485,2.484 2.485,-2.484 -2.485,-2.485 -2.485,2.485 z m -9.938,9.938 2.484,-2.484 -2.484,-2.485 -2.485,2.485 z M 29.815,29.815 32.299,27.33 29.815,24.846 27.33,27.33 Z M 27.33,32.299 29.815,29.815 27.33,27.33 24.846,29.815 Z M 7.454,52.176 9.938,49.691 7.454,47.206 4.969,49.691 Z M 0,59.629 2.485,57.145 0,54.66 -2.484,57.145 Z M -2.484,62.114 0,59.629 -2.484,57.145 -4.969,59.629 Z m -2.485,2.484 2.485,-2.484 -2.485,-2.485 -2.485,2.485 z m -2.485,2.485 2.485,-2.485 -2.485,-2.484 -2.484,2.484 z m -2.484,2.484 2.484,-2.484 -2.484,-2.485 -2.485,2.485 z m -2.485,2.485 2.485,-2.485 -2.485,-2.484 -2.484,2.484 z m -7.453,7.454 2.484,-2.485 -2.484,-2.484 -2.485,2.484 z m -9.939,9.938 2.485,-2.485 -2.485,-2.484 -2.484,2.484 z m -2.484,2.484 2.484,-2.484 -2.484,-2.485 -2.485,2.485 z M 34.784,29.815 37.268,27.33 34.784,24.846 32.299,27.33 Z m -7.454,7.453 2.485,-2.484 -2.485,-2.485 -2.484,2.485 z m -4.969,4.969 2.485,-2.484 -2.485,-2.485 -2.485,2.485 z m -2.485,2.485 2.485,-2.485 -2.485,-2.484 -2.484,2.484 z M 7.454,57.145 9.938,54.66 7.454,52.176 4.969,54.66 Z M 4.969,59.629 7.454,57.145 4.969,54.66 2.485,57.145 Z M 2.485,62.114 4.969,59.629 2.485,57.145 0,59.629 Z m -7.454,7.453 2.485,-2.484 -2.485,-2.485 -2.485,2.485 z m -2.485,2.485 2.485,-2.485 -2.485,-2.484 -2.484,2.484 z m -2.484,2.485 2.484,-2.485 -2.484,-2.485 -2.485,2.485 z m -2.485,2.484 2.485,-2.484 -2.485,-2.485 -2.484,2.485 z m -2.484,2.485 2.484,-2.485 -2.484,-2.484 -2.485,2.484 z m -9.938,9.938 2.484,-2.485 -2.484,-2.484 -2.485,2.484 z m 59.629,-54.66 2.484,-2.485 -2.484,-2.484 -2.485,2.484 z m -2.485,2.484 2.485,-2.484 -2.485,-2.485 -2.484,2.485 z m -2.484,2.485 2.484,-2.485 -2.484,-2.484 -2.485,2.484 z m -2.485,2.484 2.485,-2.484 -2.485,-2.485 -2.484,2.485 z m -2.484,2.485 2.484,-2.485 -2.484,-2.484 -2.485,2.484 z m -2.485,2.484 2.485,-2.484 -2.485,-2.485 -2.485,2.485 z m -2.485,2.485 2.485,-2.485 -2.485,-2.484 -2.484,2.484 z M 12.423,57.145 14.907,54.66 12.423,52.176 9.938,54.66 Z M 7.454,62.114 9.938,59.629 7.454,57.145 4.969,59.629 Z M 4.969,64.598 7.454,62.114 4.969,59.629 2.485,62.114 Z M 0,69.567 2.485,67.083 0,64.598 -2.484,67.083 Z M -2.484,72.052 0,69.567 -2.484,67.083 -4.969,69.567 Z m -12.423,12.423 2.484,-2.485 -2.484,-2.484 -2.485,2.484 z m -9.938,9.938 2.484,-2.485 -2.484,-2.484 -2.485,2.484 z m 67.082,-62.114 2.485,-2.484 -2.485,-2.485 -2.484,2.485 z m -9.938,9.938 2.485,-2.484 -2.485,-2.485 -2.484,2.485 z m -2.484,2.485 2.484,-2.485 -2.484,-2.484 -2.485,2.484 z m -2.485,2.484 2.485,-2.484 -2.485,-2.485 -2.484,2.485 z m -4.969,4.97 2.485,-2.485 -2.485,-2.485 -2.485,2.485 z m -2.485,2.484 2.485,-2.484 -2.485,-2.485 -2.484,2.485 z m -2.484,2.485 2.484,-2.485 -2.484,-2.484 -2.485,2.484 z m -2.485,2.484 2.485,-2.484 -2.485,-2.485 -2.484,2.485 z m -2.484,2.485 2.484,-2.485 -2.484,-2.484 -2.485,2.484 z M 4.969,69.567 7.454,67.083 4.969,64.598 2.485,67.083 Z m -9.938,9.939 2.485,-2.485 -2.485,-2.484 -2.485,2.484 z m -2.485,2.484 2.485,-2.484 -2.485,-2.485 -2.484,2.485 z m -12.422,12.423 2.484,-2.485 -2.484,-2.484 -2.485,2.484 z m -2.485,2.484 2.485,-2.484 -2.485,-2.485 -2.484,2.485 z m -2.484,2.485 2.484,-2.485 -2.484,-2.484 -2.485,2.484 z m 64.598,-59.629 2.484,-2.485 -2.484,-2.484 -2.485,2.484 z m -2.485,2.484 2.485,-2.484 -2.485,-2.485 -2.484,2.485 z m -4.969,4.969 2.485,-2.484 -2.485,-2.485 -2.484,2.485 z m -7.453,7.454 2.484,-2.484 -2.484,-2.485 -2.485,2.485 z m -4.97,4.969 2.485,-2.484 -2.485,-2.485 -2.484,2.485 z m -2.484,2.485 2.484,-2.485 -2.484,-2.484 -2.485,2.484 z m -2.485,2.484 2.485,-2.484 -2.485,-2.485 -2.484,2.485 z m -2.484,2.485 2.484,-2.485 -2.484,-2.484 -2.485,2.484 z M 7.454,72.052 9.938,69.567 7.454,67.083 4.969,69.567 Z M 4.969,74.537 7.454,72.052 4.969,69.567 2.485,72.052 Z M 0,79.506 2.485,77.021 0,74.537 -2.484,77.021 Z M -2.484,81.99 0,79.506 -2.484,77.021 -4.969,79.506 Z m -2.485,2.485 2.485,-2.485 -2.485,-2.484 -2.485,2.484 z m -2.485,2.484 2.485,-2.484 -2.485,-2.485 -2.484,2.485 z m -2.484,2.485 2.484,-2.485 -2.484,-2.484 -2.485,2.484 z m -4.969,4.969 2.484,-2.485 -2.484,-2.484 -2.485,2.484 z m -2.485,2.484 2.485,-2.484 -2.485,-2.485 -2.484,2.485 z m -4.969,4.97 2.485,-2.485 -2.485,-2.485 -2.484,2.485 z m 67.083,-62.114 2.484,-2.485 -2.484,-2.484 -2.485,2.484 z m -4.969,4.969 2.484,-2.485 -2.484,-2.484 -2.485,2.484 z m -2.485,2.484 2.485,-2.484 -2.485,-2.485 -2.484,2.485 z m -2.484,2.485 2.484,-2.485 -2.484,-2.484 -2.485,2.484 z m -2.485,2.485 2.485,-2.485 -2.485,-2.485 -2.484,2.485 z m -2.484,2.484 2.484,-2.484 -2.484,-2.485 -2.485,2.485 z M 27.33,57.145 29.815,54.66 27.33,52.176 24.846,54.66 Z M 12.423,72.052 14.907,69.567 12.423,67.083 9.938,69.567 Z M 7.454,77.021 9.938,74.537 7.454,72.052 4.969,74.537 Z m -22.361,22.361 2.484,-2.485 -2.484,-2.484 -2.485,2.484 z m -2.485,2.485 2.485,-2.485 -2.485,-2.485 -2.484,2.485 z m -2.484,2.484 2.484,-2.484 -2.484,-2.485 -2.485,2.485 z m -2.485,2.485 2.485,-2.485 -2.485,-2.484 -2.484,2.484 z m 62.114,-57.145 2.484,-2.485 -2.484,-2.484 -2.485,2.484 z m -4.969,4.969 2.484,-2.484 -2.484,-2.485 -2.485,2.485 z m -4.969,4.969 2.484,-2.484 -2.484,-2.485 -2.485,2.485 z m -9.939,9.938 2.485,-2.484 -2.485,-2.485 -2.484,2.485 z m -2.484,2.485 2.484,-2.485 -2.484,-2.484 -2.485,2.484 z m -2.485,2.485 2.485,-2.485 -2.485,-2.485 -2.484,2.485 z M 4.969,84.475 7.454,81.99 4.969,79.506 2.485,81.99 Z M 0,89.444 2.485,86.959 0,84.475 -2.484,86.959 Z m -4.969,4.969 2.485,-2.485 -2.485,-2.484 -2.485,2.484 z m -2.485,2.484 2.485,-2.484 -2.485,-2.485 -2.484,2.485 z m -4.969,4.97 2.485,-2.485 -2.485,-2.485 -2.484,2.485 z m 64.599,-59.63 2.484,-2.484 -2.484,-2.485 -2.485,2.485 z m -9.939,9.939 2.485,-2.485 -2.485,-2.485 -2.484,2.485 z m -4.969,4.969 2.485,-2.485 -2.485,-2.484 -2.484,2.484 z m -2.484,2.484 2.484,-2.484 -2.484,-2.485 -2.485,2.485 z m -2.485,2.485 2.485,-2.485 -2.485,-2.484 -2.484,2.484 z m -2.484,2.484 2.484,-2.484 -2.484,-2.485 -2.485,2.485 z m -2.485,2.485 2.485,-2.485 -2.485,-2.484 -2.484,2.484 z m -2.484,2.484 2.484,-2.484 -2.484,-2.485 -2.485,2.485 z M 12.423,81.99 14.907,79.506 12.423,77.021 9.938,79.506 Z M 7.454,86.959 9.938,84.475 7.454,81.99 4.969,84.475 Z M 2.485,91.928 4.969,89.444 2.485,86.959 0,89.444 Z M 0,94.413 2.485,91.928 0,89.444 -2.484,91.928 Z m -4.969,4.969 2.485,-2.485 -2.485,-2.484 -2.485,2.484 z m -4.969,4.969 2.484,-2.484 -2.484,-2.485 -2.485,2.485 z m 62.114,-57.145 2.484,-2.484 -2.484,-2.485 -2.485,2.485 z m -4.97,4.97 2.485,-2.485 -2.485,-2.485 -2.484,2.485 z m -4.969,4.969 2.485,-2.485 -2.485,-2.484 -2.484,2.484 z m -4.969,4.969 2.485,-2.485 -2.485,-2.484 -2.484,2.484 z m -2.484,2.484 2.484,-2.484 -2.484,-2.485 -2.485,2.485 z m -7.454,7.454 2.485,-2.485 -2.485,-2.484 -2.484,2.484 z m -7.454,7.454 2.485,-2.485 -2.485,-2.484 -2.484,2.484 z m -2.484,2.484 2.484,-2.484 -2.484,-2.485 -2.485,2.485 z m -4.969,4.969 2.484,-2.484 -2.484,-2.485 -2.485,2.485 z M 7.454,91.928 9.938,89.444 7.454,86.959 4.969,89.444 Z M 4.969,94.413 7.454,91.928 4.969,89.444 2.485,91.928 Z M 2.485,96.897 4.969,94.413 2.485,91.928 0,94.413 Z M 0,99.382 2.485,96.897 0,94.413 -2.484,96.897 Z m -4.969,4.969 2.485,-2.484 -2.485,-2.485 -2.485,2.485 z m -2.485,2.485 2.485,-2.485 -2.485,-2.484 -2.484,2.484 z m -2.484,2.484 2.484,-2.484 -2.484,-2.485 -2.485,2.485 z m -2.485,2.485 2.485,-2.485 -2.485,-2.484 -2.484,2.484 z m -2.484,2.484 2.484,-2.484 -2.484,-2.485 -2.485,2.485 z m 49.691,-44.722 2.484,-2.484 -2.484,-2.485 -2.485,2.485 z m -7.454,7.454 2.485,-2.484 -2.485,-2.485 -2.484,2.485 z m -12.423,12.423 2.485,-2.485 -2.485,-2.484 -2.484,2.484 z m -2.484,2.484 2.484,-2.484 -2.484,-2.485 -2.485,2.485 z m -2.485,2.485 2.485,-2.485 -2.485,-2.484 -2.484,2.484 z m 49.691,-44.722 2.485,-2.485 -2.485,-2.484 -2.484,2.484 z m -2.484,2.485 2.484,-2.485 -2.484,-2.485 -2.485,2.485 z m -2.485,2.484 2.485,-2.484 -2.485,-2.485 -2.484,2.485 z m -2.484,2.485 2.484,-2.485 -2.484,-2.484 -2.485,2.484 z m -2.485,2.484 2.485,-2.484 -2.485,-2.485 -2.485,2.485 z m -2.485,2.485 2.485,-2.485 -2.485,-2.484 -2.484,2.484 z m -2.484,2.484 2.484,-2.484 -2.484,-2.485 -2.485,2.485 z m -4.969,4.969 2.484,-2.484 -2.484,-2.485 -2.485,2.485 z m -4.969,4.97 2.484,-2.485 -2.484,-2.485 -2.485,2.485 z m -4.969,4.969 2.484,-2.485 -2.484,-2.484 -2.485,2.484 z m -4.969,4.969 2.484,-2.485 -2.484,-2.484 -2.485,2.484 z m -4.97,4.969 2.485,-2.485 -2.485,-2.484 -2.484,2.484 z m -4.969,4.969 2.485,-2.485 -2.485,-2.484 -2.484,2.484 z m -4.969,4.969 2.485,-2.485 -2.485,-2.484 -2.484,2.484 z m -4.969,4.969 2.485,-2.484 -2.485,-2.485 -2.484,2.485 z M 2.485,106.836 4.969,104.351 2.485,101.867 0,104.351 Z M 0,109.32 2.485,106.836 0,104.351 l -2.484,2.485 z m -2.484,2.485 2.484,-2.485 -2.484,-2.484 -2.485,2.484 z m -2.485,2.484 2.485,-2.484 -2.485,-2.485 -2.485,2.485 z m -2.485,2.485 2.485,-2.485 -2.485,-2.484 -2.484,2.484 z m -2.484,2.484 2.484,-2.484 -2.484,-2.485 -2.485,2.485 z m 72.052,-67.082 2.484,-2.485 -2.484,-2.485 -2.485,2.485 z m -14.908,14.907 2.485,-2.485 -2.485,-2.484 -2.484,2.484 z m -4.969,4.969 2.485,-2.485 -2.485,-2.484 -2.484,2.484 z m -4.969,4.969 2.485,-2.484 -2.485,-2.485 -2.484,2.485 z m -4.969,4.969 2.485,-2.484 -2.485,-2.485 -2.484,2.485 z m -2.484,2.485 2.484,-2.485 -2.484,-2.484 -2.485,2.484 z m -2.485,2.484 2.485,-2.484 -2.485,-2.485 -2.484,2.485 z m -4.969,4.969 2.485,-2.484 -2.485,-2.485 -2.485,2.485 z m -2.485,2.485 2.485,-2.485 -2.485,-2.484 -2.484,2.484 z m -4.969,4.969 2.485,-2.485 -2.485,-2.484 -2.484,2.484 z m -2.484,2.485 2.484,-2.485 -2.484,-2.485 -2.485,2.485 z m -4.969,4.969 2.484,-2.485 -2.484,-2.484 -2.485,2.484 z m -14.908,14.907 2.485,-2.485 -2.485,-2.484 -2.484,2.484 z m 72.052,-67.083 2.485,-2.484 -2.485,-2.485 -2.484,2.485 z m -4.969,4.969 2.485,-2.484 -2.485,-2.485 -2.484,2.485 z m -2.484,2.485 2.484,-2.485 -2.484,-2.484 -2.485,2.484 z m -2.485,2.484 2.485,-2.484 -2.485,-2.485 -2.484,2.485 z m -4.969,4.969 2.485,-2.484 -2.485,-2.485 -2.485,2.485 z m -7.454,7.454 2.485,-2.484 -2.485,-2.485 -2.484,2.485 z m -2.484,2.485 2.484,-2.485 -2.484,-2.484 -2.485,2.484 z m -4.969,4.969 2.484,-2.485 -2.484,-2.484 -2.485,2.484 z m -17.392,17.392 2.484,-2.485 -2.484,-2.485 -2.485,2.485 z m -7.454,7.453 2.485,-2.484 -2.485,-2.485 -2.484,2.485 z m -4.969,4.969 2.485,-2.484 -2.485,-2.485 -2.484,2.485 z M 2.485,116.774 4.969,114.289 2.485,111.805 0,114.289 Z M 0,119.258 2.485,116.774 0,114.289 l -2.484,2.485 z m -4.969,4.97 2.485,-2.485 -2.485,-2.485 -2.485,2.485 z M 67.083,57.145 69.567,54.66 67.083,52.176 64.598,54.66 Z m -4.969,4.969 2.484,-2.485 -2.484,-2.484 -2.485,2.484 z m -2.485,2.484 2.485,-2.484 -2.485,-2.485 -2.484,2.485 z m -2.484,2.485 2.484,-2.485 -2.484,-2.484 -2.485,2.484 z m -4.969,4.969 2.484,-2.485 -2.484,-2.484 -2.485,2.484 z m -7.454,7.454 2.484,-2.485 -2.484,-2.484 -2.485,2.484 z m -4.969,4.969 2.484,-2.485 -2.484,-2.484 -2.485,2.484 z m -7.454,7.453 2.485,-2.484 -2.485,-2.485 -2.484,2.485 z m -2.484,2.485 2.484,-2.485 -2.484,-2.484 -2.485,2.484 z m -2.485,2.484 2.485,-2.484 -2.485,-2.485 -2.484,2.485 z m -4.969,4.97 2.485,-2.485 -2.485,-2.485 -2.485,2.485 z m -2.485,2.484 2.485,-2.484 -2.485,-2.485 -2.484,2.485 z m -2.484,2.485 2.484,-2.485 -2.484,-2.484 -2.485,2.484 z m -4.969,4.969 2.484,-2.485 -2.484,-2.484 -2.485,2.484 z m -4.969,4.969 2.484,-2.485 -2.484,-2.484 -2.485,2.484 z m -2.485,2.484 2.485,-2.484 -2.485,-2.485 -2.484,2.485 z M 2.485,121.743 4.969,119.258 2.485,116.774 0,119.258 Z m -4.969,4.969 2.484,-2.484 -2.484,-2.485 -2.485,2.485 z m 72.051,-67.083 2.485,-2.484 -2.485,-2.485 -2.484,2.485 z m -4.969,4.969 2.485,-2.484 -2.485,-2.485 -2.484,2.485 z m -2.484,2.485 2.484,-2.485 -2.484,-2.484 -2.485,2.484 z m -2.485,2.484 2.485,-2.484 -2.485,-2.485 -2.484,2.485 z m -4.969,4.97 2.485,-2.485 -2.485,-2.485 -2.484,2.485 z m -4.969,4.969 2.485,-2.485 -2.485,-2.484 -2.485,2.484 z m -2.485,2.484 2.485,-2.484 -2.485,-2.485 -2.484,2.485 z m -2.484,2.485 2.484,-2.485 -2.484,-2.484 -2.485,2.484 z m -4.969,4.969 2.484,-2.485 -2.484,-2.484 -2.485,2.484 z m -2.485,2.484 2.485,-2.484 -2.485,-2.485 -2.484,2.485 z m -2.484,2.485 2.484,-2.485 -2.484,-2.484 -2.485,2.484 z m -4.969,4.969 2.484,-2.485 -2.484,-2.484 -2.485,2.484 z m -14.908,14.907 2.485,-2.484 -2.485,-2.485 -2.484,2.485 z m -4.969,4.969 2.485,-2.484 -2.485,-2.485 -2.484,2.485 z m -2.484,2.485 2.484,-2.485 -2.484,-2.484 -2.485,2.484 z m -2.485,2.485 2.485,-2.485 -2.485,-2.485 -2.484,2.485 z M 0,129.197 2.485,126.712 0,124.228 l -2.484,2.484 z m 72.052,-67.083 2.485,-2.485 -2.485,-2.484 -2.485,2.484 z m -14.907,14.907 2.484,-2.484 -2.484,-2.485 -2.485,2.485 z m -4.969,4.969 2.484,-2.484 -2.484,-2.485 -2.485,2.485 z m -4.97,4.969 2.485,-2.484 -2.485,-2.485 -2.484,2.485 z m -2.484,2.485 2.484,-2.485 -2.484,-2.484 -2.485,2.484 z m -2.485,2.484 2.485,-2.484 -2.485,-2.485 -2.484,2.485 z m -2.484,2.485 2.484,-2.485 -2.484,-2.484 -2.485,2.484 z m -12.423,12.423 2.485,-2.485 -2.485,-2.484 -2.484,2.484 z m -4.969,4.969 2.485,-2.485 -2.485,-2.484 -2.485,2.484 z m -4.969,4.969 2.484,-2.485 -2.484,-2.484 -2.485,2.484 z M 2.485,131.681 4.969,129.197 2.485,126.712 0,129.197 Z m 72.052,-67.083 2.484,-2.484 -2.484,-2.485 -2.485,2.485 z m -2.485,2.485 2.485,-2.485 -2.485,-2.484 -2.485,2.484 z m -2.485,2.484 2.485,-2.484 -2.485,-2.485 -2.484,2.485 z m -2.484,2.485 2.484,-2.485 -2.484,-2.484 -2.485,2.484 z m -2.485,2.485 2.485,-2.485 -2.485,-2.485 -2.484,2.485 z m -2.484,2.484 2.484,-2.484 -2.484,-2.485 -2.485,2.485 z m -2.485,2.485 2.485,-2.485 -2.485,-2.484 -2.484,2.484 z M 54.66,84.475 57.145,81.99 54.66,79.506 52.176,81.99 Z m -2.484,2.484 2.484,-2.484 -2.484,-2.485 -2.485,2.485 z m -4.97,4.969 2.485,-2.484 -2.485,-2.485 -2.484,2.485 z m -2.484,2.485 2.484,-2.485 -2.484,-2.484 -2.485,2.484 z m -9.938,9.938 2.484,-2.484 -2.484,-2.485 -2.485,2.485 z m -4.969,4.969 2.484,-2.484 -2.484,-2.485 -2.485,2.485 z m -9.939,9.938 2.485,-2.484 -2.485,-2.485 -2.484,2.485 z m -2.484,2.485 2.484,-2.485 -2.484,-2.484 -2.485,2.484 z m -2.485,2.485 2.485,-2.485 -2.485,-2.485 -2.484,2.485 z m -2.484,2.484 2.484,-2.484 -2.484,-2.485 -2.485,2.485 z m -2.485,2.485 2.485,-2.485 -2.485,-2.484 -2.484,2.484 z m -2.484,2.484 2.484,-2.484 -2.484,-2.485 -2.485,2.485 z m -2.485,2.485 2.485,-2.485 -2.485,-2.484 -2.484,2.484 z"
       style="fill:#110f0d;fill-opacity:1;fill-rule:nonzero;stroke:none"
       transform="matrix(1.6126973,0,0,-1.2828279,878.7658,1076.8268)"
       clip-path="url(#clipPath25)" />
  </g>
</svg>
