<?xml version="1.0" encoding="UTF-8" standalone="no"?>
<!-- Created with Inkscape (http://www.inkscape.org/) -->

<svg
   version="1.1"
   id="svg1"
   width="1122.52"
   height="1587.4"
   viewBox="0 0 1122.52 1587.4"
   sodipodi:docname="background_portrait.svg"
   inkscape:version="1.4.2 (ebf0e940d0, 2025-05-08)"
   xmlns:inkscape="http://www.inkscape.org/namespaces/inkscape"
   xmlns:sodipodi="http://sodipodi.sourceforge.net/DTD/sodipodi-0.dtd"
   xmlns="http://www.w3.org/2000/svg"
   xmlns:svg="http://www.w3.org/2000/svg">
  <defs
     id="defs1">
    <clipPath
       clipPathUnits="userSpaceOnUse"
       id="clipPath3">
      <path
         d="M 0,1190.551 H 841.89 V 0 H 0 Z"
         transform="translate(-587.87902,-1164.6268)"
         id="path3" />
    </clipPath>
    <clipPath
       clipPathUnits="userSpaceOnUse"
       id="clipPath6">
      <path
         d="M 0,1190.551 H 841.89 V 0 H 0 Z"
         transform="translate(-445.15551,-1119.472)"
         id="path6" />
    </clipPath>
    <clipPath
       clipPathUnits="userSpaceOnUse"
       id="clipPath8">
      <path
         d="M 0,1190.551 H 841.89 V 0 H 0 Z"
         id="path8" />
    </clipPath>
    <clipPath
       clipPathUnits="userSpaceOnUse"
       id="clipPath10">
      <path
         d="M 0,1190.551 H 841.89 V 0 H 0 Z"
         transform="translate(-369.68691,-1106.4723)"
         id="path10" />
    </clipPath>
    <clipPath
       clipPathUnits="userSpaceOnUse"
       id="clipPath12">
      <path
         d="M 0,1190.551 H 841.89 V 0 H 0 Z"
         id="path12" />
    </clipPath>
    <clipPath
       clipPathUnits="userSpaceOnUse"
       id="clipPath14">
      <path
         d="M 0,1190.551 H 841.89 V 0 H 0 Z"
         transform="translate(-299.27521,-1080.4736)"
         id="path14" />
    </clipPath>
    <clipPath
       clipPathUnits="userSpaceOnUse"
       id="clipPath16">
      <path
         d="M 0,1190.551 H 841.89 V 0 H 0 Z"
         id="path16" />
    </clipPath>
    <clipPath
       clipPathUnits="userSpaceOnUse"
       id="clipPath19">
      <path
         d="M 0,1190.551 H 841.89 V 0 H 0 Z"
         transform="translate(-982.03165,-162.8955)"
         id="path19" />
    </clipPath>
    <clipPath
       clipPathUnits="userSpaceOnUse"
       id="clipPath23">
      <path
         d="M 0,1190.551 H 841.89 V 0 H 0 Z"
         transform="translate(-307.23591,-161.92838)"
         id="path23" />
    </clipPath>
    <clipPath
       clipPathUnits="userSpaceOnUse"
       id="clipPath25">
      <path
         d="M 0,1190.551 H 841.89 V 0 H 0 Z"
         transform="translate(-302.26681,-16.556325)"
         id="path25" />
    </clipPath>
  </defs>
  <sodipodi:namedview
     id="namedview1"
     pagecolor="#ffffff"
     bordercolor="#000000"
     borderopacity="0.25"
     inkscape:showpageshadow="2"
     inkscape:pageopacity="0.0"
     inkscape:pagecheckerboard="0"
     inkscape:deskcolor="#d1d1d1"
     inkscape:zoom="0.54743604"
     inkscape:cx="560.7961"
     inkscape:cy="793.70002"
     inkscape:window-width="1920"
     inkscape:window-height="1044"
     inkscape:window-x="0"
     inkscape:window-y="20"
     inkscape:window-maximized="1"
     inkscape:current-layer="layer-MC0">
    <inkscape:page
       x="0"
       y="0"
       inkscape:label="1"
       id="page1"
       width="1122.52"
       height="1587.4"
       margin="0"
       bleed="0" />
  </sodipodi:namedview>
  <g
     id="layer-MC0"
     inkscape:groupmode="layer"
     inkscape:label="Layer 1">
    <path
       id="path1"
       d="M 0,0 H 841.89 V 1190.552 H 0 Z"
       style="fill:#4397d9;fill-opacity:1;fill-rule:nonzero;stroke:none"
       transform="matrix(1.3333333,0,0,-1.3333333,0,1587.4)" />
    <path
       id="path2"
       d="M 0,0 C 0,76.798 -60.464,141.347 -136.449,146.249 -60.464,151.969 0,216.514 0,293.316 0,374.203 -66.184,440.379 -147.071,440.379 l -147.067,10e-4 h -294.13 V 293.317 l 278.61,-0.001 C -383.193,285.144 -441.201,223.052 -441.201,147.063 -441.201,66.181 -375.021,0 -294.138,0 h -294.13 v -147.067 h 441.197 C -66.184,-147.067 0,-80.887 0,0"
       style="fill:#5fb63e;fill-opacity:1;fill-rule:nonzero;stroke:none"
       transform="matrix(1.3333333,0,0,-1.3333333,783.83867,34.564267)"
       clip-path="url(#clipPath3)" />
    <path
       id="path4"
       d="M 43.803673,-2.28125e-4 V -27.398666 l -8.71875,19.2656254 H 27.467736 L 18.748986,-27.398666 V -2.28125e-4 H 4.4638297 V -52.008041 H 20.073205 l 11.203125,24.46875 11.273437,-24.46875 H 58.077111 V -2.28125e-4 Z M 79.021447,-52.008041 H 94.994103 L 111.54098,-2.28125e-4 H 97.044884 L 93.892541,-10.183822 H 80.052697 L 76.970666,-2.28125e-4 H 62.392541 Z m 12.597656,32.308594 -4.605469,-18.316406 -4.839843,18.316406 z M 115.85934,-2.28125e-4 V -52.008041 h 20.0039 c 5.75684,0 10.57618,1.160157 14.46094,3.480469 3.88184,2.320313 6.81152,5.446289 8.78906,9.375 1.97461,3.931641 2.96485,8.291016 2.96485,13.078125 0,5.273438 -1.08692,9.864258 -3.25782,13.769531 -2.17382,3.9082035 -5.22363,6.9345707 -9.15234,9.0820316 -3.93164,2.1503907 -8.53125,3.222656275 -13.80469,3.222656275 z M 147.58199,-26.074447 c 0,-2.686523 -0.46582,-5.041992 -1.39453,-7.066406 -0.93164,-2.030274 -2.27344,-3.603516 -4.03125,-4.722656 -1.75781,-1.125 -3.85547,-1.6875 -6.29297,-1.6875 h -5.71875 v 27.09375 h 5.71875 c 2.48438,0 4.59375,-0.585938 6.32813,-1.757813 1.73437,-1.171875 3.06445,-2.791992 3.99609,-4.863281 0.92871,-2.077149 1.39453,-4.40918 1.39453,-6.996094 z m 57.78223,13.617188 V -2.28125e-4 H 168.29781 V -52.008041 h 36.41016 v 12.457032 h -22.125 v 7.324218 h 18.90234 v 11.566407 h -18.90234 v 8.203125 z m 0,0"
       style="fill:#ffffff;fill-opacity:1;fill-rule:nonzero;stroke:none"
       aria-label="MADE"
       transform="matrix(1.3333333,0,0,1.3333333,30.302133,164.10187)" />
    <path
       id="path5"
       d="M 0,0 C -6.788,0 -12.494,-5.344 -12.927,-12.061 -13.433,-5.344 -19.138,0 -25.927,0 -33.076,0 -38.926,-5.85 -38.926,-13 v -12.999 -25.999 h 12.999 v 24.627 c 0.723,-6.5 6.211,-11.627 12.928,-11.627 7.149,0 12.999,5.849 12.999,12.999 V -51.998 H 12.999 V -13 C 12.999,-5.85 7.15,0 0,0"
       style="fill:#ffffff;fill-opacity:1;fill-rule:nonzero;stroke:none"
       transform="matrix(1.3333333,0,0,-1.3333333,593.54067,94.770667)"
       clip-path="url(#clipPath6)" />
    <path
       id="path7"
       d="m 382.687,1067.474 h 12.999 v 51.998 h -12.999 z"
       style="fill:#ffffff;fill-opacity:1;fill-rule:nonzero;stroke:none"
       transform="matrix(1.3333333,0,0,-1.3333333,0,1587.4)"
       clip-path="url(#clipPath8)" />
    <path
       id="path9"
       d="M 0,0 H 13 C 13,7.15 7.15,13 0,13 -7.149,13 -12.999,7.15 -12.999,0 v -25.999 c 0,-7.149 5.85,-12.999 12.999,-12.999 7.15,0 13,5.85 13,12.999 H 0 Z"
       style="fill:#ffffff;fill-opacity:1;fill-rule:nonzero;stroke:none"
       transform="matrix(1.3333333,0,0,-1.3333333,492.91587,112.1036)"
       clip-path="url(#clipPath10)" />
    <path
       id="path11"
       d="m 296.675,1067.474 h 51.997 v 12.999 h -51.997 z"
       style="fill:#ffffff;fill-opacity:1;fill-rule:nonzero;stroke:none"
       transform="matrix(1.3333333,0,0,-1.3333333,0,1587.4)"
       clip-path="url(#clipPath12)" />
    <path
       id="path13"
       d="M 0,0 50.192,13.433 46.798,25.999 -3.395,12.566 Z"
       style="fill:#ffffff;fill-opacity:1;fill-rule:nonzero;stroke:none"
       transform="matrix(1.3333333,0,0,-1.3333333,399.0336,146.76853)"
       clip-path="url(#clipPath14)" />
    <path
       id="path15"
       d="m 296.675,1106.472 h 51.997 v 12.999 h -51.997 z"
       style="fill:#ffffff;fill-opacity:1;fill-rule:nonzero;stroke:none"
       transform="matrix(1.3333333,0,0,-1.3333333,0,1587.4)"
       clip-path="url(#clipPath16)" />
    <path
       id="path17"
       d="m 30.09375,-42.702355 c 3.492187,0 6.84375,0.533203 10.054687,1.59375 3.210938,1.063477 6.09961,2.692383 8.671875,4.886719 2.578125,2.197266 4.608399,4.992188 6.09375,8.390625 1.491211,3.398438 2.238282,7.458984 2.238282,12.175781 0,0.805664 -0.06445,1.883789 -0.1875,3.234375 -0.117188,1.344727 -0.363282,2.7978519 -0.738282,4.3593753 -0.375,1.5556641 -0.978515,3.0292969 -1.804687,4.4179688 -0.829102,1.3916015 -1.951172,2.5371093 -3.363281,3.43359371 -1.415039,0.89648438 -3.208008,1.34765629 -5.378907,1.34765629 -1.751953,0 -3.146484,-0.28710941 -4.183593,-0.85546879 -1.040039,-0.5625 -1.798828,-1.24511718 -2.273438,-2.05078121 -0.46875,-0.8027344 -0.773437,-1.5585938 -0.914062,-2.2617188 -1.602539,1.4619141 -3.442383,2.5722656 -5.519532,3.32812501 -2.080078,0.75 -4.227539,1.125 -6.445312,1.125 -3.585938,0 -6.313477,-0.92871093 -8.179688,-2.78906251 -1.86914,-1.8662109 -2.800781,-4.3359375 -2.800781,-7.40625 0,-2.7333988 0.635742,-4.8896488 1.910156,-6.4687498 1.280274,-1.584961 2.932618,-2.72168 4.957032,-3.410156 2.030273,-0.685547 4.130859,-1.03125 6.304687,-1.03125 1.795899,0 3.295899,0.158203 4.5,0.46875 1.201172,0.304687 2.112305,0.621093 2.730469,0.949218 0,-1.271484 -0.216797,-2.393554 -0.644531,-3.363281 -0.421875,-0.966797 -1.177735,-1.722656 -2.261719,-2.261719 -1.086914,-0.544922 -2.62207,-0.820312 -4.605469,-0.820312 -1.986328,0 -3.74414,0.263672 -5.273437,0.785156 -1.532227,0.515625 -2.771485,1.224609 -3.714844,2.121094 l -2.273438,-6.867188 c 1.795899,-1.224609 3.767579,-2.109375 5.917969,-2.648437 2.147461,-0.544922 4.376953,-0.820313 6.691406,-0.820313 3.398438,0 6.052735,0.486328 7.96875,1.453125 1.913086,0.969727 3.292969,2.232422 4.136719,3.785157 0.84961,1.555664 1.371094,3.196289 1.558594,4.921875 0.1875,1.728515 0.28125,3.36914 0.28125,4.921875 v 4.746093 c 0,1.368164 0.05859,2.739258 0.175781,4.1132816 0.123047,1.368164 0.433594,2.4902343 0.925781,3.3632812 0.498047,0.8671875 1.291993,1.3007813 2.378907,1.3007813 1.130859,0 2.027343,-0.4335938 2.683593,-1.3007813 0.66211,-0.8730469 1.160157,-1.9599609 1.488282,-3.2578125 0.328125,-1.3037113 0.539062,-2.5810543 0.632812,-3.8320313 0.09961,-1.248047 0.152344,-2.25293 0.152344,-3.011719 0,-3.164062 -0.521484,-6.076172 -1.558594,-8.742187 -1.040039,-2.663086 -2.52832,-4.97461 -4.464844,-6.9375 -1.939453,-1.959961 -4.277343,-3.47168 -7.019531,-4.535156 -2.736328,-1.060547 -5.824219,-1.59375 -9.269531,-1.59375 -3.398438,0 -6.457031,0.533203 -9.175781,1.59375 -2.712891,1.063476 -5.000977,2.563476 -6.867188,4.5 -1.860351,1.939453 -3.287109,4.21582 -4.2773435,6.832031 -0.9931641,2.61914 -1.4882813,5.484375 -1.4882813,8.601562 0,2.976563 0.4570313,5.777344 1.3710938,8.4023441 0.919922,2.6191406 2.267578,4.9072265 4.042969,6.86718746 1.772461,1.95117184 3.93164,3.49511724 6.480468,4.62890624 2.545899,1.1308594 5.472657,1.6992188 8.777344,1.6992188 2.460938,0 4.50293,-0.2871094 6.128906,-0.8554688 1.631836,-0.5625 3.319336,-1.171875 5.0625,-1.828125 l 1.417969,4.8164063 c -2.033203,0.9375 -4.145508,1.640625 -6.339844,2.109375 -2.197265,0.4746089 -4.356445,0.7148439 -6.480468,0.7148439 -3.539063,0 -6.867188,-0.6269533 -9.984375,-1.8750002 C 15.222656,7.2107313 12.495117,5.4294813 10.160156,3.1179578 7.8222656,0.80350469 5.9824219,-1.9914172 4.640625,-5.2726672 3.2958984,-8.5539172 2.625,-12.248253 2.625,-16.358605 c 0,-4.341797 0.7412109,-8.15625 2.2265625,-11.4375 1.4824219,-3.28125 3.4980469,-6.029297 6.0468755,-8.25 2.554687,-2.217773 5.484374,-3.881836 8.789062,-4.992187 3.304687,-1.107422 6.773437,-1.664063 10.40625,-1.664063 z m 2.835937,35.6250003 c 0.421875,-0.2402344 0.84375,-0.5273437 1.265625,-0.8554687 0.427735,-0.328125 0.785157,-0.703125 1.066407,-1.125 0.287109,-0.4277344 0.433593,-0.9023438 0.433593,-1.4179686 v -2.90625 c -0.711914,-0.28125 -1.716796,-0.574219 -3.011718,-0.878906 -1.297852,-0.310547 -2.633789,-0.46875 -4.007813,-0.46875 -1.274414,0 -2.326172,0.18164 -3.152344,0.539062 -0.820312,0.351563 -1.435546,0.896484 -1.839843,1.628906 -0.398438,0.726563 -0.597657,1.634766 -0.597657,2.7187503 0,0.8994141 0.140625,1.6464844 0.421875,2.2382813 0.28711,0.5859375 0.75,1.0195312 1.382813,1.3007812 0.638672,0.28125 1.432617,0.421875 2.378906,0.421875 0.65625,0 1.538086,-0.082031 2.648438,-0.2460937 1.107422,-0.1640625 2.112304,-0.4804688 3.011718,-0.9492188 z m 0,0"
       style="fill:#ffffff;fill-opacity:1;fill-rule:nonzero;stroke:none"
       aria-label="@"
       transform="matrix(1.3333333,0,0,1.3333333,308.75,156.24507)" />
    <path
       id="path18"
       d="M 0,0 V -279.364 C 153.646,-279.364 279.364,-153.646 279.364,0 279.364,153.638 153.646,279.349 0,279.349 H -558.705 C -712.35,279.349 -838.061,153.638 -838.061,0 c 0,-153.646 125.711,-279.364 279.356,-279.364 V 0 Z"
       style="fill:#f7f11f;fill-opacity:1;fill-rule:nonzero;stroke:none"
       transform="matrix(1.3333333,0,0,-1.3333333,1309.3755,1370.206)"
       clip-path="url(#clipPath19)" />
    <path
       id="path20"
       d="M 3.0337031,7.1018362e-4 V -26.939489 H 14.342297 c 1.209961,0 2.320312,0.255156 3.328125,0.765468 1.013672,0.504996 1.901367,1.17478 2.660156,2.009352 0.764649,0.829256 1.347656,1.772801 1.746094,2.827976 0.404297,1.04986 0.609375,2.102378 0.609375,3.157553 0,1.496383 -0.336914,2.913029 -1.007813,4.252597 -0.665039,1.339568 -1.605468,2.434611 -2.824218,3.28513 -1.212891,0.845204 -2.642578,1.2651479 -4.289063,1.2651479 H 7.3227656 V 7.1018362e-4 Z M 7.3227656,-13.129182 h 6.9843754 c 0.779297,0 1.476562,-0.217945 2.085937,-0.659152 0.609375,-0.446523 1.089844,-1.052518 1.441406,-1.817985 0.351563,-0.770783 0.527344,-1.639908 0.527344,-2.604715 0,-0.983413 -0.205078,-1.84988 -0.609375,-2.594084 -0.398437,-0.74952 -0.922851,-1.334252 -1.570312,-1.754196 -0.650391,-0.417286 -1.335938,-0.627258 -2.0625,-0.627258 H 7.3227656 Z M 34.683117,0.38344387 c -1.570312,0 -2.976562,-0.2737609 -4.21875,-0.81862483 -1.236328,-0.54486392 -2.302734,-1.29704194 -3.199219,-2.25387614 -0.899414,-0.96215 -1.59082,-2.0571936 -2.074218,-3.2851308 -0.477539,-1.2252794 -0.714844,-2.5223213 -0.714844,-3.8911258 0,-1.4166463 0.237305,-2.7376093 0.714844,-3.9655463 0.483398,-1.225279 1.174804,-2.317665 2.074218,-3.274499 0.896485,-0.96215 1.97168,-1.716986 3.222657,-2.264508 1.248047,-0.544864 2.648437,-0.818625 4.195312,-0.818625 1.561524,0 2.956055,0.273761 4.183594,0.818625 1.224609,0.547522 2.296875,1.302358 3.210937,2.264508 0.914063,0.956834 1.608399,2.04922 2.085938,3.274499 0.483398,1.227937 0.726562,2.5489 0.726562,3.9655463 0,1.3688045 -0.243164,2.6658464 -0.726562,3.8911258 -0.477539,1.2279372 -1.166016,2.3229808 -2.0625,3.2851308 -0.899414,0.9568342 -1.977539,1.70901222 -3.234375,2.25387614 -1.250977,0.54486393 -2.645508,0.81862483 -4.183594,0.81862483 z M 28.765148,-9.9078397 c 0,1.297042 0.263672,2.4532166 0.796875,3.4658662 0.530274,1.0073338 1.236329,1.8020378 2.121094,2.381454 0.881836,0.5820742 1.866211,0.8717823 2.953125,0.8717823 1.139649,0 2.150391,-0.2897081 3.035156,-0.8717823 0.890625,-0.5794162 1.59961,-1.3874096 2.132813,-2.42398 0.530273,-1.0418861 0.796875,-2.1821136 0.796875,-3.4233402 0,-1.2598313 -0.266602,-2.4027173 -0.796875,-3.4233403 -0.533203,-1.025939 -1.248047,-1.831274 -2.144531,-2.413348 -0.899414,-0.579417 -1.892578,-0.871783 -2.976563,-0.871783 -1.11914,0 -2.118164,0.305656 -3,0.914309 -0.884765,0.603337 -1.59082,1.41133 -2.121094,2.42398 -0.533203,1.015307 -0.796875,2.136929 -0.796875,3.3701823 z M 55.65968,0.38344387 c -1.672852,0 -3.254883,-0.27641877 -4.746094,-0.82925632 C 49.419445,-1.0039657 48.142102,-1.8305642 47.081555,-2.9229499 l 1.523437,-2.7641877 c 1.163086,0.9860708 2.320313,1.7116701 3.46875,2.1794557 1.148438,0.4677856 2.291016,0.7016784 3.433594,0.7016784 1.186523,0 2.138672,-0.2179456 2.859375,-0.6591525 0.726562,-0.4465226 1.089844,-1.0977014 1.089844,-1.9561944 0,-0.6378894 -0.199219,-1.105675 -0.597657,-1.4033568 -0.392578,-0.3029975 -0.946289,-0.5687848 -1.664062,-0.7973618 -0.720703,-0.2259192 -1.570313,-0.481075 -2.554688,-0.7654674 -1.40039,-0.4252597 -2.586914,-0.8717823 -3.5625,-1.3395679 -0.969726,-0.4677857 -1.696289,-1.0418857 -2.179687,-1.7223017 -0.477539,-0.685731 -0.714844,-1.562829 -0.714844,-2.625978 0,-1.267806 0.328125,-2.354876 0.984375,-3.263868 0.65625,-0.914308 1.573242,-1.615987 2.753906,-2.105035 1.177735,-0.494365 2.53711,-0.744205 4.078125,-0.744205 1.444336,0 2.780274,0.223262 4.007813,0.669784 1.224609,0.441207 2.308594,1.126938 3.246094,2.06251 l -1.792969,2.732293 c -0.861328,-0.778757 -1.757813,-1.355515 -2.695313,-1.732933 -0.93164,-0.382734 -1.927734,-0.574101 -2.988281,-0.574101 -0.585937,0 -1.166015,0.07176 -1.734375,0.21263 -0.5625,0.135552 -1.037109,0.388049 -1.417969,0.754836 -0.383789,0.361471 -0.574218,0.871782 -0.574218,1.530935 0,0.560811 0.155273,0.99936 0.46875,1.318305 0.319336,0.313629 0.785156,0.582074 1.394531,0.807993 0.609375,0.228577 1.353516,0.478417 2.238281,0.754836 1.546875,0.433233 2.862305,0.877098 3.949219,1.328936 1.083984,0.4544964 1.924805,1.0312548 2.519531,1.7329333 0.591797,0.6963626 0.890625,1.6478811 0.890625,2.8598711 0,1.9003791 -0.714844,3.3967615 -2.144531,4.4864893 -1.429688,1.08441211 -3.333984,1.62661817 -5.707031,1.62661817 z M 78.235852,-1.019913 c -0.328125,0.1488409 -0.773438,0.334892 -1.335938,0.55283757 -0.556641,0.21262982 -1.160156,0.39336517 -1.816406,0.54220605 -0.65625,0.15415663 -1.341797,0.23389281 -2.050781,0.23389281 -0.861329,0 -1.658204,-0.15947237 -2.390625,-0.47841711 C 69.90675,-0.48833841 69.317883,-0.97207127 68.87257,-1.625908 68.433117,-2.2850604 68.21632,-3.1355797 68.21632,-4.1774659 V -16.616311 h -2.660156 v -3.231973 h 2.660156 v -6.517104 h 4.171875 v 6.517104 h 4.324219 v 3.231973 h -4.324219 v 11.0780142 c 0.05273,0.6804155 0.275391,1.1880692 0.667969,1.5203033 0.389649,0.3269183 0.878906,0.4890486 1.464844,0.4890486 0.577148,0 1.136719,-0.1063149 1.675781,-0.3189448 0.544922,-0.2179455 0.919922,-0.3774179 1.125,-0.4784171 z m 11.607421,1.40335687 c -1.570312,0 -2.976562,-0.2737609 -4.21875,-0.81862483 -1.236328,-0.54486392 -2.308593,-1.28906834 -3.222656,-2.23261314 -0.908203,-0.9488606 -1.605469,-2.0359306 -2.097656,-3.2638678 -0.492188,-1.233253 -0.738281,-2.530295 -0.738281,-3.8911258 0,-1.8977213 0.427734,-3.6306543 1.289062,-5.1987993 0.858399,-1.573461 2.06543,-2.827977 3.621094,-3.763548 1.552734,-0.935571 3.342773,-1.403357 5.367187,-1.403357 2.100586,0 3.902344,0.47576 5.402344,1.42462 1.50586,0.951519 2.677735,2.198061 3.515625,3.742285 0.834961,1.538908 1.253908,3.194763 1.253908,4.964906 0,0.3056558 -0.01758,0.5927061 -0.04688,0.8611512 -0.02344,0.2631295 -0.04687,0.4677857 -0.07031,0.6166265 h -15.9375 c 0.123047,1.1907271 0.462891,2.2219817 1.019531,3.093764 0.5625,0.8717823 1.283203,1.5575135 2.167969,2.0518778 0.890625,0.4970222 1.828125,0.7442044 2.8125,0.7442044 1.139648,0 2.206055,-0.2764188 3.199219,-0.8292563 0.999023,-0.5581533 1.678711,-1.297042 2.039062,-2.2113502 l 3.5625,1.0206232 c -0.430664,0.9648078 -1.089844,1.8339322 -1.980469,2.6047153 -0.884765,0.773441 -1.916015,1.38209388 -3.09375,1.82861651 -1.171875,0.43854902 -2.455078,0.65915246 -3.84375,0.65915246 z M 83.890148,-11.311197 H 95.87843 c -0.102539,-1.16149 -0.427735,-2.171482 -0.972657,-3.029975 -0.539062,-0.855835 -1.253906,-1.533592 -2.144531,-2.030614 -0.884765,-0.494365 -1.845703,-0.744205 -2.882812,-0.744205 -1.063477,0 -2.033203,0.24984 -2.90625,0.744205 -0.867188,0.497022 -1.582032,1.174779 -2.144532,2.030614 -0.55664,0.858493 -0.867187,1.868485 -0.9375,3.029975 z m 27.656252,1.4033573 c 0,-1.8924053 0.38086,-3.6147073 1.14844,-5.1669043 0.77343,-1.557514 1.83105,-2.79874 3.17578,-3.721022 1.34179,-0.927598 2.88574,-1.392726 4.6289,-1.392726 1.54688,0 2.93262,0.393365 4.16016,1.180096 1.22461,0.78673 2.16797,1.74888 2.82422,2.881134 v -11.567063 h 4.17187 v 22.9852846 c 0,0.4624698 0.085,0.7973618 0.25782,1.0099916 0.17871,0.2126299 0.47168,0.334892 0.8789,0.3614707 V 7.1018362e-4 C 132.0337,0.12828808 131.42726,0.20270852 130.97609,0.2239715 c -0.79102,0 -1.4502,-0.23389281 -1.98047,-0.70167842 -0.53321,-0.46778562 -0.82032,-1.01530738 -0.86719,-1.64788118 l -0.0352,-1.4352513 c -0.79101,1.233253 -1.82519,2.2007187 -3.10547,2.90239713 -1.27441,0.6937048 -2.60742,1.04188614 -3.99609,1.04188614 -1.36816,0 -2.625,-0.2737609 -3.77344,-0.81862483 -1.14843,-0.54486392 -2.15039,-1.28906834 -3,-2.23261314 -0.84375,-0.9488606 -1.5,-2.0359306 -1.96875,-3.2638678 -0.46875,-1.233253 -0.70312,-2.5568737 -0.70312,-3.9761778 z m 15.9375,2.7748193 V -12.33182 c -0.28125,-0.807993 -0.73242,-1.525619 -1.34766,-2.158192 -0.61816,-0.63789 -1.3125,-1.150859 -2.08594,-1.541567 -0.77343,-0.388049 -1.55273,-0.584732 -2.33203,-0.584732 -0.86132,0 -1.65234,0.191367 -2.3789,0.574101 -0.72071,0.377418 -1.3418,0.877098 -1.86328,1.49904 -0.51563,0.616627 -0.91407,1.33691 -1.19532,2.158193 -0.27539,0.82394 -0.41015,1.677118 -0.41015,2.5621893 0,0.8877295 0.15234,1.732933 0.45703,2.5409264 0.30469,0.8079933 0.73828,1.525619 1.30078,2.1475612 0.56836,0.6166265 1.22461,1.0950436 1.96875,1.4352513 0.75,0.3402077 1.57031,0.5103116 2.46094,0.5103116 0.55371,0 1.11621,-0.090368 1.6875,-0.2764188 0.56836,-0.1913668 1.10449,-0.4624698 1.60547,-0.8186248 0.50683,-0.3534971 0.94921,-0.7760989 1.32421,-1.2651475 0.38086,-0.4943643 0.6504,-1.023281 0.8086,-1.5840921 z m 18.47461,7.51646427 c -1.57031,0 -2.97656,-0.2737609 -4.21875,-0.81862483 -1.23633,-0.54486392 -2.3086,-1.28906834 -3.22266,-2.23261314 -0.9082,-0.9488606 -1.60547,-2.0359306 -2.09765,-3.2638678 -0.49219,-1.233253 -0.73829,-2.530295 -0.73829,-3.8911258 0,-1.8977213 0.42774,-3.6306543 1.28907,-5.1987993 0.8584,-1.573461 2.06543,-2.827977 3.62109,-3.763548 1.55273,-0.935571 3.34277,-1.403357 5.36719,-1.403357 2.10058,0 3.90234,0.47576 5.40234,1.42462 1.50586,0.951519 2.67774,2.198061 3.51563,3.742285 0.83496,1.538908 1.2539,3.194763 1.2539,4.964906 0,0.3056558 -0.0176,0.5927061 -0.0469,0.8611512 -0.0234,0.2631295 -0.0469,0.4677857 -0.0703,0.6166265 h -15.9375 c 0.12304,1.1907271 0.46289,2.2219817 1.01953,3.093764 0.5625,0.8717823 1.2832,1.5575135 2.16797,2.0518778 0.89062,0.4970222 1.82812,0.7442044 2.8125,0.7442044 1.13964,0 2.20605,-0.2764188 3.19921,-0.8292563 0.99903,-0.5581533 1.67872,-1.297042 2.03907,-2.2113502 l 3.5625,1.0206232 c -0.43067,0.9648078 -1.08985,1.8339322 -1.98047,2.6047153 -0.88477,0.773441 -1.91602,1.38209388 -3.09375,1.82861651 -1.17188,0.43854902 -2.45508,0.65915246 -3.84375,0.65915246 z M 140.00538,-11.311197 h 11.98828 c -0.10253,-1.16149 -0.42773,-2.171482 -0.97265,-3.029975 -0.53906,-0.855835 -1.25391,-1.533592 -2.14453,-2.030614 -0.88477,-0.494365 -1.84571,-0.744205 -2.88282,-0.744205 -1.06347,0 -2.0332,0.24984 -2.90625,0.744205 -0.86718,0.497022 -1.58203,1.174779 -2.14453,2.030614 -0.55664,0.858493 -0.86718,1.868485 -0.9375,3.029975 z M 159.54347,7.1018362e-4 V -19.848284 h 4.17187 V 7.1018362e-4 Z m 0,-23.11286218362 v -4.582173 h 4.17187 v 4.582173 z m 26.9707,23.11286218362 h -4.13672 V -11.11983 c 0,-1.871142 -0.30468,-3.226657 -0.91406,-4.071861 -0.60351,-0.850519 -1.48535,-1.275779 -2.64844,-1.275779 -0.81445,0 -1.61718,0.209972 -2.41406,0.627258 -0.79687,0.419944 -1.50586,0.972782 -2.12109,1.658513 -0.61817,0.680415 -1.07813,1.475119 -1.38282,2.381454 V 7.1018362e-4 h -4.17187 V -19.848284 h 3.79687 v 3.954915 c 0.49805,-0.885072 1.1543,-1.642566 1.96875,-2.275139 0.81153,-0.63789 1.73438,-1.132254 2.76563,-1.488409 1.03711,-0.353497 2.13867,-0.531575 3.30469,-0.531575 1.18652,0 2.1709,0.217946 2.95312,0.648521 0.78809,0.433234 1.39746,1.020623 1.82813,1.764828 0.42773,0.744204 0.72949,1.605355 0.90234,2.583452 0.17871,0.972782 0.26953,1.998721 0.26953,3.083133 z M 200.36573,0.38344387 c -1.57031,0 -2.97656,-0.2737609 -4.21875,-0.81862483 -1.23632,-0.54486392 -2.30859,-1.28906834 -3.22265,-2.23261314 -0.9082,-0.9488606 -1.60547,-2.0359306 -2.09766,-3.2638678 -0.49219,-1.233253 -0.73828,-2.530295 -0.73828,-3.8911258 0,-1.8977213 0.42774,-3.6306543 1.28906,-5.1987993 0.8584,-1.573461 2.06543,-2.827977 3.6211,-3.763548 1.55273,-0.935571 3.34277,-1.403357 5.36718,-1.403357 2.10059,0 3.90235,0.47576 5.40235,1.42462 1.50586,0.951519 2.67773,2.198061 3.51562,3.742285 0.83496,1.538908 1.25391,3.194763 1.25391,4.964906 0,0.3056558 -0.0176,0.5927061 -0.0469,0.8611512 -0.0234,0.2631295 -0.0469,0.4677857 -0.0703,0.6166265 h -15.9375 c 0.12305,1.1907271 0.46289,2.2219817 1.01953,3.093764 0.5625,0.8717823 1.28321,1.5575135 2.16797,2.0518778 0.89063,0.4970222 1.82813,0.7442044 2.8125,0.7442044 1.13965,0 2.20606,-0.2764188 3.19922,-0.8292563 0.99902,-0.5581533 1.67871,-1.297042 2.03906,-2.2113502 l 3.5625,1.0206232 c -0.43066,0.9648078 -1.08984,1.8339322 -1.98047,2.6047153 -0.88476,0.773441 -1.91601,1.38209388 -3.09375,1.82861651 -1.17187,0.43854902 -2.45507,0.65915246 -3.84375,0.65915246 z M 194.41261,-11.311197 h 11.98828 c -0.10254,-1.16149 -0.42773,-2.171482 -0.97266,-3.029975 -0.53906,-0.855835 -1.2539,-1.533592 -2.14453,-2.030614 -0.88476,-0.494365 -1.8457,-0.744205 -2.88281,-0.744205 -1.06348,0 -2.0332,0.24984 -2.90625,0.744205 -0.86719,0.497022 -1.58203,1.174779 -2.14453,2.030614 -0.55664,0.858493 -0.86719,1.868485 -0.9375,3.029975 z M 223.85011,7.1018362e-4 V -26.939489 h 11.30859 c 1.20996,0 2.32032,0.255156 3.32813,0.765468 1.01367,0.504996 1.90137,1.17478 2.66015,2.009352 0.76465,0.829256 1.34766,1.772801 1.7461,2.827976 0.4043,1.04986 0.60937,2.102378 0.60937,3.157553 0,1.496383 -0.33691,2.913029 -1.00781,4.252597 -0.66504,1.339568 -1.60547,2.434611 -2.82422,3.28513 -1.21289,0.845204 -2.64258,1.2651479 -4.28906,1.2651479 h -7.24219 V 7.1018362e-4 Z M 228.13917,-13.129182 h 6.98438 c 0.77929,0 1.47656,-0.217945 2.08593,-0.659152 0.60938,-0.446523 1.08985,-1.052518 1.44141,-1.817985 0.35156,-0.770783 0.52734,-1.639908 0.52734,-2.604715 0,-0.983413 -0.20507,-1.84988 -0.60937,-2.594084 -0.39844,-0.74952 -0.92285,-1.334252 -1.57031,-1.754196 -0.65039,-0.417286 -1.33594,-0.627258 -2.0625,-0.627258 h -6.79688 z m 29.92969,-3.115026 c -1.59375,0.02924 -3.01758,0.39868 -4.26563,1.105675 -1.25097,0.709652 -2.1416,1.709012 -2.67187,2.99808 V 7.1018362e-4 h -4.17188 V -19.848284 h 3.83204 v 4.401437 c 0.70312,-1.339568 1.60839,-2.418664 2.71875,-3.242604 1.11621,-0.821283 2.28515,-1.267806 3.5039,-1.339568 0.27246,0 0.49219,0 0.65625,0 0.16406,0 0.2959,0.01063 0.39844,0.03189 z m 11.65723,16.62765187 c -1.57032,0 -2.97657,-0.2737609 -4.21875,-0.81862483 -1.23633,-0.54486392 -2.30274,-1.29704194 -3.19922,-2.25387614 -0.89942,-0.96215 -1.59082,-2.0571936 -2.07422,-3.2851308 -0.47754,-1.2252794 -0.71485,-2.5223213 -0.71485,-3.8911258 0,-1.4166463 0.23731,-2.7376093 0.71485,-3.9655463 0.4834,-1.225279 1.1748,-2.317665 2.07422,-3.274499 0.89648,-0.96215 1.97168,-1.716986 3.22265,-2.264508 1.24805,-0.544864 2.64844,-0.818625 4.19532,-0.818625 1.56152,0 2.95605,0.273761 4.18359,0.818625 1.22461,0.547522 2.29687,1.302358 3.21094,2.264508 0.91406,0.956834 1.6084,2.04922 2.08593,3.274499 0.4834,1.227937 0.72657,2.5489 0.72657,3.9655463 0,1.3688045 -0.24317,2.6658464 -0.72657,3.8911258 -0.47753,1.2279372 -1.16601,2.3229808 -2.0625,3.2851308 -0.89941,0.9568342 -1.97753,1.70901222 -3.23437,2.25387614 -1.25098,0.54486393 -2.64551,0.81862483 -4.18359,0.81862483 z M 263.80812,-9.9078397 c 0,1.297042 0.26367,2.4532166 0.79687,3.4658662 0.53028,1.0073338 1.23633,1.8020378 2.1211,2.381454 0.88183,0.5820742 1.86621,0.8717823 2.95312,0.8717823 1.13965,0 2.15039,-0.2897081 3.03516,-0.8717823 0.89062,-0.5794162 1.59961,-1.3874096 2.13281,-2.42398 0.53027,-1.0418861 0.79687,-2.1821136 0.79687,-3.4233402 0,-1.2598313 -0.2666,-2.4027173 -0.79687,-3.4233403 -0.5332,-1.025939 -1.24805,-1.831274 -2.14453,-2.413348 -0.89942,-0.579417 -1.89258,-0.871783 -2.97656,-0.871783 -1.11914,0 -2.11817,0.305656 -3,0.914309 -0.88477,0.603337 -1.59082,1.41133 -2.1211,2.42398 -0.5332,1.015307 -0.79687,2.136929 -0.79687,3.3701823 z m 17.7539,17.1592269 c -0.89062,0 -1.74902,-0.1355515 -2.57812,-0.4039966 -0.83496,-0.2631295 -1.57031,-0.6990206 -2.20313,-1.3076735 l 1.85157,-2.8067137 c 0.30468,0.3029975 0.67968,0.523601 1.125,0.6591525 0.43945,0.1408673 0.87597,0.2126298 1.3125,0.2126298 0.49804,0 0.96386,-0.1275779 1.39453,-0.3827337 0.42773,-0.24984 0.76758,-0.5900477 1.01953,-1.0206231 0.25781,-0.4332333 0.38672,-0.9249398 0.38672,-1.47777731 V -19.848284 h 4.17187 V 0.41533834 c 0,1.31830496 -0.30469,2.49308466 -0.91406,3.52965506 -0.60352,1.0418862 -1.38281,1.8525374 -2.34375,2.4346115 -0.96094,0.5794163 -2.03613,0.8717823 -3.22266,0.8717823 z m 2.3086,-30.3635392 v -4.582173 h 4.17187 v 4.582173 z M 302.0464,0.38344387 c -1.57031,0 -2.97656,-0.2737609 -4.21875,-0.81862483 -1.23633,-0.54486392 -2.3086,-1.28906834 -3.22266,-2.23261314 -0.9082,-0.9488606 -1.60547,-2.0359306 -2.09765,-3.2638678 -0.49219,-1.233253 -0.73829,-2.530295 -0.73829,-3.8911258 0,-1.8977213 0.42774,-3.6306543 1.28907,-5.1987993 0.8584,-1.573461 2.06543,-2.827977 3.62109,-3.763548 1.55274,-0.935571 3.34277,-1.403357 5.36719,-1.403357 2.10058,0 3.90234,0.47576 5.40234,1.42462 1.50586,0.951519 2.67774,2.198061 3.51563,3.742285 0.83496,1.538908 1.2539,3.194763 1.2539,4.964906 0,0.3056558 -0.0176,0.5927061 -0.0469,0.8611512 -0.0234,0.2631295 -0.0469,0.4677857 -0.0703,0.6166265 h -15.9375 c 0.12304,1.1907271 0.46289,2.2219817 1.01953,3.093764 0.5625,0.8717823 1.2832,1.5575135 2.16797,2.0518778 0.89062,0.4970222 1.82812,0.7442044 2.8125,0.7442044 1.13964,0 2.20605,-0.2764188 3.19921,-0.8292563 0.99903,-0.5581533 1.67872,-1.297042 2.03907,-2.2113502 l 3.5625,1.0206232 c -0.43067,0.9648078 -1.08985,1.8339322 -1.98047,2.6047153 -0.88477,0.773441 -1.91602,1.38209388 -3.09375,1.82861651 -1.17188,0.43854902 -2.45508,0.65915246 -3.84375,0.65915246 z M 296.09327,-11.311197 h 11.98828 c -0.10253,-1.16149 -0.42773,-2.171482 -0.97265,-3.029975 -0.53906,-0.855835 -1.25391,-1.533592 -2.14453,-2.030614 -0.88477,-0.494365 -1.84571,-0.744205 -2.88282,-0.744205 -1.06347,0 -2.0332,0.24984 -2.90625,0.744205 -0.86718,0.497022 -1.58203,1.174779 -2.14453,2.030614 -0.55664,0.858493 -0.86718,1.868485 -0.9375,3.029975 z M 329.43605,7.1018362e-4 323.06105,-9.1104778 319.80323,-6.0273454 V 7.1018362e-4 h -4.17187 V -27.694325 h 4.17187 v 17.446278 l 9.17579,-9.557711 h 4.48828 l -7.67578,8.313826 8.12109,11.49264218362 z M 347.46241,-1.019913 c -0.32812,0.1488409 -0.77343,0.334892 -1.33593,0.55283757 -0.55664,0.21262982 -1.16016,0.39336517 -1.81641,0.54220605 -0.65625,0.15415663 -1.3418,0.23389281 -2.05078,0.23389281 -0.86133,0 -1.6582,-0.15947237 -2.39063,-0.47841711 -0.73535,-0.31894473 -1.32421,-0.80267759 -1.76953,-1.45651432 -0.43945,-0.6591524 -0.65625,-1.5096717 -0.65625,-2.5515579 V -16.616311 h -2.66015 v -3.231973 h 2.66015 v -6.517104 h 4.17188 v 6.517104 h 4.32422 v 3.231973 h -4.32422 v 11.0780142 c 0.0527,0.6804155 0.27539,1.1880692 0.66797,1.5203033 0.38965,0.3269183 0.8789,0.4890486 1.46484,0.4890486 0.57715,0 1.13672,-0.1063149 1.67578,-0.3189448 0.54492,-0.2179455 0.91992,-0.3774179 1.125,-0.4784171 z m 11.60743,1.40335687 c -1.57032,0 -2.97657,-0.2737609 -4.21875,-0.81862483 -1.23633,-0.54486392 -2.3086,-1.28906834 -3.22266,-2.23261314 -0.9082,-0.9488606 -1.60547,-2.0359306 -2.09766,-3.2638678 -0.49218,-1.233253 -0.73828,-2.530295 -0.73828,-3.8911258 0,-1.8977213 0.42774,-3.6306543 1.28906,-5.1987993 0.8584,-1.573461 2.06543,-2.827977 3.6211,-3.763548 1.55273,-0.935571 3.34277,-1.403357 5.36719,-1.403357 2.10058,0 3.90234,0.47576 5.40234,1.42462 1.50586,0.951519 2.67773,2.198061 3.51562,3.742285 0.83497,1.538908 1.25391,3.194763 1.25391,4.964906 0,0.3056558 -0.0176,0.5927061 -0.0469,0.8611512 -0.0234,0.2631295 -0.0469,0.4677857 -0.0703,0.6166265 h -15.9375 c 0.12305,1.1907271 0.46289,2.2219817 1.01953,3.093764 0.5625,0.8717823 1.28321,1.5575135 2.16797,2.0518778 0.89063,0.4970222 1.82813,0.7442044 2.8125,0.7442044 1.13965,0 2.20606,-0.2764188 3.19922,-0.8292563 0.99903,-0.5581533 1.67871,-1.297042 2.03906,-2.2113502 l 3.5625,1.0206232 c -0.43066,0.9648078 -1.08984,1.8339322 -1.98046,2.6047153 -0.88477,0.773441 -1.91602,1.38209388 -3.09375,1.82861651 -1.17188,0.43854902 -2.45508,0.65915246 -3.84375,0.65915246 z M 353.11671,-11.311197 h 11.98828 c -0.10254,-1.16149 -0.42773,-2.171482 -0.97265,-3.029975 -0.53907,-0.855835 -1.25391,-1.533592 -2.14454,-2.030614 -0.88476,-0.494365 -1.8457,-0.744205 -2.88281,-0.744205 -1.06347,0 -2.0332,0.24984 -2.90625,0.744205 -0.86719,0.497022 -1.58203,1.174779 -2.14453,2.030614 -0.55664,0.858493 -0.86719,1.868485 -0.9375,3.029975 z M 2.5063594,40.59706 V 20.748065 h 4.171875 V 40.59706 Z m 0,-23.112862 v -4.582173 h 4.171875 v 4.582173 z M 42.039563,40.59706 H 37.902844 V 29.47652 c 0,-1.841906 -0.310547,-3.192106 -0.925781,-4.050598 -0.618165,-0.863809 -1.50879,-1.297042 -2.671875,-1.297042 -1.166016,0 -2.244141,0.435891 -3.234375,1.307673 -0.984375,0.871782 -1.69336,2.006694 -2.121094,3.402077 V 40.59706 H 24.777844 V 29.47652 c 0,-1.871143 -0.298828,-3.226658 -0.890625,-4.071861 -0.594727,-0.85052 -1.488281,-1.275779 -2.683594,-1.275779 -1.133789,0 -2.200195,0.425259 -3.199219,1.275779 -1.001953,0.845203 -1.716797,1.974799 -2.144531,3.391445 V 40.59706 H 11.688 V 20.748065 h 3.796875 v 3.954915 c 0.779297,-1.366147 1.807617,-2.42398 3.082031,-3.168184 1.280274,-0.74952 2.742188,-1.126938 4.382813,-1.126938 1.646484,0 2.944336,0.425259 3.890625,1.275779 0.952148,0.845203 1.552734,1.9243 1.804687,3.242604 0.834961,-1.467145 1.87793,-2.58611 3.128907,-3.359551 1.256835,-0.770783 2.695312,-1.158832 4.3125,-1.158832 1.163085,0 2.126953,0.217945 2.894531,0.648521 0.773437,0.433233 1.382812,1.020623 1.828125,1.764827 0.445312,0.744205 0.761719,1.605355 0.949219,2.583453 0.1875,0.972781 0.28125,1.99872 0.28125,3.083132 z m 37.371093,0 V 21.396586 L 71.477063,35.972361 H 68.980969 L 61.047375,21.396586 V 40.59706 H 56.758313 V 13.656861 h 4.558593 l 8.917969,16.425654 8.90625,-16.425654 h 4.558594 V 40.59706 Z m 8.15918,-5.804795 c 0,-1.267805 0.357422,-2.37348 1.078125,-3.317025 0.717773,-0.948861 1.713867,-1.682433 2.988281,-2.200719 1.280274,-0.523601 2.745117,-0.78673 4.394531,-0.78673 0.881836,0 1.775391,0.07176 2.683594,0.21263 0.914063,0.143525 1.737303,0.33755 2.472653,0.584732 v -1.243885 c 0,-1.395383 -0.41894,-2.482453 -1.253903,-3.263867 -0.83789,-0.786731 -2.036133,-1.180096 -3.597656,-1.180096 -1.119141,0 -2.167969,0.191367 -3.152344,0.574101 -0.984375,0.377417 -2.036133,0.943544 -3.152344,1.701038 l -1.359375,-2.838608 c 1.256836,-0.863809 2.557618,-1.514988 3.902344,-1.956194 1.341797,-0.446523 2.745117,-0.669784 4.207031,-0.669784 2.654297,0 4.740237,0.701678 6.257817,2.105035 1.52343,1.403357 2.28515,3.396761 2.28515,5.974898 v 7.399518 c 0,0.483733 0.085,0.826598 0.25781,1.031255 0.17872,0.19934 0.47168,0.313629 0.87891,0.340207 v 3.338289 c -0.375,0.07708 -0.71191,0.127577 -1.00781,0.14884 -0.29004,0.02658 -0.53613,0.05316 -0.73828,0.07442 -0.90821,-0.02126 -1.59082,-0.247182 -2.05078,-0.680416 -0.45411,-0.430575 -0.72071,-0.938229 -0.79688,-1.520303 l -0.10547,-1.137569 c -0.83789,1.113648 -1.933592,1.974799 -3.292967,2.583452 -1.353515,0.608653 -2.707031,0.914308 -4.066406,0.914308 -1.321289,0 -2.501953,-0.273761 -3.539062,-0.818625 -1.03125,-0.544864 -1.839844,-1.28641 -2.425782,-2.221981 -0.580078,-0.935572 -0.867187,-1.982773 -0.867187,-3.146921 z m 12.632814,1.254516 c 0.28125,-0.353497 0.51562,-0.693705 0.70312,-1.020623 0.1875,-0.332234 0.28125,-0.637889 0.28125,-0.914308 v -2.243245 c -0.71191,-0.276419 -1.458981,-0.481075 -2.238278,-0.616626 -0.782226,-0.140868 -1.541015,-0.21263 -2.273437,-0.21263 -1.546875,0 -2.797852,0.305655 -3.75,0.914308 -0.946289,0.603337 -1.417969,1.435251 -1.417969,2.498401 0,0.582074 0.155273,1.132253 0.46875,1.647881 0.319336,0.518285 0.776367,0.951518 1.371094,1.297042 0.600586,0.340207 1.330078,0.510311 2.191406,0.510311 0.928711,0 1.810547,-0.183393 2.648437,-0.552837 0.834961,-0.366787 1.50586,-0.802678 2.015627,-1.307674 z m 21.09668,3.529655 c -0.32813,0.148841 -0.77344,0.334892 -1.33594,0.552838 -0.55664,0.21263 -1.16016,0.393365 -1.81641,0.542206 -0.65625,0.154157 -1.34179,0.233893 -2.05078,0.233893 -0.86132,0 -1.6582,-0.159473 -2.39062,-0.478417 -0.73535,-0.318945 -1.32422,-0.802678 -1.76953,-1.456515 -0.43946,-0.659152 -0.65625,-1.509671 -0.65625,-2.551558 V 23.980039 h -2.66016 v -3.231974 h 2.66016 v -6.517104 h 4.17187 v 6.517104 h 4.32422 v 3.231974 h -4.32422 v 11.078014 c 0.0527,0.680415 0.27539,1.188069 0.66797,1.520303 0.38965,0.326918 0.87891,0.489048 1.46484,0.489048 0.57715,0 1.13672,-0.106314 1.67579,-0.318944 0.54492,-0.217946 0.91992,-0.377418 1.125,-0.478417 z m 13.88379,0 c -0.32813,0.148841 -0.77344,0.334892 -1.33594,0.552838 -0.55664,0.21263 -1.16016,0.393365 -1.81641,0.542206 -0.65625,0.154157 -1.34179,0.233893 -2.05078,0.233893 -0.86133,0 -1.6582,-0.159473 -2.39062,-0.478417 -0.73535,-0.318945 -1.32422,-0.802678 -1.76953,-1.456515 -0.43946,-0.659152 -0.65625,-1.509671 -0.65625,-2.551558 V 23.980039 h -2.66016 v -3.231974 h 2.66016 v -6.517104 h 4.17187 v 6.517104 h 4.32422 v 3.231974 h -4.32422 v 11.078014 c 0.0527,0.680415 0.27539,1.188069 0.66797,1.520303 0.38965,0.326918 0.87891,0.489048 1.46484,0.489048 0.57715,0 1.13672,-0.106314 1.67578,-0.318944 0.54493,-0.217946 0.91993,-0.377418 1.125,-0.478417 z m 11.61035,1.403357 c -1.57031,0 -2.97656,-0.273761 -4.21875,-0.818625 -1.23633,-0.544864 -2.30859,-1.289068 -3.22266,-2.232613 -0.9082,-0.94886 -1.60547,-2.03593 -2.09765,-3.263868 -0.49219,-1.233253 -0.73828,-2.530295 -0.73828,-3.891125 0,-1.897722 0.42773,-3.630655 1.28906,-5.1988 0.8584,-1.57346 2.06543,-2.827976 3.62109,-3.763548 1.55274,-0.935571 3.34277,-1.403356 5.36719,-1.403356 2.10058,0 3.90234,0.475759 5.40234,1.424619 1.50586,0.951519 2.67774,2.198061 3.51563,3.742285 0.83496,1.538909 1.2539,3.194764 1.2539,4.964907 0,0.305655 -0.0176,0.592705 -0.0469,0.861151 -0.0234,0.263129 -0.0469,0.467785 -0.0703,0.616626 h -15.9375 c 0.12304,1.190727 0.46289,2.221982 1.01953,3.093764 0.5625,0.871782 1.2832,1.557514 2.16797,2.051878 0.89062,0.497022 1.82812,0.744204 2.8125,0.744204 1.13964,0 2.20605,-0.276419 3.19922,-0.829256 0.99902,-0.558153 1.67871,-1.297042 2.03906,-2.21135 l 3.5625,1.020623 c -0.43067,0.964808 -1.08985,1.833932 -1.98047,2.604715 -0.88477,0.773441 -1.91602,1.382094 -3.09375,1.828617 -1.17188,0.438549 -2.45508,0.659152 -3.84375,0.659152 z m -5.95313,-11.69464 h 11.98829 c -0.10254,-1.161491 -0.42774,-2.171482 -0.97266,-3.029975 -0.53906,-0.855835 -1.25391,-1.533593 -2.14453,-2.030615 -0.88477,-0.494364 -1.84571,-0.744204 -2.88281,-0.744204 -1.06348,0 -2.03321,0.24984 -2.90625,0.744204 -0.86719,0.497022 -1.58204,1.17478 -2.14454,2.030615 -0.55664,0.858493 -0.86718,1.868484 -0.9375,3.029975 z m 30.64746,-4.933012 c -1.59375,0.02924 -3.01757,0.398681 -4.26562,1.105675 -1.25098,0.709652 -2.1416,1.709012 -2.67188,2.998081 V 40.59706 h -4.17187 V 20.748065 h 3.83203 v 4.401438 c 0.70313,-1.339568 1.6084,-2.418665 2.71875,-3.242605 1.11621,-0.821283 2.28516,-1.267805 3.50391,-1.339568 0.27246,0 0.49218,0 0.65625,0 0.16406,0 0.2959,0.01063 0.39843,0.03189 z m 33.4336,16.244919 h -4.13672 V 29.47652 c 0,-1.841906 -0.31055,-3.192106 -0.92578,-4.050598 -0.61817,-0.863809 -1.50879,-1.297042 -2.67188,-1.297042 -1.16601,0 -2.24414,0.435891 -3.23437,1.307673 -0.98438,0.871782 -1.69336,2.006694 -2.1211,3.402077 v 11.75843 h -4.17187 V 29.47652 c 0,-1.871143 -0.29883,-3.226658 -0.89063,-4.071861 -0.59472,-0.85052 -1.48828,-1.275779 -2.68359,-1.275779 -1.13379,0 -2.20019,0.425259 -3.19922,1.275779 -1.00195,0.845203 -1.71679,1.974799 -2.14453,3.391445 V 40.59706 h -4.17187 V 20.748065 h 3.79687 v 3.954915 c 0.7793,-1.366147 1.80762,-2.42398 3.08203,-3.168184 1.28028,-0.74952 2.74219,-1.126938 4.38281,-1.126938 1.64649,0 2.94434,0.425259 3.89063,1.275779 0.95215,0.845203 1.55273,1.9243 1.80469,3.242604 0.83496,-1.467145 1.87793,-2.58611 3.1289,-3.359551 1.25684,-0.770783 2.69532,-1.158832 4.3125,-1.158832 1.16309,0 2.12696,0.217945 2.89453,0.648521 0.77344,0.433233 1.38282,1.020623 1.82813,1.764827 0.44531,0.744205 0.76172,1.605355 0.94922,2.583453 0.1875,0.972781 0.28125,1.99872 0.28125,3.083132 z m 13.7373,0.382733 c -1.57031,0 -2.97656,-0.273761 -4.21875,-0.818625 -1.23632,-0.544864 -2.30273,-1.297042 -3.19922,-2.253876 -0.89941,-0.96215 -1.59082,-2.057193 -2.07421,-3.285131 -0.47754,-1.225279 -0.71485,-2.522321 -0.71485,-3.891125 0,-1.416647 0.23731,-2.737609 0.71485,-3.965547 0.48339,-1.225279 1.1748,-2.317665 2.07421,-3.274499 0.89649,-0.96215 1.97168,-1.716986 3.22266,-2.264508 1.24805,-0.544863 2.64844,-0.818624 4.19531,-0.818624 1.56153,0 2.95606,0.273761 4.1836,0.818624 1.22461,0.547522 2.29687,1.302358 3.21093,2.264508 0.91407,0.956834 1.6084,2.04922 2.08594,3.274499 0.4834,1.227938 0.72656,2.5489 0.72656,3.965547 0,1.368804 -0.24316,2.665846 -0.72656,3.891125 -0.47754,1.227938 -1.16601,2.322981 -2.0625,3.285131 -0.89941,0.956834 -1.97754,1.709012 -3.23437,2.253876 -1.25098,0.544864 -2.64551,0.818625 -4.1836,0.818625 z M 212.74073,30.68851 c 0,1.297042 0.26368,2.453216 0.79688,3.465866 0.53027,1.007334 1.23633,1.802038 2.12109,2.381454 0.88184,0.582074 1.86621,0.871782 2.95313,0.871782 1.13965,0 2.15039,-0.289708 3.03515,-0.871782 0.89063,-0.579416 1.59961,-1.38741 2.13282,-2.42398 0.53027,-1.041886 0.79687,-2.182114 0.79687,-3.42334 0,-1.259832 -0.2666,-2.402717 -0.79687,-3.42334 -0.53321,-1.025939 -1.24805,-1.831275 -2.14453,-2.413349 -0.89942,-0.579416 -1.89258,-0.871782 -2.97657,-0.871782 -1.11914,0 -2.11816,0.305655 -3,0.914308 -0.88476,0.603337 -1.59082,1.41133 -2.12109,2.42398 -0.5332,1.015307 -0.79688,2.13693 -0.79688,3.370183 z m 26.89454,10.291283 c -1.67286,0 -3.25489,-0.276419 -4.7461,-0.829256 -1.49414,-0.558153 -2.77148,-1.384752 -3.83203,-2.477138 l 1.52344,-2.764187 c 1.16308,0.986071 2.32031,1.71167 3.46875,2.179455 1.14844,0.467786 2.29101,0.701679 3.43359,0.701679 1.18653,0 2.13867,-0.217946 2.85938,-0.659153 0.72656,-0.446522 1.08984,-1.097701 1.08984,-1.956194 0,-0.637889 -0.19922,-1.105675 -0.59766,-1.403357 -0.39257,-0.302997 -0.94628,-0.568785 -1.66406,-0.797362 -0.7207,-0.225919 -1.57031,-0.481075 -2.55469,-0.765467 -1.40039,-0.42526 -2.58691,-0.871782 -3.5625,-1.339568 -0.96972,-0.467786 -1.69628,-1.041886 -2.17968,-1.722302 -0.47754,-0.685731 -0.71485,-1.562829 -0.71485,-2.625978 0,-1.267805 0.32813,-2.354875 0.98438,-3.263868 0.65625,-0.914308 1.57324,-1.615986 2.7539,-2.105035 1.17774,-0.494364 2.53711,-0.744204 4.07813,-0.744204 1.44434,0 2.78027,0.223261 4.00781,0.669784 1.22461,0.441206 2.3086,1.126938 3.2461,2.062509 l -1.79297,2.732293 c -0.86133,-0.778757 -1.75782,-1.355515 -2.69532,-1.732933 -0.93164,-0.382734 -1.92773,-0.5741 -2.98828,-0.5741 -0.58593,0 -1.16601,0.07176 -1.73437,0.212629 -0.5625,0.135552 -1.03711,0.38805 -1.41797,0.754836 -0.38379,0.361471 -0.57422,0.871783 -0.57422,1.530935 0,0.560811 0.15527,0.99936 0.46875,1.318305 0.31934,0.313629 0.78516,0.582074 1.39453,0.807993 0.60938,0.228577 1.35352,0.478417 2.23828,0.754836 1.54688,0.433233 2.86231,0.877098 3.94922,1.328937 1.08399,0.454496 1.92481,1.031254 2.51953,1.732933 0.5918,0.696362 0.89063,1.647881 0.89063,2.859871 0,1.900379 -0.71485,3.396761 -2.14453,4.486489 -1.42969,1.084412 -3.33399,1.626618 -5.70703,1.626618 z m 22.57324,-1.403357 c -0.32813,0.148841 -0.77344,0.334892 -1.33594,0.552838 -0.55664,0.21263 -1.16016,0.393365 -1.81641,0.542206 -0.65625,0.154157 -1.34179,0.233893 -2.05078,0.233893 -0.86133,0 -1.6582,-0.159473 -2.39062,-0.478417 -0.73535,-0.318945 -1.32422,-0.802678 -1.76953,-1.456515 -0.43946,-0.659152 -0.65625,-1.509671 -0.65625,-2.551558 V 23.980039 h -2.66016 v -3.231974 h 2.66016 v -6.517104 h 4.17187 v 6.517104 h 4.32422 v 3.231974 h -4.32422 v 11.078014 c 0.0527,0.680415 0.27539,1.188069 0.66797,1.520303 0.38965,0.326918 0.87891,0.489048 1.46484,0.489048 0.57715,0 1.13672,-0.106314 1.67579,-0.318944 0.54492,-0.217946 0.91992,-0.377418 1.125,-0.478417 z m 2.69824,-7.473938 V 28.33895 h 11.29688 v 3.763548 z m 16.6875,8.494562 V 13.699387 h 4.28906 v 13.884727 l 12.63282,-13.927253 h 4.71093 l -10.59375,11.917901 11.20313,15.022298 h -4.82813 l -9.10547,-12.33253 -4.01953,4.178176 v 8.154354 z m 22.99805,-5.804795 c 0,-1.267805 0.35742,-2.37348 1.07812,-3.317025 0.71778,-0.948861 1.71387,-1.682433 2.98828,-2.200719 1.28028,-0.523601 2.74512,-0.78673 4.39453,-0.78673 0.88184,0 1.7754,0.07176 2.6836,0.21263 0.91406,0.143525 1.7373,0.33755 2.47265,0.584732 v -1.243885 c 0,-1.395383 -0.41894,-2.482453 -1.2539,-3.263867 -0.83789,-0.786731 -2.03613,-1.180096 -3.59766,-1.180096 -1.11914,0 -2.16797,0.191367 -3.15234,0.574101 -0.98438,0.377417 -2.03613,0.943544 -3.15235,1.701038 l -1.35937,-2.838608 c 1.25684,-0.863809 2.55762,-1.514988 3.90234,-1.956194 1.3418,-0.446523 2.74512,-0.669784 4.20703,-0.669784 2.6543,0 4.74024,0.701678 6.25782,2.105035 1.52343,1.403357 2.28515,3.396761 2.28515,5.974898 v 7.399518 c 0,0.483733 0.085,0.826598 0.25782,1.031255 0.17871,0.19934 0.47168,0.313629 0.8789,0.340207 v 3.338289 c -0.375,0.07708 -0.71191,0.127577 -1.00781,0.14884 -0.29004,0.02658 -0.53613,0.05316 -0.73828,0.07442 -0.9082,-0.02126 -1.59082,-0.247182 -2.05078,-0.680416 -0.4541,-0.430575 -0.72071,-0.938229 -0.79688,-1.520303 l -0.10547,-1.137569 c -0.83789,1.113648 -1.93359,1.974799 -3.29297,2.583452 -1.35351,0.608653 -2.70703,0.914308 -4.0664,0.914308 -1.32129,0 -2.50195,-0.273761 -3.53906,-0.818625 -1.03125,-0.544864 -1.83985,-1.28641 -2.42579,-2.221981 -0.58007,-0.935572 -0.86718,-1.982773 -0.86718,-3.146921 z m 12.63281,1.254516 c 0.28125,-0.353497 0.51562,-0.693705 0.70312,-1.020623 0.1875,-0.332234 0.28125,-0.637889 0.28125,-0.914308 v -2.243245 c -0.71191,-0.276419 -1.45898,-0.481075 -2.23828,-0.616626 -0.78222,-0.140868 -1.54101,-0.21263 -2.27343,-0.21263 -1.54688,0 -2.79786,0.305655 -3.75,0.914308 -0.94629,0.603337 -1.41797,1.435251 -1.41797,2.498401 0,0.582074 0.15527,1.132253 0.46875,1.647881 0.31933,0.518285 0.77636,0.951518 1.37109,1.297042 0.60059,0.340207 1.33008,0.510311 2.19141,0.510311 0.92871,0 1.81054,-0.183393 2.64843,-0.552837 0.83497,-0.366787 1.50586,-0.802678 2.01563,-1.307674 z m 27.99609,4.550279 h -4.13672 V 29.47652 c 0,-1.871143 -0.30468,-3.226658 -0.91406,-4.071861 -0.60351,-0.85052 -1.48535,-1.275779 -2.64844,-1.275779 -0.81445,0 -1.61718,0.209972 -2.41406,0.627258 -0.79687,0.419943 -1.50586,0.972781 -2.12109,1.658512 -0.61817,0.680416 -1.07813,1.47512 -1.38281,2.381454 V 40.59706 h -4.17188 V 20.748065 h 3.79688 v 3.954915 c 0.49804,-0.885072 1.15429,-1.642565 1.96875,-2.275139 0.81152,-0.637889 1.73437,-1.132254 2.76562,-1.488409 1.03711,-0.353497 2.13867,-0.531574 3.30469,-0.531574 1.18652,0 2.1709,0.217945 2.95312,0.648521 0.78809,0.433233 1.39746,1.020623 1.82813,1.764827 0.42773,0.744205 0.72949,1.605355 0.90234,2.583453 0.17871,0.972781 0.26953,1.99872 0.26953,3.083132 z m 3.41895,-5.804795 c 0,-1.267805 0.35742,-2.37348 1.07812,-3.317025 0.71778,-0.948861 1.71387,-1.682433 2.98828,-2.200719 1.28028,-0.523601 2.74512,-0.78673 4.39454,-0.78673 0.88183,0 1.77539,0.07176 2.68359,0.21263 0.91406,0.143525 1.7373,0.33755 2.47266,0.584732 v -1.243885 c 0,-1.395383 -0.41895,-2.482453 -1.25391,-3.263867 -0.83789,-0.786731 -2.03613,-1.180096 -3.59766,-1.180096 -1.11914,0 -2.16797,0.191367 -3.15234,0.574101 -0.98438,0.377417 -2.03613,0.943544 -3.15234,1.701038 l -1.35938,-2.838608 c 1.25684,-0.863809 2.55762,-1.514988 3.90234,-1.956194 1.3418,-0.446523 2.74512,-0.669784 4.20704,-0.669784 2.65429,0 4.74023,0.701678 6.25781,2.105035 1.52344,1.403357 2.28515,3.396761 2.28515,5.974898 v 7.399518 c 0,0.483733 0.085,0.826598 0.25782,1.031255 0.17871,0.19934 0.47168,0.313629 0.8789,0.340207 v 3.338289 c -0.375,0.07708 -0.71191,0.127577 -1.00781,0.14884 -0.29004,0.02658 -0.53613,0.05316 -0.73828,0.07442 -0.9082,-0.02126 -1.59082,-0.247182 -2.05078,-0.680416 -0.4541,-0.430575 -0.7207,-0.938229 -0.79688,-1.520303 l -0.10547,-1.137569 c -0.83789,1.113648 -1.93359,1.974799 -3.29296,2.583452 -1.35352,0.608653 -2.70704,0.914308 -4.06641,0.914308 -1.32129,0 -2.50195,-0.273761 -3.53906,-0.818625 -1.03125,-0.544864 -1.83985,-1.28641 -2.42578,-2.221981 -0.58008,-0.935572 -0.86719,-1.982773 -0.86719,-3.146921 z m 12.63281,1.254516 c 0.28125,-0.353497 0.51563,-0.693705 0.70313,-1.020623 0.1875,-0.332234 0.28125,-0.637889 0.28125,-0.914308 v -2.243245 c -0.71192,-0.276419 -1.45899,-0.481075 -2.23829,-0.616626 -0.78222,-0.140868 -1.54101,-0.21263 -2.27343,-0.21263 -1.54688,0 -2.79785,0.305655 -3.75,0.914308 -0.94629,0.603337 -1.41797,1.435251 -1.41797,2.498401 0,0.582074 0.15527,1.132253 0.46875,1.647881 0.31933,0.518285 0.77637,0.951518 1.37109,1.297042 0.60059,0.340207 1.33008,0.510311 2.19141,0.510311 0.92871,0 1.81055,-0.183393 2.64844,-0.552837 0.83496,-0.366787 1.50586,-0.802678 2.01562,-1.307674 z m 10.24219,-23.144756 h 4.17187 v 22.007187 c 0,0.986071 0.15235,1.62396 0.45703,1.913668 0.30469,0.292366 0.68262,0.435891 1.13672,0.435891 0.4834,0 0.95508,-0.06379 1.41797,-0.191367 0.46875,-0.127577 0.85547,-0.239208 1.16016,-0.340207 l 0.60937,3.263868 c -0.60937,0.255155 -1.333,0.473101 -2.16797,0.64852 -0.8291,0.17542 -1.57031,0.265788 -2.22656,0.265788 -1.44726,0 -2.5664,-0.396023 -3.36328,-1.190727 -0.79687,-0.80002 -1.19531,-1.908353 -1.19531,-3.327657 z m 0,0"
       style="fill:#ffffff;fill-opacity:1;fill-rule:nonzero;stroke:none"
       aria-label="Poste deine Projekte&#10;im Mattermost-Kanal"
       transform="matrix(1.3333333,0,0,1.4696903,595.416,1432.3388)" />
    <path
       id="path21"
       d="m 3.0219844,-12.247621 c 0,-0.36147 0.1230469,-0.916966 0.375,-1.669144 0.2490234,-0.757493 0.6708984,-1.557513 1.265625,-2.402716 0.5917969,-0.850519 1.359375,-1.578776 2.296875,-2.190087 0.9375,-0.616626 2.1240234,-0.924939 3.5624996,-0.924939 1.294922,0 2.455079,0.244524 3.480469,0.733573 1.03125,0.483732 2.021485,0.967465 2.976563,1.456514 0.952148,0.483732 1.96875,0.722941 3.046875,0.722941 0.966797,0 1.728515,-0.21263 2.285156,-0.63789 0.5625,-0.430575 0.94043,-0.871782 1.136719,-1.318304 0.202148,-0.451838 0.304687,-0.714968 0.304687,-0.78673 l 3.9375,-0.06379 c 0,0.220603 -0.117187,0.69902 -0.351562,1.435251 -0.234375,0.738888 -0.650391,1.538908 -1.242188,2.402716 -0.594726,0.866466 -1.388672,1.62396 -2.378906,2.275139 -0.984375,0.645863 -2.235352,0.967465 -3.75,0.967465 -1.297852,0 -2.469727,-0.244524 -3.515625,-0.733573 -1.040039,-0.489048 -2.036133,-0.967465 -2.988281,-1.435251 -0.955078,-0.467785 -1.951172,-0.701678 -2.988282,-0.701678 -0.9785152,0 -1.7197262,0.228577 -2.2265621,0.680415 -0.5009766,0.446523 -0.8320313,0.914309 -0.9960938,1.403357 -0.1582031,0.483733 -0.234375,0.744204 -0.234375,0.78673 z M 77.828625,-1.4600578e-4 H 70.598156 V -15.872958 c 0,-2.259192 -0.386718,-3.912388 -1.160156,-4.954274 -0.773437,-1.047202 -1.845703,-1.57346 -3.210937,-1.57346 -1.438477,0 -2.789063,0.550179 -4.054688,1.64788 -1.259766,1.100359 -2.15625,2.509032 -2.695312,4.231333 V -1.4600578e-4 H 52.188 V -15.872958 c 0,-2.259192 -0.380859,-3.912388 -1.136719,-4.954274 -0.75,-1.047202 -1.810547,-1.57346 -3.175781,-1.57346 -1.40625,0 -2.759766,0.542205 -4.054687,1.626617 -1.289063,1.079096 -2.203125,2.495742 -2.742188,4.252596 V -1.4600578e-4 H 33.895031 V -28.279906 h 6.527344 v 5.230693 c 1.078125,-1.833932 2.525391,-3.245262 4.347656,-4.231333 1.819336,-0.991386 3.878907,-1.488408 6.175782,-1.488408 2.34375,0 4.171875,0.579416 5.484375,1.732933 1.3125,1.1482 2.14746,2.570162 2.507812,4.263226 1.154297,-1.94822 2.625,-3.43397 4.40625,-4.454593 1.78125,-1.025939 3.802734,-1.541566 6.070313,-1.541566 1.725585,0 3.134765,0.316287 4.230468,0.946202 1.101563,0.632574 1.957032,1.477777 2.566407,2.540926 0.609375,1.057833 1.03125,2.251218 1.265625,3.582812 0.234375,1.334252 0.351562,2.665846 0.351562,3.99744 z M 82.196789,-8.3671275 c 0,-1.8339315 0.509766,-3.4366285 1.535156,-4.8054325 1.03125,-1.366147 2.452149,-2.437269 4.265625,-3.21071 1.819336,-0.770783 3.9375,-1.158832 6.351563,-1.158832 1.177734,0 2.381836,0.09303 3.609375,0.276419 1.224609,0.178077 2.288082,0.465127 3.187502,0.86115 v -1.57346 c 0,-1.756854 -0.52442,-3.120342 -1.570315,-4.093123 -1.040039,-0.978097 -2.601562,-1.467146 -4.6875,-1.467146 -1.58789,0 -3.082031,0.273761 -4.488281,0.818625 -1.400391,0.539548 -2.871094,1.312989 -4.417969,2.317664 l -2.273437,-4.699118 c 1.833984,-1.254515 3.732422,-2.179455 5.695312,-2.774818 1.959961,-0.595363 4.019532,-0.893045 6.175782,-0.893045 4.03125,0 7.171878,0.99936 9.421878,2.99808 2.25,1.99872 3.375,4.887827 3.375,8.664663 v 9.0048707 c 0,0.7601514 0.13183,1.3023573 0.39843,1.6266177 0.27247,0.3189447 0.71485,0.5182851 1.32422,0.5953634 V -1.4600578e-4 C 109.45753,0.10616888 108.87452,0.19387866 108.35304,0.26564121 c -0.52441,0.0770783 -0.9668,0.0956834 -1.32422,0.0531574 -1.43848,0 -2.52832,-0.31362891 -3.26953,-0.93557099 -0.73535,-0.62991562 -1.17774,-1.41398792 -1.32422,-2.34955892 l -0.15234,-1.456514 c -1.26563,1.581434 -2.818363,2.8040552 -4.652347,3.66786356 -1.828125,0.86380845 -3.700195,1.29704161 -5.613281,1.29704161 -1.869141,0 -3.547852,-0.39868082 -5.039063,-1.19072672 -1.494141,-0.79204585 -2.666016,-1.86316835 -3.515625,-3.21070955 -0.84375,-1.3448833 -1.265625,-2.8492389 -1.265625,-4.5077511 z m 17.601563,1.4033565 c 0.389648,-0.3614706 0.708988,-0.7760987 0.960938,-1.2438842 0.25781,-0.4677855 0.38672,-0.8611506 0.38672,-1.1800952 v -2.8598706 c -0.86719,-0.36147 -1.80469,-0.640547 -2.812502,-0.839887 -1.007813,-0.196683 -1.962891,-0.297682 -2.859375,-0.297682 -1.869141,0 -3.407227,0.403996 -4.617188,1.21199 -1.204101,0.807993 -1.804687,1.879115 -1.804687,3.2107091 0,0.7229412 0.193359,1.4193037 0.585937,2.0837718 0.398438,0.6671259 0.963868,1.1987003 1.699219,1.5947233 0.741211,0.3907072 1.652344,0.5847318 2.730469,0.5847318 1.083984,0 2.147461,-0.2152876 3.1875,-0.6485208 1.045898,-0.4305753 1.892578,-0.9701233 2.542969,-1.6159862 z m 13.602538,-7.176255 c 0,-2.700398 0.53906,-5.161588 1.61719,-7.388884 1.07812,-2.232613 2.56933,-3.99744 4.47656,-5.294482 1.9043,-1.297041 4.08106,-1.945562 6.52734,-1.945562 2.05372,0 3.92579,0.515627 5.61329,1.541566 1.69336,1.020623 2.99121,2.325638 3.89062,3.912388 v -16.085443 h 7.28906 v 31.2991027 c 0,0.7601514 0.12305,1.3023573 0.375,1.6266177 0.24903,0.3189447 0.68262,0.5182851 1.30078,0.5953634 V -1.4600578e-4 C 143.19288,0.25500972 142.16456,0.36132461 141.4087,0.31879865 c -1.29785,0.042526 -2.36718,-0.26047147 -3.21093,-0.90367653 -0.84375,-0.65117872 -1.32129,-1.49903992 -1.42969,-2.54092572 l -0.10547,-1.7860901 c -1.04883,1.7648271 -2.46094,3.1150261 -4.24219,4.05059712 -1.78125,0.93557099 -3.64453,1.40335649 -5.58984,1.40335649 -1.93945,0 -3.72656,-0.36944423 -5.36719,-1.10567481 -1.63476,-0.7362306 -3.05566,-1.7781165 -4.26562,-3.1256576 -1.20411,-1.352857 -2.13868,-2.9183437 -2.80079,-4.699118 -0.66503,-1.7860905 -0.99609,-3.7024155 -0.99609,-5.7516355 z m 22.18359,3.721021 v -6.687206 c -0.36035,-1.047202 -0.9375,-1.982773 -1.73437,-2.806713 -0.79102,-0.829256 -1.67285,-1.483093 -2.64844,-1.966826 -0.96972,-0.489048 -1.93945,-0.733572 -2.90625,-0.733572 -1.11914,0 -2.12695,0.233893 -3.02344,0.701678 -0.89941,0.467786 -1.68457,1.100359 -2.35546,1.892405 -0.66504,0.78673 -1.16895,1.695722 -1.51172,2.721661 -0.33692,1.028597 -0.50391,2.115666 -0.50391,3.263867 0,1.190727 0.19336,2.301717 0.58594,3.327656 0.39844,1.0206229 0.9375,1.9189837 1.61719,2.6897666 0.68554,0.7734408 1.51464,1.3688042 2.48437,1.7860901 0.97559,0.4119702 2.02149,0.6166263 3.14063,0.6166263 0.71777,0 1.41796,-0.1169464 2.09765,-0.3508391 0.68555,-0.2338928 1.3418,-0.5661268 1.96875,-0.9993599 0.63281,-0.4305753 1.19824,-0.935571 1.69922,-1.5096714 0.50684,-0.5741004 0.87012,-1.2226212 1.08984,-1.9455626 z m 27.4629,10.96106491 c -2.26758,0 -4.31836,-0.38804933 -6.15235,-1.15883225 -1.83691,-0.77875656 -3.4043,-1.84190536 -4.69922,-3.18944656 -1.28906,-1.3448833 -2.27929,-2.8837913 -2.96484,-4.6140661 -0.67969,-1.727617 -1.01953,-3.582812 -1.01953,-5.560268 0,-2.663188 0.60058,-5.119062 1.80469,-7.367622 1.20117,-2.245902 2.90917,-4.042624 5.12109,-5.390165 2.21777,-1.352857 4.875,-2.030614 7.96875,-2.030614 3.05273,0 5.67773,0.677757 7.875,2.030614 2.19433,1.347541 3.88476,3.120342 5.07422,5.315744 1.18652,2.190087 1.78125,4.582172 1.78125,7.176255 0,0.467786 -0.0205,0.908993 -0.0586,1.318305 -0.0322,0.41197 -0.0674,0.762809 -0.10546,1.052517 H 155.8755 c 0.0996,1.509672 0.50391,2.7960817 1.20703,3.8592306 0.70313,1.0631489 1.59961,1.8817735 2.69531,2.4558739 1.10157,0.5741003 2.26465,0.8611505 3.49219,0.8611505 1.46777,0 2.8418,-0.3508391 4.125,-1.0525173 1.28027,-0.7016783 2.15039,-1.642565 2.61328,-2.827976 l 6.15235,1.7223012 c -0.64161,1.4405667 -1.59375,2.7190032 -2.85938,3.8379673 -1.25976,1.1136485 -2.75098,1.9854305 -4.47656,2.61534623 -1.72852,0.6299157 -3.65332,0.94620248 -5.77734,0.94620248 z M 155.65284,-16.404533 h 14.78907 c -0.14063,-1.437909 -0.54786,-2.689767 -1.21875,-3.752915 -0.66504,-1.063149 -1.53516,-1.892405 -2.61328,-2.487769 -1.07813,-0.595363 -2.28223,-0.893045 -3.60938,-0.893045 -1.29785,0 -2.47852,0.297682 -3.53906,0.893045 -1.06348,0.595364 -1.92774,1.42462 -2.58985,2.487769 -0.66504,1.063148 -1.07226,2.315006 -1.21875,3.752915 z m 26.39942,4.85859 v -6.538365 h 16.40625 v 6.538365 z m 20.82715,3.1788155 c 0,-1.8339315 0.50976,-3.4366285 1.53515,-4.8054325 1.03125,-1.366147 2.45215,-2.437269 4.26563,-3.21071 1.81933,-0.770783 3.9375,-1.158832 6.35156,-1.158832 1.17773,0 2.38184,0.09303 3.60938,0.276419 1.2246,0.178077 2.28808,0.465127 3.1875,0.86115 v -1.57346 c 0,-1.756854 -0.52442,-3.120342 -1.57032,-4.093123 -1.04004,-0.978097 -2.60156,-1.467146 -4.6875,-1.467146 -1.58789,0 -3.08203,0.273761 -4.48828,0.818625 -1.40039,0.539548 -2.87109,1.312989 -4.41797,2.317664 l -2.27343,-4.699118 c 1.83398,-1.254515 3.73242,-2.179455 5.69531,-2.774818 1.95996,-0.595363 4.01953,-0.893045 6.17578,-0.893045 4.03125,0 7.17187,0.99936 9.42187,2.99808 2.25,1.99872 3.375,4.887827 3.375,8.664663 v 9.0048707 c 0,0.7601514 0.13184,1.3023573 0.39844,1.6266177 0.27246,0.3189447 0.71485,0.5182851 1.32422,0.5953634 V -1.4600578e-4 C 230.14015,0.10616888 229.55714,0.19387866 229.03566,0.26564121 c -0.52442,0.0770783 -0.9668,0.0956834 -1.32422,0.0531574 -1.43848,0 -2.52832,-0.31362891 -3.26953,-0.93557099 -0.73536,-0.62991562 -1.17774,-1.41398792 -1.32422,-2.34955892 l -0.15235,-1.456514 c -1.26562,1.581434 -2.81836,2.8040552 -4.65234,3.66786356 -1.82812,0.86380845 -3.7002,1.29704161 -5.61328,1.29704161 -1.86914,0 -3.54785,-0.39868082 -5.03906,-1.19072672 -1.49414,-0.79204585 -2.66602,-1.86316835 -3.51563,-3.21070955 -0.84375,-1.3448833 -1.26562,-2.8492389 -1.26562,-4.5077511 z m 17.60156,1.4033565 c 0.38965,-0.3614706 0.70898,-0.7760987 0.96094,-1.2438842 0.25781,-0.4677855 0.38672,-0.8611506 0.38672,-1.1800952 v -2.8598706 c -0.86719,-0.36147 -1.80469,-0.640547 -2.8125,-0.839887 -1.00782,-0.196683 -1.9629,-0.297682 -2.85938,-0.297682 -1.86914,0 -3.40723,0.403996 -4.61719,1.21199 -1.2041,0.807993 -1.80468,1.879115 -1.80468,3.2107091 0,0.7229412 0.19335,1.4193037 0.58593,2.0837718 0.39844,0.6671259 0.96387,1.1987003 1.69922,1.5947233 0.74121,0.3907072 1.65235,0.5847318 2.73047,0.5847318 1.08398,0 2.14746,-0.2152876 3.1875,-0.6485208 1.0459,-0.4305753 1.89258,-0.9701233 2.54297,-1.6159862 z m 31.99805,5.5071111 c -0.65039,0.2923659 -1.39454,0.59004757 -2.23829,0.893045 -0.84375,0.3056553 -1.76367,0.55815315 -2.7539,0.75483569 -0.98438,0.19668254 -1.98047,0.29768168 -2.98828,0.29768168 -1.36817,0 -2.61035,-0.23389275 -3.72657,-0.70167825 -1.11914,-0.4677855 -2.00976,-1.21464752 -2.67187,-2.24324412 -0.66504,-1.0259386 -0.99609,-2.3655062 -0.99609,-4.0187027 V -22.772795 h -3.67969 v -5.507111 h 3.67969 v -9.174974 h 7.27734 v 9.174974 h 5.94141 v 5.507111 h -5.94141 v 13.8634616 c 0.0381,0.9727812 0.30762,1.6850909 0.80859,2.1369292 0.50684,0.4465225 1.1543,0.6697837 1.94532,0.6697837 0.71777,0 1.43554,-0.1328936 2.15625,-0.4039965 0.72656,-0.2684451 1.31836,-0.5103115 1.78125,-0.7229412 z m 3.56836,-10.0892831 v -6.538365 h 16.40625 v 6.538365 z m 20.39941,7.1762552 15.64453,-18.8389982 h -14.94141 v -5.07122 h 22.66407 v 4.4227 l -15.49219,18.7858399 h 15.76172 v 5.07122009422 h -23.63672 z m 26.54883,-3.9974397 c 0,-1.8339315 0.50976,-3.4366285 1.53515,-4.8054325 1.03125,-1.366147 2.45215,-2.437269 4.26563,-3.21071 1.81933,-0.770783 3.9375,-1.158832 6.35156,-1.158832 1.17774,0 2.38184,0.09303 3.60938,0.276419 1.22461,0.178077 2.28808,0.465127 3.1875,0.86115 v -1.57346 c 0,-1.756854 -0.52442,-3.120342 -1.57032,-4.093123 -1.04004,-0.978097 -2.60156,-1.467146 -4.6875,-1.467146 -1.58789,0 -3.08203,0.273761 -4.48828,0.818625 -1.40039,0.539548 -2.87109,1.312989 -4.41797,2.317664 l -2.27343,-4.699118 c 1.83398,-1.254515 3.73242,-2.179455 5.69531,-2.774818 1.95996,-0.595363 4.01953,-0.893045 6.17578,-0.893045 4.03125,0 7.17187,0.99936 9.42187,2.99808 2.25,1.99872 3.375,4.887827 3.375,8.664663 v 9.0048707 c 0,0.7601514 0.13184,1.3023573 0.39844,1.6266177 0.27246,0.3189447 0.71485,0.5182851 1.32422,0.5953634 V -1.4600578e-4 C 330.25636,0.10616888 329.67335,0.19387866 329.15187,0.26564121 c -0.52442,0.0770783 -0.9668,0.0956834 -1.32422,0.0531574 -1.43848,0 -2.52832,-0.31362891 -3.26953,-0.93557099 -0.73535,-0.62991562 -1.17774,-1.41398792 -1.32422,-2.34955892 l -0.15235,-1.456514 c -1.26562,1.581434 -2.81835,2.8040552 -4.65234,3.66786356 -1.82812,0.86380845 -3.70019,1.29704161 -5.61328,1.29704161 -1.86914,0 -3.54785,-0.39868082 -5.03906,-1.19072672 -1.49414,-0.79204585 -2.66602,-1.86316835 -3.51563,-3.21070955 -0.84375,-1.3448833 -1.26562,-2.8492389 -1.26562,-4.5077511 z m 17.60156,1.4033565 c 0.38965,-0.3614706 0.70898,-0.7760987 0.96094,-1.2438842 0.25781,-0.4677855 0.38672,-0.8611506 0.38672,-1.1800952 v -2.8598706 c -0.86719,-0.36147 -1.80469,-0.640547 -2.8125,-0.839887 -1.00782,-0.196683 -1.96289,-0.297682 -2.85938,-0.297682 -1.86914,0 -3.40723,0.403996 -4.61719,1.21199 -1.2041,0.807993 -1.80468,1.879115 -1.80468,3.2107091 0,0.7229412 0.19336,1.4193037 0.58593,2.0837718 0.39844,0.6671259 0.96387,1.1987003 1.69922,1.5947233 0.74121,0.3907072 1.65235,0.5847318 2.73047,0.5847318 1.08399,0 2.14746,-0.2152876 3.1875,-0.6485208 1.0459,-0.4305753 1.89258,-0.9701233 2.54297,-1.6159862 z m 59.25879,6.96362499422 H 372.6255 V -15.872958 c 0,-2.259192 -0.38672,-3.912388 -1.16016,-4.954274 -0.77343,-1.047202 -1.8457,-1.57346 -3.21093,-1.57346 -1.43848,0 -2.78907,0.550179 -4.05469,1.64788 -1.25977,1.100359 -2.15625,2.509032 -2.69531,4.231333 V -1.4600578e-4 h -7.28907 V -15.872958 c 0,-2.259192 -0.38086,-3.912388 -1.13671,-4.954274 -0.75,-1.047202 -1.81055,-1.57346 -3.17579,-1.57346 -1.40625,0 -2.75976,0.542205 -4.05468,1.626617 -1.28907,1.079096 -2.20313,2.495742 -2.74219,4.252596 V -1.4600578e-4 h -7.18359 V -28.279906 h 6.52734 v 5.230693 c 1.07812,-1.833932 2.52539,-3.245262 4.34766,-4.231333 1.81933,-0.991386 3.8789,-1.488408 6.17578,-1.488408 2.34375,0 4.17187,0.579416 5.48437,1.732933 1.3125,1.1482 2.14746,2.570162 2.50781,4.263226 1.1543,-1.94822 2.625,-3.43397 4.40625,-4.454593 1.78125,-1.025939 3.80274,-1.541566 6.07032,-1.541566 1.72558,0 3.13476,0.316287 4.23047,0.946202 1.10156,0.632574 1.95703,1.477777 2.5664,2.540926 0.60938,1.057833 1.03125,2.251218 1.26563,3.582812 0.23437,1.334252 0.35156,2.665846 0.35156,3.99744 z m 0,0"
       style="fill:#ffffff;fill-opacity:1;fill-rule:nonzero;stroke:none"
       aria-label="~made-at-zam"
       transform="matrix(1.3333333,0,0,1.4696907,595.416,1566.6369)" />
    <path
       id="path22"
       d="M 0,0 83.258,-83.258 0,-166.517 -83.258,-83.258 Z"
       style="fill:#ffffff;fill-opacity:1;fill-rule:nonzero;stroke:none"
       transform="matrix(1.3333333,0,0,-1.3333333,409.64787,1371.4955)"
       clip-path="url(#clipPath23)" />
    <path
       id="path24"
       d="M 0,0 2.485,-2.485 0,-4.969 -2.485,-2.485 Z M -4.969,4.969 -2.485,2.485 -4.969,0 -7.454,2.485 Z m -17.392,17.392 2.485,-2.485 -2.485,-2.484 -2.485,2.484 z m -7.454,7.454 2.485,-2.485 -2.485,-2.484 -2.484,2.484 z m -2.484,2.484 2.484,-2.484 -2.484,-2.485 -2.485,2.485 z m -4.969,4.969 2.484,-2.484 -2.484,-2.485 -2.485,2.485 z m -2.485,2.485 2.485,-2.485 -2.485,-2.484 -2.484,2.484 z m -2.484,2.484 2.484,-2.484 -2.484,-2.485 -2.485,2.485 z m -2.485,2.485 2.485,-2.485 -2.485,-2.484 -2.484,2.484 z m -4.969,4.969 2.485,-2.485 -2.485,-2.484 -2.485,2.484 z m -2.485,2.485 2.485,-2.485 -2.485,-2.485 -2.484,2.485 z m -2.484,2.484 2.484,-2.484 -2.484,-2.485 -2.485,2.485 z m -2.485,2.485 2.485,-2.485 -2.485,-2.484 -2.484,2.484 z m -2.484,2.484 2.484,-2.484 -2.484,-2.485 -2.485,2.485 z m -2.485,2.485 2.485,-2.485 -2.485,-2.484 -2.484,2.484 z m -2.484,2.484 2.484,-2.484 -2.484,-2.485 -2.485,2.485 z M 4.969,0 7.454,-2.485 4.969,-4.969 2.485,-2.485 Z M 0,4.969 2.485,2.485 0,0 -2.485,2.485 Z M -4.969,9.938 -2.485,7.454 -4.969,4.969 -7.454,7.454 Z m -2.485,2.485 2.485,-2.485 -2.485,-2.484 -2.484,2.484 z m -4.969,4.969 2.485,-2.485 -2.485,-2.484 -2.484,2.484 z m -9.938,9.938 2.485,-2.484 -2.485,-2.485 -2.485,2.485 z m -4.969,4.969 2.484,-2.484 -2.484,-2.485 -2.485,2.485 z m -4.969,4.969 2.484,-2.484 -2.484,-2.485 -2.485,2.485 z m -2.485,2.485 2.485,-2.485 -2.485,-2.484 -2.484,2.484 z m -2.484,2.484 2.484,-2.484 -2.484,-2.485 -2.485,2.485 z m -4.969,4.969 2.484,-2.484 -2.484,-2.485 -2.485,2.485 z m -4.969,4.97 2.484,-2.485 -2.484,-2.485 -2.485,2.485 z m -14.908,14.907 2.485,-2.485 -2.485,-2.484 -2.484,2.484 z M 7.454,2.485 9.938,0 7.454,-2.485 4.969,0 Z M 4.969,4.969 7.454,2.485 4.969,0 2.485,2.485 Z M 2.485,7.454 4.969,4.969 2.485,2.485 0,4.969 Z M 0,9.938 2.485,7.454 0,4.969 -2.485,7.454 Z M -2.485,12.423 0,9.938 -2.485,7.454 -4.969,9.938 Z m -2.484,2.484 2.484,-2.484 -2.484,-2.485 -2.485,2.485 z m -2.485,2.485 2.485,-2.485 -2.485,-2.484 -2.484,2.484 z m -2.484,2.484 2.484,-2.484 -2.484,-2.485 -2.485,2.485 z m -2.485,2.485 2.485,-2.485 -2.485,-2.484 -2.484,2.484 z m -2.484,2.485 2.484,-2.485 -2.484,-2.485 -2.485,2.485 z m -7.454,7.453 2.485,-2.484 -2.485,-2.485 -2.485,2.485 z m -2.485,2.485 2.485,-2.485 -2.485,-2.484 -2.484,2.484 z m -4.969,4.969 2.485,-2.485 -2.485,-2.484 -2.484,2.484 z m -7.453,7.453 2.484,-2.484 -2.484,-2.485 -2.485,2.485 z m -2.485,2.485 2.485,-2.485 -2.485,-2.484 -2.484,2.484 z m -4.969,4.969 2.485,-2.484 -2.485,-2.485 -2.484,2.485 z m -4.969,4.969 2.485,-2.484 -2.485,-2.485 -2.485,2.485 z m -2.485,2.485 2.485,-2.485 -2.485,-2.484 -2.484,2.484 z m -2.484,2.484 2.484,-2.484 -2.484,-2.485 -2.485,2.485 z m -4.969,4.969 2.484,-2.484 -2.484,-2.485 -2.485,2.485 z M 12.423,2.485 14.907,0 12.423,-2.485 9.938,0 Z M 9.938,4.969 12.423,2.485 9.938,0 7.454,2.485 Z M 7.454,7.454 9.938,4.969 7.454,2.485 4.969,4.969 Z M 4.969,9.938 7.454,7.454 4.969,4.969 2.485,7.454 Z m -12.423,12.423 2.485,-2.485 -2.485,-2.484 -2.484,2.484 z m -4.969,4.969 2.485,-2.484 -2.485,-2.485 -2.484,2.485 z m -4.969,4.969 2.485,-2.484 -2.485,-2.485 -2.484,2.485 z m -7.454,7.454 2.485,-2.485 -2.485,-2.484 -2.484,2.484 z m -4.969,4.969 2.485,-2.485 -2.485,-2.484 -2.484,2.484 z m -7.453,7.454 2.484,-2.485 -2.484,-2.485 -2.485,2.485 z m -4.969,4.969 2.484,-2.485 -2.484,-2.484 -2.485,2.484 z m -4.969,4.969 2.484,-2.485 -2.484,-2.484 -2.485,2.484 z m -2.485,2.484 2.485,-2.484 -2.485,-2.485 -2.485,2.485 z m -2.485,2.485 2.485,-2.485 -2.485,-2.484 -2.484,2.484 z m -4.969,4.969 2.485,-2.485 -2.485,-2.484 -2.484,2.484 z M 14.907,4.969 17.392,2.485 14.907,0 12.423,2.485 Z M 9.938,9.938 12.423,7.454 9.938,4.969 7.454,7.454 Z M 4.969,14.907 7.454,12.423 4.969,9.938 2.485,12.423 Z M 2.485,17.392 4.969,14.907 2.485,12.423 0,14.907 Z M 0,19.876 2.485,17.392 0,14.907 -2.485,17.392 Z M -2.485,22.361 0,19.876 -2.485,17.392 -4.969,19.876 Z m -2.484,2.485 2.484,-2.485 -2.484,-2.485 -2.485,2.485 z m -7.454,7.453 2.485,-2.484 -2.485,-2.485 -2.484,2.485 z m -9.938,9.938 2.485,-2.484 -2.485,-2.485 -2.485,2.485 z m -2.485,2.485 2.485,-2.485 -2.485,-2.484 -2.484,2.484 z m -4.969,4.969 2.485,-2.485 -2.485,-2.484 -2.484,2.484 z m -2.484,2.485 2.484,-2.485 -2.484,-2.485 -2.485,2.485 z m -2.485,2.484 2.485,-2.484 -2.485,-2.485 -2.484,2.485 z m -4.969,4.969 2.485,-2.484 -2.485,-2.485 -2.484,2.485 z m -4.969,4.969 2.485,-2.484 -2.485,-2.485 -2.484,2.485 z m -2.484,2.485 2.484,-2.485 -2.484,-2.484 -2.485,2.484 z m -2.485,2.484 2.485,-2.484 -2.485,-2.485 -2.485,2.485 z m -4.969,4.97 2.484,-2.485 -2.484,-2.485 -2.485,2.485 z M 17.392,7.454 19.876,4.969 17.392,2.485 14.907,4.969 Z M 14.907,9.938 17.392,7.454 14.907,4.969 12.423,7.454 Z M 7.454,17.392 9.938,14.907 7.454,12.423 4.969,14.907 Z M -2.485,27.33 0,24.846 -2.485,22.361 -4.969,24.846 Z m -2.484,2.485 2.484,-2.485 -2.484,-2.484 -2.485,2.484 z m -2.485,2.484 2.485,-2.484 -2.485,-2.485 -2.484,2.485 z m -4.969,4.969 2.485,-2.484 -2.485,-2.485 -2.484,2.485 z m -9.938,9.938 2.485,-2.484 -2.485,-2.485 -2.485,2.485 z m -4.969,4.97 2.484,-2.485 -2.484,-2.485 -2.485,2.485 z m -2.485,2.484 2.485,-2.484 -2.485,-2.485 -2.484,2.485 z m -7.453,7.454 2.484,-2.485 -2.484,-2.484 -2.485,2.484 z m -14.908,14.907 2.485,-2.484 -2.485,-2.485 -2.484,2.485 z m 67.083,-62.114 2.485,-2.484 -2.485,-2.485 -2.484,2.485 z m -2.484,2.485 2.484,-2.485 -2.484,-2.484 -2.485,2.484 z M 9.938,19.876 12.423,17.392 9.938,14.907 7.454,17.392 Z M 4.969,24.846 7.454,22.361 4.969,19.876 2.485,22.361 Z M 0,29.815 2.485,27.33 0,24.846 -2.485,27.33 Z M -2.485,32.299 0,29.815 -2.485,27.33 -4.969,29.815 Z m -2.484,2.485 2.484,-2.485 -2.484,-2.484 -2.485,2.484 z m -7.454,7.453 2.485,-2.484 -2.485,-2.485 -2.484,2.485 z m -2.484,2.485 2.484,-2.485 -2.484,-2.484 -2.485,2.484 z m -9.939,9.938 2.485,-2.484 -2.485,-2.485 -2.484,2.485 z m -2.484,2.485 2.484,-2.485 -2.484,-2.484 -2.485,2.484 z m -2.485,2.484 2.485,-2.484 -2.485,-2.485 -2.484,2.485 z m -4.969,4.969 2.485,-2.484 -2.485,-2.485 -2.484,2.485 z m -2.484,2.485 2.484,-2.485 -2.484,-2.484 -2.485,2.484 z m -2.485,2.484 2.485,-2.484 -2.485,-2.485 -2.484,2.485 z m -2.484,2.485 2.484,-2.485 -2.484,-2.484 -2.485,2.484 z m -2.485,2.485 2.485,-2.485 -2.485,-2.485 -2.484,2.485 z m -2.484,2.484 2.484,-2.484 -2.484,-2.485 -2.485,2.485 z m -2.485,2.485 2.485,-2.485 -2.485,-2.484 -2.485,2.484 z M 22.361,12.423 24.846,9.938 22.361,7.454 19.876,9.938 Z m -2.485,2.484 2.485,-2.484 -2.485,-2.485 -2.484,2.485 z m -2.484,2.485 2.484,-2.485 -2.484,-2.484 -2.485,2.484 z m -2.485,2.484 2.485,-2.484 -2.485,-2.485 -2.484,2.485 z m -2.484,2.485 2.484,-2.485 -2.484,-2.484 -2.485,2.484 z M 2.485,32.299 4.969,29.815 2.485,27.33 0,29.815 Z M -2.485,37.268 0,34.784 -2.485,32.299 -4.969,34.784 Z m -2.484,2.485 2.484,-2.485 -2.484,-2.484 -2.485,2.484 z m -2.485,2.484 2.485,-2.484 -2.485,-2.485 -2.484,2.485 z m -4.969,4.969 2.485,-2.484 -2.485,-2.485 -2.484,2.485 z m -7.453,7.454 2.484,-2.484 -2.484,-2.485 -2.485,2.485 z m -2.485,2.485 2.485,-2.485 -2.485,-2.484 -2.485,2.484 z m -2.485,2.484 2.485,-2.484 -2.485,-2.485 -2.484,2.485 z m -2.484,2.485 2.484,-2.485 -2.484,-2.484 -2.485,2.484 z M 24.846,14.907 27.33,12.423 24.846,9.938 22.361,12.423 Z m -2.485,2.485 2.485,-2.485 -2.485,-2.484 -2.485,2.484 z m -2.485,2.484 2.485,-2.484 -2.485,-2.485 -2.484,2.485 z m -4.969,4.97 2.485,-2.485 -2.485,-2.485 -2.484,2.485 z m -2.484,2.484 2.484,-2.484 -2.484,-2.485 -2.485,2.485 z M 9.938,29.815 12.423,27.33 9.938,24.846 7.454,27.33 Z M 7.454,32.299 9.938,29.815 7.454,27.33 4.969,29.815 Z M 4.969,34.784 7.454,32.299 4.969,29.815 2.485,32.299 Z M 2.485,37.268 4.969,34.784 2.485,32.299 0,34.784 Z M -2.485,42.237 0,39.753 -2.485,37.268 -4.969,39.753 Z m -4.969,4.969 2.485,-2.484 -2.485,-2.485 -2.484,2.485 z m -2.484,2.485 2.484,-2.485 -2.484,-2.484 -2.485,2.484 z m -2.485,2.485 2.485,-2.485 -2.485,-2.485 -2.484,2.485 z m -2.484,2.484 2.484,-2.484 -2.484,-2.485 -2.485,2.485 z m -2.485,2.485 2.485,-2.485 -2.485,-2.484 -2.484,2.484 z m -2.484,2.484 2.484,-2.484 -2.484,-2.485 -2.485,2.485 z m -2.485,2.485 2.485,-2.485 -2.485,-2.484 -2.485,2.484 z m -2.485,2.484 2.485,-2.484 -2.485,-2.485 -2.484,2.485 z m -2.484,2.485 2.484,-2.485 -2.484,-2.484 -2.485,2.484 z m -2.485,2.484 2.485,-2.484 -2.485,-2.485 -2.484,2.485 z m -2.484,2.485 2.484,-2.485 -2.484,-2.484 -2.485,2.484 z m -4.969,4.969 2.484,-2.484 -2.484,-2.485 -2.485,2.485 z m -7.454,7.454 2.485,-2.485 -2.485,-2.484 -2.484,2.484 z M 24.846,19.876 27.33,17.392 24.846,14.907 22.361,17.392 Z M -2.485,47.206 0,44.722 -2.485,42.237 -4.969,44.722 Z m -2.484,2.485 2.484,-2.485 -2.484,-2.484 -2.485,2.484 z m -2.485,2.485 2.485,-2.485 -2.485,-2.485 -2.484,2.485 z m -14.907,14.907 2.485,-2.485 -2.485,-2.484 -2.485,2.484 z m -14.907,14.907 2.484,-2.484 -2.484,-2.485 -2.485,2.485 z m -4.969,4.969 2.484,-2.484 -2.484,-2.485 -2.485,2.485 z m 67.083,-62.113 2.484,-2.485 -2.484,-2.485 -2.485,2.485 z m -4.97,4.969 2.485,-2.485 -2.485,-2.484 -2.484,2.484 z m -7.453,7.453 2.484,-2.484 -2.484,-2.485 -2.485,2.485 z M 4.969,44.722 7.454,42.237 4.969,39.753 2.485,42.237 Z M 2.485,47.206 4.969,44.722 2.485,42.237 0,44.722 Z M 0,49.691 2.485,47.206 0,44.722 -2.485,47.206 Z M -2.485,52.176 0,49.691 -2.485,47.206 -4.969,49.691 Z m -14.907,14.907 2.485,-2.485 -2.485,-2.484 -2.484,2.484 z m -2.484,2.484 2.484,-2.484 -2.484,-2.485 -2.485,2.485 z m -2.485,2.485 2.485,-2.485 -2.485,-2.484 -2.485,2.484 z m -2.485,2.485 2.485,-2.485 -2.485,-2.485 -2.484,2.485 z m -2.484,2.484 2.484,-2.484 -2.484,-2.485 -2.485,2.485 z m -2.485,2.485 2.485,-2.485 -2.485,-2.484 -2.484,2.484 z m -4.969,4.969 2.485,-2.485 -2.485,-2.484 -2.484,2.484 z m -4.969,4.969 2.485,-2.485 -2.485,-2.484 -2.484,2.484 z m 72.052,-67.083 2.485,-2.485 -2.485,-2.484 -2.484,2.484 z m -4.969,4.969 2.485,-2.484 -2.485,-2.485 -2.484,2.485 z m -4.969,4.969 2.485,-2.484 -2.485,-2.485 -2.485,2.485 z m -2.485,2.485 2.485,-2.485 -2.485,-2.484 -2.484,2.484 z m -2.484,2.484 2.484,-2.484 -2.484,-2.485 -2.485,2.485 z m -2.485,2.485 2.485,-2.485 -2.485,-2.484 -2.484,2.484 z m -2.484,2.484 2.484,-2.484 -2.484,-2.485 -2.485,2.485 z M 9.938,44.722 12.423,42.237 9.938,39.753 7.454,42.237 Z M 7.454,47.206 9.938,44.722 7.454,42.237 4.969,44.722 Z M 2.485,52.176 4.969,49.691 2.485,47.206 0,49.691 Z m -9.939,9.938 2.485,-2.485 -2.485,-2.484 -2.484,2.484 z m -4.969,4.969 2.485,-2.485 -2.485,-2.484 -2.484,2.484 z m -2.484,2.484 2.484,-2.484 -2.484,-2.485 -2.485,2.485 z m -9.939,9.939 2.485,-2.485 -2.485,-2.484 -2.484,2.484 z m -2.484,2.484 2.484,-2.484 -2.484,-2.485 -2.485,2.485 z m -9.938,9.938 2.484,-2.484 -2.484,-2.485 -2.485,2.485 z M 29.815,29.815 32.299,27.33 29.815,24.846 27.33,27.33 Z M 27.33,32.299 29.815,29.815 27.33,27.33 24.846,29.815 Z M 7.454,52.176 9.938,49.691 7.454,47.206 4.969,49.691 Z M 0,59.629 2.485,57.145 0,54.66 -2.485,57.145 Z M -2.485,62.114 0,59.629 -2.485,57.145 -4.969,59.629 Z m -2.484,2.484 2.484,-2.484 -2.484,-2.485 -2.485,2.485 z m -2.485,2.485 2.485,-2.485 -2.485,-2.484 -2.484,2.484 z m -2.484,2.484 2.484,-2.484 -2.484,-2.485 -2.485,2.485 z m -2.485,2.485 2.485,-2.485 -2.485,-2.484 -2.484,2.484 z m -7.453,7.454 2.484,-2.485 -2.484,-2.484 -2.485,2.484 z m -9.939,9.938 2.485,-2.485 -2.485,-2.484 -2.484,2.484 z m -2.484,2.484 2.484,-2.484 -2.484,-2.485 -2.485,2.485 z M 34.784,29.815 37.268,27.33 34.784,24.846 32.299,27.33 Z m -7.454,7.453 2.485,-2.484 -2.485,-2.485 -2.484,2.485 z m -4.969,4.969 2.485,-2.484 -2.485,-2.485 -2.485,2.485 z m -2.485,2.485 2.485,-2.485 -2.485,-2.484 -2.484,2.484 z M 7.454,57.145 9.938,54.66 7.454,52.176 4.969,54.66 Z M 4.969,59.629 7.454,57.145 4.969,54.66 2.485,57.145 Z M 2.485,62.114 4.969,59.629 2.485,57.145 0,59.629 Z m -7.454,7.453 2.484,-2.484 -2.484,-2.485 -2.485,2.485 z m -2.485,2.485 2.485,-2.485 -2.485,-2.484 -2.484,2.484 z m -2.484,2.485 2.484,-2.485 -2.484,-2.485 -2.485,2.485 z m -2.485,2.484 2.485,-2.484 -2.485,-2.485 -2.484,2.485 z m -2.484,2.485 2.484,-2.485 -2.484,-2.484 -2.485,2.484 z m -9.939,9.938 2.485,-2.485 -2.485,-2.484 -2.484,2.484 z m 59.63,-54.66 2.484,-2.485 -2.484,-2.484 -2.485,2.484 z m -2.485,2.484 2.485,-2.484 -2.485,-2.485 -2.484,2.485 z m -2.484,2.485 2.484,-2.485 -2.484,-2.484 -2.485,2.484 z m -2.485,2.484 2.485,-2.484 -2.485,-2.485 -2.484,2.485 z m -2.484,2.485 2.484,-2.485 -2.484,-2.484 -2.485,2.484 z m -2.485,2.484 2.485,-2.484 -2.485,-2.485 -2.485,2.485 z m -2.485,2.485 2.485,-2.485 -2.485,-2.484 -2.484,2.484 z M 12.423,57.145 14.907,54.66 12.423,52.176 9.938,54.66 Z M 7.454,62.114 9.938,59.629 7.454,57.145 4.969,59.629 Z M 4.969,64.598 7.454,62.114 4.969,59.629 2.485,62.114 Z M 0,69.567 2.485,67.083 0,64.598 -2.485,67.083 Z M -2.485,72.052 0,69.567 -2.485,67.083 -4.969,69.567 Z m -12.422,12.423 2.484,-2.485 -2.484,-2.484 -2.485,2.484 z m -9.939,9.938 2.485,-2.485 -2.485,-2.484 -2.484,2.484 z m 67.083,-62.114 2.485,-2.484 -2.485,-2.485 -2.484,2.485 z m -9.938,9.938 2.485,-2.484 -2.485,-2.485 -2.484,2.485 z m -2.484,2.485 2.484,-2.485 -2.484,-2.484 -2.485,2.484 z m -2.485,2.484 2.485,-2.484 -2.485,-2.485 -2.484,2.485 z m -4.969,4.97 2.485,-2.485 -2.485,-2.485 -2.485,2.485 z m -2.485,2.484 2.485,-2.484 -2.485,-2.485 -2.484,2.485 z m -2.484,2.485 2.484,-2.485 -2.484,-2.484 -2.485,2.484 z m -2.485,2.484 2.485,-2.484 -2.485,-2.485 -2.484,2.485 z m -2.484,2.485 2.484,-2.485 -2.484,-2.484 -2.485,2.484 z M 4.969,69.567 7.454,67.083 4.969,64.598 2.485,67.083 Z m -9.938,9.939 2.484,-2.485 -2.484,-2.484 -2.485,2.484 z m -2.485,2.484 2.485,-2.484 -2.485,-2.485 -2.484,2.485 z m -12.422,12.423 2.484,-2.485 -2.484,-2.484 -2.485,2.484 z m -2.485,2.484 2.485,-2.484 -2.485,-2.485 -2.485,2.485 z m -2.485,2.485 2.485,-2.485 -2.485,-2.484 -2.484,2.484 z m 64.599,-59.629 2.484,-2.485 -2.484,-2.484 -2.485,2.484 z m -2.485,2.484 2.485,-2.484 -2.485,-2.485 -2.484,2.485 z m -4.969,4.969 2.485,-2.484 -2.485,-2.485 -2.484,2.485 z m -7.453,7.454 2.484,-2.484 -2.484,-2.485 -2.485,2.485 z m -4.97,4.969 2.485,-2.484 -2.485,-2.485 -2.484,2.485 z m -2.484,2.485 2.484,-2.485 -2.484,-2.484 -2.485,2.484 z m -2.485,2.484 2.485,-2.484 -2.485,-2.485 -2.484,2.485 z m -2.484,2.485 2.484,-2.485 -2.484,-2.484 -2.485,2.484 z M 7.454,72.052 9.938,69.567 7.454,67.083 4.969,69.567 Z M 4.969,74.537 7.454,72.052 4.969,69.567 2.485,72.052 Z M 0,79.506 2.485,77.021 0,74.537 -2.485,77.021 Z M -2.485,81.99 0,79.506 -2.485,77.021 -4.969,79.506 Z m -2.484,2.485 2.484,-2.485 -2.484,-2.484 -2.485,2.484 z m -2.485,2.484 2.485,-2.484 -2.485,-2.485 -2.484,2.485 z m -2.484,2.485 2.484,-2.485 -2.484,-2.484 -2.485,2.484 z m -4.969,4.969 2.484,-2.485 -2.484,-2.484 -2.485,2.484 z m -2.485,2.484 2.485,-2.484 -2.485,-2.485 -2.484,2.485 z m -4.969,4.97 2.485,-2.485 -2.485,-2.485 -2.485,2.485 z m 67.083,-62.114 2.484,-2.485 -2.484,-2.484 -2.485,2.484 z m -4.969,4.969 2.484,-2.485 -2.484,-2.484 -2.485,2.484 z m -2.485,2.484 2.485,-2.484 -2.485,-2.485 -2.484,2.485 z m -2.484,2.485 2.484,-2.485 -2.484,-2.484 -2.485,2.484 z m -2.485,2.485 2.485,-2.485 -2.485,-2.485 -2.484,2.485 z m -2.484,2.484 2.484,-2.484 -2.484,-2.485 -2.485,2.485 z M 27.33,57.145 29.815,54.66 27.33,52.176 24.846,54.66 Z M 12.423,72.052 14.907,69.567 12.423,67.083 9.938,69.567 Z M 7.454,77.021 9.938,74.537 7.454,72.052 4.969,74.537 Z m -22.361,22.361 2.484,-2.485 -2.484,-2.484 -2.485,2.484 z m -2.485,2.485 2.485,-2.485 -2.485,-2.485 -2.484,2.485 z m -2.484,2.484 2.484,-2.484 -2.484,-2.485 -2.485,2.485 z m -2.485,2.485 2.485,-2.485 -2.485,-2.484 -2.485,2.484 z m 62.114,-57.145 2.484,-2.485 -2.484,-2.484 -2.485,2.484 z m -4.969,4.969 2.484,-2.484 -2.484,-2.485 -2.485,2.485 z m -4.969,4.969 2.484,-2.484 -2.484,-2.485 -2.485,2.485 z m -9.939,9.938 2.485,-2.484 -2.485,-2.485 -2.484,2.485 z m -2.484,2.485 2.484,-2.485 -2.484,-2.484 -2.485,2.484 z m -2.485,2.485 2.485,-2.485 -2.485,-2.485 -2.484,2.485 z M 4.969,84.475 7.454,81.99 4.969,79.506 2.485,81.99 Z M 0,89.444 2.485,86.959 0,84.475 -2.485,86.959 Z m -4.969,4.969 2.484,-2.485 -2.484,-2.484 -2.485,2.484 z m -2.485,2.484 2.485,-2.484 -2.485,-2.485 -2.484,2.485 z m -4.969,4.97 2.485,-2.485 -2.485,-2.485 -2.484,2.485 z m 64.599,-59.63 2.484,-2.484 -2.484,-2.485 -2.485,2.485 z m -9.939,9.939 2.485,-2.485 -2.485,-2.485 -2.484,2.485 z m -4.969,4.969 2.485,-2.485 -2.485,-2.484 -2.484,2.484 z m -2.484,2.484 2.484,-2.484 -2.484,-2.485 -2.485,2.485 z m -2.485,2.485 2.485,-2.485 -2.485,-2.484 -2.484,2.484 z m -2.484,2.484 2.484,-2.484 -2.484,-2.485 -2.485,2.485 z m -2.485,2.485 2.485,-2.485 -2.485,-2.484 -2.484,2.484 z m -2.484,2.484 2.484,-2.484 -2.484,-2.485 -2.485,2.485 z M 12.423,81.99 14.907,79.506 12.423,77.021 9.938,79.506 Z M 7.454,86.959 9.938,84.475 7.454,81.99 4.969,84.475 Z M 2.485,91.928 4.969,89.444 2.485,86.959 0,89.444 Z M 0,94.413 2.485,91.928 0,89.444 -2.485,91.928 Z m -4.969,4.969 2.484,-2.485 -2.484,-2.484 -2.485,2.484 z m -4.969,4.969 2.484,-2.484 -2.484,-2.485 -2.485,2.485 z m 62.114,-57.145 2.484,-2.484 -2.484,-2.485 -2.485,2.485 z m -4.97,4.97 2.485,-2.485 -2.485,-2.485 -2.484,2.485 z m -4.969,4.969 2.485,-2.485 -2.485,-2.484 -2.484,2.484 z m -4.969,4.969 2.485,-2.485 -2.485,-2.484 -2.484,2.484 z m -2.484,2.484 2.484,-2.484 -2.484,-2.485 -2.485,2.485 z m -7.454,7.454 2.485,-2.485 -2.485,-2.484 -2.484,2.484 z m -7.454,7.454 2.485,-2.485 -2.485,-2.484 -2.484,2.484 z m -2.484,2.484 2.484,-2.484 -2.484,-2.485 -2.485,2.485 z m -4.969,4.969 2.484,-2.484 -2.484,-2.485 -2.485,2.485 z M 7.454,91.928 9.938,89.444 7.454,86.959 4.969,89.444 Z M 4.969,94.413 7.454,91.928 4.969,89.444 2.485,91.928 Z M 2.485,96.897 4.969,94.413 2.485,91.928 0,94.413 Z M 0,99.382 2.485,96.897 0,94.413 -2.485,96.897 Z m -4.969,4.969 2.484,-2.484 -2.484,-2.485 -2.485,2.485 z m -2.485,2.485 2.485,-2.485 -2.485,-2.484 -2.484,2.484 z m -2.484,2.484 2.484,-2.484 -2.484,-2.485 -2.485,2.485 z m -2.485,2.485 2.485,-2.485 -2.485,-2.484 -2.484,2.484 z m -2.484,2.484 2.484,-2.484 -2.484,-2.485 -2.485,2.485 z m 49.691,-44.722 2.484,-2.484 -2.484,-2.485 -2.485,2.485 z m -7.454,7.454 2.485,-2.484 -2.485,-2.485 -2.484,2.485 z m -12.423,12.423 2.485,-2.485 -2.485,-2.484 -2.484,2.484 z m -2.484,2.484 2.484,-2.484 -2.484,-2.485 -2.485,2.485 z m -2.485,2.485 2.485,-2.485 -2.485,-2.484 -2.484,2.484 z m 49.691,-44.722 2.485,-2.485 -2.485,-2.484 -2.484,2.484 z m -2.484,2.485 2.484,-2.485 -2.484,-2.485 -2.485,2.485 z m -2.485,2.484 2.485,-2.484 -2.485,-2.485 -2.484,2.485 z m -2.484,2.485 2.484,-2.485 -2.484,-2.484 -2.485,2.484 z m -2.485,2.484 2.485,-2.484 -2.485,-2.485 -2.485,2.485 z m -2.485,2.485 2.485,-2.485 -2.485,-2.484 -2.484,2.484 z m -2.484,2.484 2.484,-2.484 -2.484,-2.485 -2.485,2.485 z m -4.969,4.969 2.484,-2.484 -2.484,-2.485 -2.485,2.485 z m -4.969,4.97 2.484,-2.485 -2.484,-2.485 -2.485,2.485 z m -4.969,4.969 2.484,-2.485 -2.484,-2.484 -2.485,2.484 z m -4.969,4.969 2.484,-2.485 -2.484,-2.484 -2.485,2.484 z m -4.97,4.969 2.485,-2.485 -2.485,-2.484 -2.484,2.484 z m -4.969,4.969 2.485,-2.485 -2.485,-2.484 -2.484,2.484 z m -4.969,4.969 2.485,-2.485 -2.485,-2.484 -2.484,2.484 z m -4.969,4.969 2.485,-2.484 -2.485,-2.485 -2.484,2.485 z M 2.485,106.836 4.969,104.351 2.485,101.867 0,104.351 Z M 0,109.32 2.485,106.836 0,104.351 l -2.485,2.485 z m -2.485,2.485 2.485,-2.485 -2.485,-2.484 -2.484,2.484 z m -2.484,2.484 2.484,-2.484 -2.484,-2.485 -2.485,2.485 z m -2.485,2.485 2.485,-2.485 -2.485,-2.484 -2.484,2.484 z m -2.484,2.484 2.484,-2.484 -2.484,-2.485 -2.485,2.485 z m 72.052,-67.082 2.484,-2.485 -2.484,-2.485 -2.485,2.485 z m -14.908,14.907 2.485,-2.485 -2.485,-2.484 -2.484,2.484 z m -4.969,4.969 2.485,-2.485 -2.485,-2.484 -2.484,2.484 z m -4.969,4.969 2.485,-2.484 -2.485,-2.485 -2.484,2.485 z m -4.969,4.969 2.485,-2.484 -2.485,-2.485 -2.484,2.485 z m -2.484,2.485 2.484,-2.485 -2.484,-2.484 -2.485,2.484 z m -2.485,2.484 2.485,-2.484 -2.485,-2.485 -2.484,2.485 z m -4.969,4.969 2.485,-2.484 -2.485,-2.485 -2.485,2.485 z m -2.485,2.485 2.485,-2.485 -2.485,-2.484 -2.484,2.484 z m -4.969,4.969 2.485,-2.485 -2.485,-2.484 -2.484,2.484 z m -2.484,2.485 2.484,-2.485 -2.484,-2.485 -2.485,2.485 z m -4.969,4.969 2.484,-2.485 -2.484,-2.484 -2.485,2.484 z m -14.908,14.907 2.485,-2.485 -2.485,-2.484 -2.484,2.484 z m 72.052,-67.083 2.485,-2.484 -2.485,-2.485 -2.484,2.485 z m -4.969,4.969 2.485,-2.484 -2.485,-2.485 -2.484,2.485 z m -2.484,2.485 2.484,-2.485 -2.484,-2.484 -2.485,2.484 z m -2.485,2.484 2.485,-2.484 -2.485,-2.485 -2.484,2.485 z m -4.969,4.969 2.485,-2.484 -2.485,-2.485 -2.485,2.485 z m -7.454,7.454 2.485,-2.484 -2.485,-2.485 -2.484,2.485 z m -2.484,2.485 2.484,-2.485 -2.484,-2.484 -2.485,2.484 z m -4.969,4.969 2.484,-2.485 -2.484,-2.484 -2.485,2.484 z m -17.392,17.392 2.484,-2.485 -2.484,-2.485 -2.485,2.485 z m -7.454,7.453 2.485,-2.484 -2.485,-2.485 -2.484,2.485 z m -4.969,4.969 2.485,-2.484 -2.485,-2.485 -2.484,2.485 z M 2.485,116.774 4.969,114.289 2.485,111.805 0,114.289 Z M 0,119.258 2.485,116.774 0,114.289 l -2.485,2.485 z m -4.969,4.97 2.484,-2.485 -2.484,-2.485 -2.485,2.485 z M 67.083,57.145 69.567,54.66 67.083,52.176 64.598,54.66 Z m -4.969,4.969 2.484,-2.485 -2.484,-2.484 -2.485,2.484 z m -2.485,2.484 2.485,-2.484 -2.485,-2.485 -2.484,2.485 z m -2.484,2.485 2.484,-2.485 -2.484,-2.484 -2.485,2.484 z m -4.969,4.969 2.484,-2.485 -2.484,-2.484 -2.485,2.484 z m -7.454,7.454 2.484,-2.485 -2.484,-2.484 -2.485,2.484 z m -4.969,4.969 2.484,-2.485 -2.484,-2.484 -2.485,2.484 z m -7.454,7.453 2.485,-2.484 -2.485,-2.485 -2.484,2.485 z m -2.484,2.485 2.484,-2.485 -2.484,-2.484 -2.485,2.484 z m -2.485,2.484 2.485,-2.484 -2.485,-2.485 -2.484,2.485 z m -4.969,4.97 2.485,-2.485 -2.485,-2.485 -2.485,2.485 z m -2.485,2.484 2.485,-2.484 -2.485,-2.485 -2.484,2.485 z m -2.484,2.485 2.484,-2.485 -2.484,-2.484 -2.485,2.484 z m -4.969,4.969 2.484,-2.485 -2.484,-2.484 -2.485,2.484 z m -4.969,4.969 2.484,-2.485 -2.484,-2.484 -2.485,2.484 z m -2.485,2.484 2.485,-2.484 -2.485,-2.485 -2.484,2.485 z M 2.485,121.743 4.969,119.258 2.485,116.774 0,119.258 Z m -4.97,4.969 2.485,-2.484 -2.485,-2.485 -2.484,2.485 z m 72.052,-67.083 2.485,-2.484 -2.485,-2.485 -2.484,2.485 z m -4.969,4.969 2.485,-2.484 -2.485,-2.485 -2.484,2.485 z m -2.484,2.485 2.484,-2.485 -2.484,-2.484 -2.485,2.484 z m -2.485,2.484 2.485,-2.484 -2.485,-2.485 -2.484,2.485 z m -4.969,4.97 2.485,-2.485 -2.485,-2.485 -2.484,2.485 z m -4.969,4.969 2.485,-2.485 -2.485,-2.484 -2.485,2.484 z m -2.485,2.484 2.485,-2.484 -2.485,-2.485 -2.484,2.485 z m -2.484,2.485 2.484,-2.485 -2.484,-2.484 -2.485,2.484 z m -4.969,4.969 2.484,-2.485 -2.484,-2.484 -2.485,2.484 z m -2.485,2.484 2.485,-2.484 -2.485,-2.485 -2.484,2.485 z m -2.484,2.485 2.484,-2.485 -2.484,-2.484 -2.485,2.484 z m -4.969,4.969 2.484,-2.485 -2.484,-2.484 -2.485,2.484 z m -14.908,14.907 2.485,-2.484 -2.485,-2.485 -2.484,2.485 z m -4.969,4.969 2.485,-2.484 -2.485,-2.485 -2.484,2.485 z m -2.484,2.485 2.484,-2.485 -2.484,-2.484 -2.485,2.484 z m -2.485,2.485 2.485,-2.485 -2.485,-2.485 -2.484,2.485 z M 0,129.197 2.485,126.712 0,124.228 l -2.485,2.484 z m 72.052,-67.083 2.485,-2.485 -2.485,-2.484 -2.485,2.484 z m -14.907,14.907 2.484,-2.484 -2.484,-2.485 -2.485,2.485 z m -4.969,4.969 2.484,-2.484 -2.484,-2.485 -2.485,2.485 z m -4.97,4.969 2.485,-2.484 -2.485,-2.485 -2.484,2.485 z m -2.484,2.485 2.484,-2.485 -2.484,-2.484 -2.485,2.484 z m -2.485,2.484 2.485,-2.484 -2.485,-2.485 -2.484,2.485 z m -2.484,2.485 2.484,-2.485 -2.484,-2.484 -2.485,2.484 z m -12.423,12.423 2.485,-2.485 -2.485,-2.484 -2.484,2.484 z m -4.969,4.969 2.485,-2.485 -2.485,-2.484 -2.485,2.484 z m -4.969,4.969 2.484,-2.485 -2.484,-2.484 -2.485,2.484 z M 2.485,131.681 4.969,129.197 2.485,126.712 0,129.197 Z m 72.052,-67.083 2.484,-2.484 -2.484,-2.485 -2.485,2.485 z m -2.485,2.485 2.485,-2.485 -2.485,-2.484 -2.485,2.484 z m -2.485,2.484 2.485,-2.484 -2.485,-2.485 -2.484,2.485 z m -2.484,2.485 2.484,-2.485 -2.484,-2.484 -2.485,2.484 z m -2.485,2.485 2.485,-2.485 -2.485,-2.485 -2.484,2.485 z m -2.484,2.484 2.484,-2.484 -2.484,-2.485 -2.485,2.485 z m -2.485,2.485 2.485,-2.485 -2.485,-2.484 -2.484,2.484 z M 54.66,84.475 57.145,81.99 54.66,79.506 52.176,81.99 Z m -2.484,2.484 2.484,-2.484 -2.484,-2.485 -2.485,2.485 z m -4.97,4.969 2.485,-2.484 -2.485,-2.485 -2.484,2.485 z m -2.484,2.485 2.484,-2.485 -2.484,-2.484 -2.485,2.484 z m -9.938,9.938 2.484,-2.484 -2.484,-2.485 -2.485,2.485 z m -4.969,4.969 2.484,-2.484 -2.484,-2.485 -2.485,2.485 z m -9.939,9.938 2.485,-2.484 -2.485,-2.485 -2.484,2.485 z m -2.484,2.485 2.484,-2.485 -2.484,-2.484 -2.485,2.484 z m -2.485,2.485 2.485,-2.485 -2.485,-2.485 -2.484,2.485 z m -2.484,2.484 2.484,-2.484 -2.484,-2.485 -2.485,2.485 z m -2.485,2.485 2.485,-2.485 -2.485,-2.484 -2.484,2.484 z m -2.484,2.484 2.484,-2.484 -2.484,-2.485 -2.485,2.485 z m -2.485,2.485 2.485,-2.485 -2.485,-2.484 -2.484,2.484 z"
       style="fill:#110f0d;fill-opacity:1;fill-rule:nonzero;stroke:none"
       transform="matrix(1.3333333,0,0,-1.3333333,403.0224,1565.3249)"
       clip-path="url(#clipPath25)" />
  </g>
</svg>
